<?xml version="1.0" standalone="no"?><!DOCTYPE svg PUBLIC "-//W3C//DTD SVG 1.1//EN" "http://www.w3.org/Graphics/SVG/1.1/DTD/svg11.dtd" ><svg version="1.1" xmlns="http://www.w3.org/2000/svg"><defs><font horiz-adv-x="0" id="font"><font-face ascent="750" bbox="-195.7838 -270 1572 920" cap-height="750" descent="-250" font-family="Apex Rounded Heavy" font-stretch="normal" font-style="normal" font-weight="500" units-per-em="1000" x-height="500" /><missing-glyph d="M136 629V121L390 375ZM744 121V629L490 375ZM181 66H699L440 325ZM440 425 699 684H181ZM65 750H815V0H65Z" horiz-adv-x="880" /><glyph d="M262 285H380L321 572ZM410 137H232L217 64Q210 28 194 14Q178 0 141 0H76Q59 0 45.5 5Q32 10 23.5 20.5Q15 31 12.5 48Q10 65 17 88L174 689Q184 724 204 739Q224 754 259 754H383Q418 754 438 739Q458 724 468 689L625 88Q638 41 618.5 20.5Q599 0 566 0H501Q464 0 448 14Q432 28 425 64Z" glyph-name="A" horiz-adv-x="640" unicode="A" /><glyph d="M308 285H426L401 562ZM858 750Q927 750 927 682V643Q927 575 858 575H599L609 473H827Q896 473 896 405V366Q896 298 827 298H628L641 175H856Q925 175 925 107V68Q925 0 856 0H518Q481 0 465 15Q449 30 446 67L439 136H258L235 67Q222 30 203 15Q184 0 147 0H79Q61 0 45.5 7.5Q30 15 21.5 29.5Q13 44 13.5 66.5Q14 89 27 119L276 682Q292 717 314 733.5Q336 750 371 750Z" glyph-name="AE" horiz-adv-x="953" unicode="&#198;" /><glyph d="M262 285H380L321 572ZM415 910Q432 910 442.5 902.5Q453 895 457 884Q461 873 457.5 860Q454 847 444 836L427 817Q413 802 399 794Q385 786 356 786H294Q265 786 254 803.5Q243 821 252 845L259 864Q270 893 283.5 901.5Q297 910 325 910ZM410 137H232L217 64Q210 28 194 14Q178 0 141 0H76Q59 0 45.5 5Q32 10 23.5 20.5Q15 31 12.5 48Q10 65 17 88L174 689Q184 724 204 739Q224 754 259 754H383Q418 754 438 739Q458 724 468 689L625 88Q638 41 618.5 20.5Q599 0 566 0H501Q464 0 448 14Q432 28 425 64Z" glyph-name="Aacute" horiz-adv-x="640" unicode="&#193;" /><glyph d="M262 285H380L321 572ZM320 776Q219 776 172 793.5Q125 811 114 854Q108 880 118.5 895Q129 910 152 910H202Q219 910 226 905Q233 900 239 890Q245 880 262 875Q279 870 320 870Q361 870 378 875Q395 880 401 890Q407 900 414 905Q421 910 438 910H488Q511 910 521.5 895Q532 880 526 854Q515 811 468 793.5Q421 776 320 776ZM410 137H232L217 64Q210 28 194 14Q178 0 141 0H76Q59 0 45.5 5Q32 10 23.5 20.5Q15 31 12.5 48Q10 65 17 88L174 689Q184 724 204 739Q224 754 259 754H383Q418 754 438 739Q458 724 468 689L625 88Q638 41 618.5 20.5Q599 0 566 0H501Q464 0 448 14Q432 28 425 64Z" glyph-name="Abreve" horiz-adv-x="640" unicode="&#258;" /><glyph d="M262 285H380L321 572ZM382 910Q410 910 425.5 901.5Q441 893 458 881L502 849Q512 841 516.5 830.5Q521 820 519 810Q517 800 509.5 793Q502 786 488 786H417Q388 786 371.5 792Q355 798 335 814L320 826L305 814Q285 798 268.5 792Q252 786 223 786H152Q138 786 130.5 793Q123 800 121 810Q119 820 123.5 830.5Q128 841 138 849L182 881Q199 893 214.5 901.5Q230 910 258 910ZM410 137H232L217 64Q210 28 194 14Q178 0 141 0H76Q59 0 45.5 5Q32 10 23.5 20.5Q15 31 12.5 48Q10 65 17 88L174 689Q184 724 204 739Q224 754 259 754H383Q418 754 438 739Q458 724 468 689L625 88Q638 41 618.5 20.5Q599 0 566 0H501Q464 0 448 14Q432 28 425 64Z" glyph-name="Acircumflex" horiz-adv-x="640" unicode="&#194;" /><glyph d="M262 285H380L321 572ZM335 848Q335 871 343.5 885Q352 899 367 907Q382 915 402 917.5Q422 920 445 920Q468 920 488 917.5Q508 915 523 907Q538 899 546.5 885Q555 871 555 848Q555 825 546.5 811Q538 797 523 789Q508 781 488 778.5Q468 776 445 776Q422 776 402 778.5Q382 781 367 789Q352 797 343.5 811Q335 825 335 848ZM85 848Q85 871 93.5 885Q102 899 117 907Q132 915 152 917.5Q172 920 195 920Q218 920 238 917.5Q258 915 273 907Q288 899 296.5 885Q305 871 305 848Q305 825 296.5 811Q288 797 273 789Q258 781 238 778.5Q218 776 195 776Q172 776 152 778.5Q132 781 117 789Q102 797 93.5 811Q85 825 85 848ZM410 137H232L217 64Q210 28 194 14Q178 0 141 0H76Q59 0 45.5 5Q32 10 23.5 20.5Q15 31 12.5 48Q10 65 17 88L174 689Q184 724 204 739Q224 754 259 754H383Q418 754 438 739Q458 724 468 689L625 88Q638 41 618.5 20.5Q599 0 566 0H501Q464 0 448 14Q432 28 425 64Z" glyph-name="Adieresis" horiz-adv-x="640" unicode="&#196;" /><glyph d="M262 285H380L321 572ZM315 910Q343 910 356.5 901.5Q370 893 381 864L388 845Q397 821 386 803.5Q375 786 346 786H284Q255 786 241 794Q227 802 213 817L196 836Q186 847 182.5 860Q179 873 183 884Q187 895 197.5 902.5Q208 910 225 910ZM410 137H232L217 64Q210 28 194 14Q178 0 141 0H76Q59 0 45.5 5Q32 10 23.5 20.5Q15 31 12.5 48Q10 65 17 88L174 689Q184 724 204 739Q224 754 259 754H383Q418 754 438 739Q458 724 468 689L625 88Q638 41 618.5 20.5Q599 0 566 0H501Q464 0 448 14Q432 28 425 64Z" glyph-name="Agrave" horiz-adv-x="640" unicode="&#192;" /><glyph d="M262 285H380L321 572ZM223 786Q192 786 178 800Q164 814 164 846V850Q164 882 178 896Q192 910 223 910H417Q448 910 462 896Q476 882 476 850V846Q476 814 462 800Q448 786 417 786ZM410 137H232L217 64Q210 28 194 14Q178 0 141 0H76Q59 0 45.5 5Q32 10 23.5 20.5Q15 31 12.5 48Q10 65 17 88L174 689Q184 724 204 739Q224 754 259 754H383Q418 754 438 739Q458 724 468 689L625 88Q638 41 618.5 20.5Q599 0 566 0H501Q464 0 448 14Q432 28 425 64Z" glyph-name="Amacron" horiz-adv-x="640" unicode="&#256;" /><glyph d="M217 64Q210 28 194 14Q178 0 141 0H76Q59 0 45.5 5Q32 10 23.5 20.5Q15 31 12.5 48Q10 65 17 88L174 689Q184 724 204 739Q224 754 259 754H383Q418 754 438 739Q458 724 468 689L625 88Q638 41 618.5 20.5Q599 0 566 0H501Q464 0 448 14Q432 28 425 64L321 572Z" glyph-name="Anocross" horiz-adv-x="642" /><glyph d="M262 285H380L321 572ZM583 -145Q592 -145 599 -144Q606 -143 611 -143Q629 -143 640 -155Q651 -167 651 -187V-192Q651 -234 616 -242Q607 -244 590 -247Q573 -250 541 -250Q472 -250 427.5 -218.5Q383 -187 383 -127Q383 -91 399 -63Q415 -35 441 -12L410 137H232L217 64Q210 28 194 14Q178 0 141 0H76Q59 0 45.5 5Q32 10 23.5 20.5Q15 31 12.5 48Q10 65 17 88L174 689Q184 724 204 739Q224 754 259 754H383Q418 754 438 739Q458 724 468 689L625 88Q634 55 626.5 35.5Q619 16 602 6Q523 -38 523 -99Q523 -120 537.5 -132.5Q552 -145 583 -145Z" glyph-name="Aogonek" horiz-adv-x="640" unicode="&#260;" /><glyph d="M320 831Q348 831 348 847Q348 864 320 864Q292 864 292 848Q292 831 320 831ZM262 285H380L321 572ZM320 777Q263 777 233.5 790.5Q204 804 204 847Q204 891 233.5 905Q263 919 320 919Q377 919 406.5 905Q436 891 436 848Q436 804 406.5 790.5Q377 777 320 777ZM410 137H232L217 64Q210 28 194 14Q178 0 141 0H76Q59 0 45.5 5Q32 10 23.5 20.5Q15 31 12.5 48Q10 65 17 88L174 689Q184 724 204 739Q224 754 259 754H383Q418 754 438 739Q458 724 468 689L625 88Q638 41 618.5 20.5Q599 0 566 0H501Q464 0 448 14Q432 28 425 64Z" glyph-name="Aring" horiz-adv-x="640" unicode="&#197;" /><glyph d="M262 285H380L321 572ZM415 777Q384 777 361.5 784Q339 791 320.5 799Q302 807 286 814Q270 821 252 821Q237 821 228 818Q219 815 213 807Q205 797 197.5 791.5Q190 786 170 786H137Q114 786 104 800Q94 814 99 840Q107 882 140.5 900.5Q174 919 225 919Q256 919 278.5 912Q301 905 319.5 897Q338 889 354 882Q370 875 388 875Q403 875 412 878Q421 881 427 889Q435 899 442.5 904.5Q450 910 470 910H503Q526 910 536 896Q546 882 541 856Q533 814 499.5 795.5Q466 777 415 777ZM410 137H232L217 64Q210 28 194 14Q178 0 141 0H76Q59 0 45.5 5Q32 10 23.5 20.5Q15 31 12.5 48Q10 65 17 88L174 689Q184 724 204 739Q224 754 259 754H383Q418 754 438 739Q458 724 468 689L625 88Q638 41 618.5 20.5Q599 0 566 0H501Q464 0 448 14Q432 28 425 64Z" glyph-name="Atilde" horiz-adv-x="640" unicode="&#195;" /><glyph d="M37 682Q37 750 106 750H324Q399 750 447 733.5Q495 717 523 688.5Q551 660 562 620Q573 580 573 534Q573 490 552.5 454.5Q532 419 499 397Q539 379 566.5 338.5Q594 298 594 233Q594 184 582 141.5Q570 99 540 67.5Q510 36 458.5 18Q407 0 328 0H106Q37 0 37 68ZM367 524Q367 549 355.5 569Q344 589 309 589H233V459H309Q344 459 355.5 479Q367 499 367 524ZM389 238Q389 273 373 294Q357 315 320 315H233V161H320Q358 161 373.5 182Q389 203 389 238Z" glyph-name="B" horiz-adv-x="610" unicode="B" /><glyph d="M226 375Q226 312 236.5 271Q247 230 267 206Q287 182 316.5 172Q346 162 384 162Q410 162 432 165Q454 168 468 171Q502 179 520.5 162Q539 145 539 114V70Q539 44 529.5 26.5Q520 9 489 0Q469 -6 433.5 -11Q398 -16 363 -16Q194 -16 112 77Q30 170 29 375Q30 580 112 673Q194 766 363 766Q398 766 433.5 761Q469 756 489 750Q520 741 529.5 723.5Q539 706 539 680V636Q539 605 520.5 588Q502 571 468 579Q454 582 432 585Q410 588 384 588Q346 588 316.5 578Q287 568 267 544Q247 520 236.5 479Q226 438 226 375Z" glyph-name="C" horiz-adv-x="563" unicode="C" /><glyph d="M226 375Q226 312 236.5 271Q247 230 267 206Q287 182 316.5 172Q346 162 384 162Q410 162 432 165Q454 168 468 171Q502 179 520.5 162Q539 145 539 114V70Q539 44 529.5 26.5Q520 9 489 0Q469 -6 433.5 -11Q398 -16 363 -16Q194 -16 112 77Q30 170 29 375Q30 580 112 673Q194 766 363 766Q398 766 433.5 761Q469 756 489 750Q520 741 529.5 723.5Q539 706 539 680V636Q539 605 520.5 588Q502 571 468 579Q454 582 432 585Q410 588 384 588Q346 588 316.5 578Q287 568 267 544Q247 520 236.5 479Q226 438 226 375ZM431 910Q448 910 458.5 902.5Q469 895 473 884Q477 873 473.5 860Q470 847 460 836L443 817Q429 802 415 794Q401 786 372 786H310Q281 786 270 803.5Q259 821 268 845L275 864Q286 893 299.5 901.5Q313 910 341 910Z" glyph-name="Cacute" horiz-adv-x="563" unicode="&#262;" /><glyph d="M274 786Q246 786 230.5 794.5Q215 803 198 815L154 847Q144 854 139.5 865Q135 876 137 886Q139 896 146.5 903Q154 910 168 910H239Q268 910 284.5 904Q301 898 321 882L336 870L351 882Q371 898 387.5 904Q404 910 433 910H504Q518 910 525.5 903Q533 896 535 886Q537 876 532.5 865Q528 854 518 847L474 815Q457 803 441.5 794.5Q426 786 398 786ZM226 375Q226 312 236.5 271Q247 230 267 206Q287 182 316.5 172Q346 162 384 162Q410 162 432 165Q454 168 468 171Q502 179 520.5 162Q539 145 539 114V70Q539 44 529.5 26.5Q520 9 489 0Q469 -6 433.5 -11Q398 -16 363 -16Q194 -16 112 77Q30 170 29 375Q30 580 112 673Q194 766 363 766Q398 766 433.5 761Q469 756 489 750Q520 741 529.5 723.5Q539 706 539 680V636Q539 605 520.5 588Q502 571 468 579Q454 582 432 585Q410 588 384 588Q346 588 316.5 578Q287 568 267 544Q247 520 236.5 479Q226 438 226 375Z" glyph-name="Ccaron" horiz-adv-x="563" unicode="&#268;" /><glyph d="M311 -147Q363 -147 363 -122Q363 -100 328 -92Q306 -87 298 -74.5Q290 -62 292 -39L295 -12Q161 5 95.5 98.5Q30 192 29 375Q30 580 112 673Q194 766 363 766Q398 766 433.5 761Q469 756 489 750Q520 741 529.5 723.5Q539 706 539 680V636Q539 605 520.5 588Q502 571 468 579Q454 582 432 585Q410 588 384 588Q346 588 316.5 578Q287 568 267 544Q247 520 236.5 479Q226 438 226 375Q226 312 236.5 271Q247 230 267 206Q287 182 316.5 172Q346 162 384 162Q410 162 432 165Q454 168 468 171Q502 179 520.5 162Q539 145 539 114V70Q539 44 529.5 26.5Q520 9 489 0Q472 -5 441.5 -9.5Q411 -14 379 -16L380 -37Q380 -46 389 -49Q434 -61 458 -85.5Q482 -110 482 -145Q482 -200 441 -225Q400 -250 336 -250Q304 -250 290 -247.5Q276 -245 267 -243Q250 -239 241 -225.5Q232 -212 232 -193V-188Q232 -168 242.5 -155.5Q253 -143 271 -143Q278 -143 290 -145Q302 -147 311 -147Z" glyph-name="Ccedilla" horiz-adv-x="563" unicode="&#199;" /><glyph d="M398 910Q426 910 441.5 901.5Q457 893 474 881L518 849Q528 841 532.5 830.5Q537 820 535 810Q533 800 525.5 793Q518 786 504 786H433Q404 786 387.5 792Q371 798 351 814L336 826L321 814Q301 798 284.5 792Q268 786 239 786H168Q154 786 146.5 793Q139 800 137 810Q135 820 139.5 830.5Q144 841 154 849L198 881Q215 893 230.5 901.5Q246 910 274 910ZM226 375Q226 312 236.5 271Q247 230 267 206Q287 182 316.5 172Q346 162 384 162Q410 162 432 165Q454 168 468 171Q502 179 520.5 162Q539 145 539 114V70Q539 44 529.5 26.5Q520 9 489 0Q469 -6 433.5 -11Q398 -16 363 -16Q194 -16 112 77Q30 170 29 375Q30 580 112 673Q194 766 363 766Q398 766 433.5 761Q469 756 489 750Q520 741 529.5 723.5Q539 706 539 680V636Q539 605 520.5 588Q502 571 468 579Q454 582 432 585Q410 588 384 588Q346 588 316.5 578Q287 568 267 544Q247 520 236.5 479Q226 438 226 375Z" glyph-name="Ccircumflex" horiz-adv-x="563" unicode="&#264;" /><glyph d="M226 848Q226 871 234.5 885Q243 899 258 907Q273 915 293 917.5Q313 920 336 920Q359 920 379 917.5Q399 915 414 907Q429 899 437.5 885Q446 871 446 848Q446 825 437.5 811Q429 797 414 789Q399 781 379 778.5Q359 776 336 776Q313 776 293 778.5Q273 781 258 789Q243 797 234.5 811Q226 825 226 848ZM226 375Q226 312 236.5 271Q247 230 267 206Q287 182 316.5 172Q346 162 384 162Q410 162 432 165Q454 168 468 171Q502 179 520.5 162Q539 145 539 114V70Q539 44 529.5 26.5Q520 9 489 0Q469 -6 433.5 -11Q398 -16 363 -16Q194 -16 112 77Q30 170 29 375Q30 580 112 673Q194 766 363 766Q398 766 433.5 761Q469 756 489 750Q520 741 529.5 723.5Q539 706 539 680V636Q539 605 520.5 588Q502 571 468 579Q454 582 432 585Q410 588 384 588Q346 588 316.5 578Q287 568 267 544Q247 520 236.5 479Q226 438 226 375Z" glyph-name="Cdotaccent" horiz-adv-x="563" unicode="&#266;" /><glyph d="M233 171H294Q331 171 355 184Q379 197 393 222.5Q407 248 412.5 286Q418 324 418 375Q418 425 412.5 463.5Q407 502 393 527.5Q379 553 355 566Q331 579 294 579H233ZM106 0Q37 0 37 68V682Q37 750 106 750H293Q392 750 455 721Q518 692 554.5 642Q591 592 605 523Q619 454 619 375Q619 295 605 226.5Q591 158 554.5 107.5Q518 57 455 28.5Q392 0 293 0Z" glyph-name="D" horiz-adv-x="646" unicode="D" /><glyph d="M228 786Q200 786 184.5 794.5Q169 803 152 815L108 847Q98 854 93.5 865Q89 876 91 886Q93 896 100.5 903Q108 910 122 910H193Q222 910 238.5 904Q255 898 275 882L290 870L305 882Q325 898 341.5 904Q358 910 387 910H458Q472 910 479.5 903Q487 896 489 886Q491 876 486.5 865Q482 854 472 847L428 815Q411 803 395.5 794.5Q380 786 352 786ZM233 171H294Q331 171 355 184Q379 197 393 222.5Q407 248 412.5 286Q418 324 418 375Q418 425 412.5 463.5Q407 502 393 527.5Q379 553 355 566Q331 579 294 579H233ZM106 0Q37 0 37 68V682Q37 750 106 750H293Q392 750 455 721Q518 692 554.5 642Q591 592 605 523Q619 454 619 375Q619 295 605 226.5Q591 158 554.5 107.5Q518 57 455 28.5Q392 0 293 0Z" glyph-name="Dcaron" horiz-adv-x="646" unicode="&#270;" /><glyph d="M283 304V171H344Q381 171 405 184Q429 197 443 222.5Q457 248 462.5 286Q468 324 468 375Q468 425 462.5 463.5Q457 502 443 527.5Q429 553 405 566Q381 579 344 579H283V447H349Q410 447 410 385V366Q410 304 349 304ZM156 0Q87 0 87 68V304H71Q10 304 10 366V385Q10 447 71 447H87V682Q87 750 156 750H343Q442 750 505 721Q568 692 604.5 642Q641 592 655 523Q669 454 669 375Q669 295 655 226.5Q641 158 604.5 107.5Q568 57 505 28.5Q442 0 343 0Z" glyph-name="Dcroat" horiz-adv-x="696" unicode="&#272;" /><glyph d="M587 173 410 545 233 173ZM63 0Q10 0 10 53V94Q10 103 12 115Q14 127 20 139L300 702Q308 718 315.5 730.5Q323 743 332 750.5Q341 758 353 762Q365 766 383 766H437Q455 766 467 762Q479 758 488 750.5Q497 743 504.5 730.5Q512 718 520 702L800 139Q806 127 808 115Q810 103 810 94V53Q810 0 757 0Z" glyph-name="Delta" horiz-adv-x="820" unicode="&#8710;" /><glyph d="M37 682Q37 750 106 750H472Q541 750 541 682V645Q541 577 472 577H233V472H444Q513 472 513 404V367Q513 299 444 299H233V173H472Q541 173 541 105V68Q541 0 472 0H106Q37 0 37 68Z" glyph-name="E" horiz-adv-x="571" unicode="E" /><glyph d="M37 682Q37 750 106 750H472Q541 750 541 682V645Q541 577 472 577H233V472H444Q513 472 513 404V367Q513 299 444 299H233V173H472Q541 173 541 105V68Q541 0 472 0H106Q37 0 37 68ZM393 910Q410 910 420.5 902.5Q431 895 435 884Q439 873 435.5 860Q432 847 422 836L405 817Q391 802 377 794Q363 786 334 786H272Q243 786 232 803.5Q221 821 230 845L237 864Q248 893 261.5 901.5Q275 910 303 910Z" glyph-name="Eacute" horiz-adv-x="571" unicode="&#201;" /><glyph d="M298 776Q197 776 150 793.5Q103 811 92 854Q86 880 96.5 895Q107 910 130 910H180Q197 910 204 905Q211 900 217 890Q223 880 240 875Q257 870 298 870Q339 870 356 875Q373 880 379 890Q385 900 392 905Q399 910 416 910H466Q489 910 499.5 895Q510 880 504 854Q493 811 446 793.5Q399 776 298 776ZM37 682Q37 750 106 750H472Q541 750 541 682V645Q541 577 472 577H233V472H444Q513 472 513 404V367Q513 299 444 299H233V173H472Q541 173 541 105V68Q541 0 472 0H106Q37 0 37 68Z" glyph-name="Ebreve" horiz-adv-x="571" unicode="&#276;" /><glyph d="M236 786Q208 786 192.5 794.5Q177 803 160 815L116 847Q106 854 101.5 865Q97 876 99 886Q101 896 108.5 903Q116 910 130 910H201Q230 910 246.5 904Q263 898 283 882L298 870L313 882Q333 898 349.5 904Q366 910 395 910H466Q480 910 487.5 903Q495 896 497 886Q499 876 494.5 865Q490 854 480 847L436 815Q419 803 403.5 794.5Q388 786 360 786ZM37 682Q37 750 106 750H472Q541 750 541 682V645Q541 577 472 577H233V472H444Q513 472 513 404V367Q513 299 444 299H233V173H472Q541 173 541 105V68Q541 0 472 0H106Q37 0 37 68Z" glyph-name="Ecaron" horiz-adv-x="571" unicode="&#282;" /><glyph d="M360 910Q388 910 403.5 901.5Q419 893 436 881L480 849Q490 841 494.5 830.5Q499 820 497 810Q495 800 487.5 793Q480 786 466 786H395Q366 786 349.5 792Q333 798 313 814L298 826L283 814Q263 798 246.5 792Q230 786 201 786H130Q116 786 108.5 793Q101 800 99 810Q97 820 101.5 830.5Q106 841 116 849L160 881Q177 893 192.5 901.5Q208 910 236 910ZM37 682Q37 750 106 750H472Q541 750 541 682V645Q541 577 472 577H233V472H444Q513 472 513 404V367Q513 299 444 299H233V173H472Q541 173 541 105V68Q541 0 472 0H106Q37 0 37 68Z" glyph-name="Ecircumflex" horiz-adv-x="571" unicode="&#202;" /><glyph d="M37 682Q37 750 106 750H472Q541 750 541 682V645Q541 577 472 577H233V472H444Q513 472 513 404V367Q513 299 444 299H233V173H472Q541 173 541 105V68Q541 0 472 0H106Q37 0 37 68ZM313 848Q313 871 321.5 885Q330 899 345 907Q360 915 380 917.5Q400 920 423 920Q446 920 466 917.5Q486 915 501 907Q516 899 524.5 885Q533 871 533 848Q533 825 524.5 811Q516 797 501 789Q486 781 466 778.5Q446 776 423 776Q400 776 380 778.5Q360 781 345 789Q330 797 321.5 811Q313 825 313 848ZM63 848Q63 871 71.5 885Q80 899 95 907Q110 915 130 917.5Q150 920 173 920Q196 920 216 917.5Q236 915 251 907Q266 899 274.5 885Q283 871 283 848Q283 825 274.5 811Q266 797 251 789Q236 781 216 778.5Q196 776 173 776Q150 776 130 778.5Q110 781 95 789Q80 797 71.5 811Q63 825 63 848Z" glyph-name="Edieresis" horiz-adv-x="571" unicode="&#203;" /><glyph d="M188 848Q188 871 196.5 885Q205 899 220 907Q235 915 255 917.5Q275 920 298 920Q321 920 341 917.5Q361 915 376 907Q391 899 399.5 885Q408 871 408 848Q408 825 399.5 811Q391 797 376 789Q361 781 341 778.5Q321 776 298 776Q275 776 255 778.5Q235 781 220 789Q205 797 196.5 811Q188 825 188 848ZM37 682Q37 750 106 750H472Q541 750 541 682V645Q541 577 472 577H233V472H444Q513 472 513 404V367Q513 299 444 299H233V173H472Q541 173 541 105V68Q541 0 472 0H106Q37 0 37 68Z" glyph-name="Edotaccent" horiz-adv-x="571" unicode="&#278;" /><glyph d="M37 682Q37 750 106 750H472Q541 750 541 682V645Q541 577 472 577H233V472H444Q513 472 513 404V367Q513 299 444 299H233V173H472Q541 173 541 105V68Q541 0 472 0H106Q37 0 37 68ZM293 910Q321 910 334.5 901.5Q348 893 359 864L366 845Q375 821 364 803.5Q353 786 324 786H262Q233 786 219 794Q205 802 191 817L174 836Q164 847 160.5 860Q157 873 161 884Q165 895 175.5 902.5Q186 910 203 910Z" glyph-name="Egrave" horiz-adv-x="571" unicode="&#200;" /><glyph d="M201 786Q170 786 156 800Q142 814 142 846V850Q142 882 156 896Q170 910 201 910H395Q426 910 440 896Q454 882 454 850V846Q454 814 440 800Q426 786 395 786ZM37 682Q37 750 106 750H472Q541 750 541 682V645Q541 577 472 577H233V472H444Q513 472 513 404V367Q513 299 444 299H233V173H472Q541 173 541 105V68Q541 0 472 0H106Q37 0 37 68Z" glyph-name="Emacron" horiz-adv-x="571" unicode="&#274;" /><glyph d="M623 -60Q623 -113 607 -151.5Q591 -190 562.5 -214.5Q534 -239 495.5 -251Q457 -263 411 -263Q334 -263 334 -208V-147Q334 -129 344.5 -117Q355 -105 378 -103Q398 -101 412.5 -89Q427 -77 427 -49V13L224 390L232 68Q232 0 164 0H106Q37 0 37 68V682Q37 750 106 750H176Q202 750 219.5 741Q237 732 248 709L427 376V447Q427 465 433 477L428 682Q428 750 497 750H554Q623 750 623 682Z" glyph-name="Eng" horiz-adv-x="657" unicode="&#330;" /><glyph d="M491 -145Q500 -145 507 -144Q514 -143 519 -143Q537 -143 548 -155Q559 -167 559 -187V-192Q559 -234 524 -242Q515 -244 498 -247Q481 -250 449 -250Q380 -250 335.5 -218.5Q291 -187 291 -127Q291 -85 312 -54Q333 -23 366 0H106Q37 0 37 68V682Q37 750 106 750H472Q541 750 541 682V645Q541 577 472 577H233V472H444Q513 472 513 404V367Q513 299 444 299H233V173H472Q541 173 541 105V68Q541 24 511 7Q431 -39 431 -99Q431 -120 445.5 -132.5Q460 -145 491 -145Z" glyph-name="Eogonek" horiz-adv-x="571" unicode="&#280;" /><glyph d="M283 304V171H344Q381 171 405 184Q429 197 443 222.5Q457 248 462.5 286Q468 324 468 375Q468 425 462.5 463.5Q457 502 443 527.5Q429 553 405 566Q381 579 344 579H283V447H349Q410 447 410 385V366Q410 304 349 304ZM156 0Q87 0 87 68V304H71Q10 304 10 366V385Q10 447 71 447H87V682Q87 750 156 750H343Q442 750 505 721Q568 692 604.5 642Q641 592 655 523Q669 454 669 375Q669 295 655 226.5Q641 158 604.5 107.5Q568 57 505 28.5Q442 0 343 0Z" glyph-name="Eth" horiz-adv-x="696" unicode="&#208;" /><glyph d="M436 289Q428 269 417.5 259.5Q407 250 384 250H294Q312 200 347.5 181.5Q383 163 435 163Q480 163 522 174Q554 182 571 166.5Q588 151 588 125V58Q588 41 579.5 23.5Q571 6 546 0Q518 -7 486.5 -11.5Q455 -16 413 -16Q273 -16 192.5 47.5Q112 111 89 250H69Q21 250 21 299V313Q21 362 69 362H80V388H69Q21 388 21 437V451Q21 500 69 500H90Q113 639 192.5 702.5Q272 766 413 766Q455 766 486.5 761.5Q518 757 546 750Q571 744 579.5 726.5Q588 709 588 692V625Q588 599 571 583.5Q554 568 522 576Q480 587 435 587Q383 587 347.5 568.5Q312 550 294 500H463Q480 500 493.5 489Q507 478 496 451L486 427Q478 407 467.5 397.5Q457 388 434 388H277V362H413Q430 362 443.5 351Q457 340 446 313Z" glyph-name="Euro" horiz-adv-x="606" unicode="&#8364;" /><glyph d="M436 289Q428 269 417.5 259.5Q407 250 384 250H294Q312 200 347.5 181.5Q383 163 435 163Q480 163 522 174Q554 182 571 166.5Q588 151 588 125V58Q588 41 579.5 23.5Q571 6 546 0Q518 -7 486.5 -11.5Q455 -16 413 -16Q273 -16 192.5 47.5Q112 111 89 250H69Q21 250 21 299V313Q21 362 69 362H80V388H69Q21 388 21 437V451Q21 500 69 500H90Q113 639 192.5 702.5Q272 766 413 766Q455 766 486.5 761.5Q518 757 546 750Q571 744 579.5 726.5Q588 709 588 692V625Q588 599 571 583.5Q554 568 522 576Q480 587 435 587Q383 587 347.5 568.5Q312 550 294 500H463Q480 500 493.5 489Q507 478 496 451L486 427Q478 407 467.5 397.5Q457 388 434 388H277V362H413Q430 362 443.5 351Q457 340 446 313Z" glyph-name="Euro.LP" horiz-adv-x="606" unicode="&#58657;" /><glyph d="M436 233Q428 213 417.5 203.5Q407 194 384 194H284Q297 172 320.5 162.5Q344 153 376 153Q396 153 415.5 155Q435 157 447 160Q479 168 498 154.5Q517 141 517 115V60Q517 9 466 -3Q448 -8 414 -12Q380 -16 348 -16Q225 -16 160.5 36.5Q96 89 83 194H69Q21 194 21 243V257Q21 306 69 306H83Q96 411 160.5 463.5Q225 516 348 516Q380 516 414 512Q448 508 466 503Q517 491 517 440V385Q517 359 498 345.5Q479 332 447 340Q435 343 415.5 345Q396 347 376 347Q344 347 320.5 337.5Q297 328 284 306H413Q430 306 443.5 295Q457 284 446 257Z" glyph-name="Euro.OP" horiz-adv-x="555" /><glyph d="M439 239Q430 218 420.5 208.5Q411 199 388 199H293Q307 169 341 158.5Q375 148 423 148Q446 148 466 150Q486 152 506 157Q538 164 555 149Q572 134 572 108V55Q572 38 564 20.5Q556 3 531 -3Q503 -10 473 -13Q443 -16 401 -16Q273 -16 192 33Q111 82 88 199H67Q19 199 19 248V251Q19 300 67 300H78V325H67Q19 325 19 374V377Q19 426 67 426H88Q111 543 192 592Q273 641 401 641Q443 641 473 638Q503 635 531 628Q556 622 564 604.5Q572 587 572 570V517Q572 491 555 476Q538 461 506 468Q486 473 466 475Q446 477 423 477Q375 477 341 466.5Q307 456 293 426H459Q476 426 488 415Q500 404 489 377L484 365Q475 344 465.5 334.5Q456 325 433 325H270V300H414Q431 300 443 289Q455 278 444 251Z" glyph-name="Euro.hybrid" horiz-adv-x="598" /><glyph d="M37 682Q37 750 106 750H468Q536 750 536 682V645Q536 577 468 577H233V457H438Q507 457 507 388V352Q507 284 438 284H233V68Q233 0 164 0H106Q37 0 37 68Z" glyph-name="F" horiz-adv-x="552" unicode="F" /><glyph d="M359 -16Q189 -16 109 81Q29 178 29 375Q29 571 109.5 668.5Q190 766 362 766Q429 766 476 758.5Q523 751 552 743Q584 734 593.5 716Q603 698 603 672V627Q603 595 584 578Q565 561 532 569Q507 575 473.5 581.5Q440 588 391 588Q346 588 314.5 576Q283 564 263.5 538Q244 512 235 471.5Q226 431 226 375Q226 311 235.5 269Q245 227 265.5 201.5Q286 176 317 165.5Q348 155 390 155Q395 155 402 155.5Q409 156 414 157V288H387Q352 288 336 304.5Q320 321 320 356V381Q320 449 388 449H542Q609 449 609 381V85Q609 52 593 37.5Q577 23 557 15Q532 6 483.5 -5Q435 -16 359 -16Z" glyph-name="G" horiz-adv-x="645" unicode="G" /><glyph d="M359 -16Q189 -16 109 81Q29 178 29 375Q29 571 109.5 668.5Q190 766 362 766Q429 766 476 758.5Q523 751 552 743Q584 734 593.5 716Q603 698 603 672V627Q603 595 584 578Q565 561 532 569Q507 575 473.5 581.5Q440 588 391 588Q346 588 314.5 576Q283 564 263.5 538Q244 512 235 471.5Q226 431 226 375Q226 311 235.5 269Q245 227 265.5 201.5Q286 176 317 165.5Q348 155 390 155Q395 155 402 155.5Q409 156 414 157V288H387Q352 288 336 304.5Q320 321 320 356V381Q320 449 388 449H542Q609 449 609 381V85Q609 52 593 37.5Q577 23 557 15Q532 6 483.5 -5Q435 -16 359 -16ZM352 776Q251 776 204 793.5Q157 811 146 854Q140 880 150.5 895Q161 910 184 910H234Q251 910 258 905Q265 900 271 890Q277 880 294 875Q311 870 352 870Q393 870 410 875Q427 880 433 890Q439 900 446 905Q453 910 470 910H520Q543 910 553.5 895Q564 880 558 854Q547 811 500 793.5Q453 776 352 776Z" glyph-name="Gbreve" horiz-adv-x="645" unicode="&#286;" /><glyph d="M414 910Q442 910 457.5 901.5Q473 893 490 881L534 849Q544 841 548.5 830.5Q553 820 551 810Q549 800 541.5 793Q534 786 520 786H449Q420 786 403.5 792Q387 798 367 814L352 826L337 814Q317 798 300.5 792Q284 786 255 786H184Q170 786 162.5 793Q155 800 153 810Q151 820 155.5 830.5Q160 841 170 849L214 881Q231 893 246.5 901.5Q262 910 290 910ZM359 -16Q189 -16 109 81Q29 178 29 375Q29 571 109.5 668.5Q190 766 362 766Q429 766 476 758.5Q523 751 552 743Q584 734 593.5 716Q603 698 603 672V627Q603 595 584 578Q565 561 532 569Q507 575 473.5 581.5Q440 588 391 588Q346 588 314.5 576Q283 564 263.5 538Q244 512 235 471.5Q226 431 226 375Q226 311 235.5 269Q245 227 265.5 201.5Q286 176 317 165.5Q348 155 390 155Q395 155 402 155.5Q409 156 414 157V288H387Q352 288 336 304.5Q320 321 320 356V381Q320 449 388 449H542Q609 449 609 381V85Q609 52 593 37.5Q577 23 557 15Q532 6 483.5 -5Q435 -16 359 -16Z" glyph-name="Gcircumflex" horiz-adv-x="645" unicode="&#284;" /><glyph d="M377 -46Q419 -46 432 -69.5Q445 -93 429 -126L395 -197Q387 -213 380 -223.5Q373 -234 364.5 -240Q356 -246 346 -248Q336 -250 322 -250H290Q261 -250 246 -235Q231 -220 235 -189L246 -104Q250 -73 268.5 -59.5Q287 -46 315 -46ZM359 -16Q189 -16 109 81Q29 178 29 375Q29 571 109.5 668.5Q190 766 362 766Q429 766 476 758.5Q523 751 552 743Q584 734 593.5 716Q603 698 603 672V627Q603 595 584 578Q565 561 532 569Q507 575 473.5 581.5Q440 588 391 588Q346 588 314.5 576Q283 564 263.5 538Q244 512 235 471.5Q226 431 226 375Q226 311 235.5 269Q245 227 265.5 201.5Q286 176 317 165.5Q348 155 390 155Q395 155 402 155.5Q409 156 414 157V288H387Q352 288 336 304.5Q320 321 320 356V381Q320 449 388 449H542Q609 449 609 381V85Q609 52 593 37.5Q577 23 557 15Q532 6 483.5 -5Q435 -16 359 -16Z" glyph-name="Gcommaaccent" horiz-adv-x="645" unicode="&#290;" /><glyph d="M242 848Q242 871 250.5 885Q259 899 274 907Q289 915 309 917.5Q329 920 352 920Q375 920 395 917.5Q415 915 430 907Q445 899 453.5 885Q462 871 462 848Q462 825 453.5 811Q445 797 430 789Q415 781 395 778.5Q375 776 352 776Q329 776 309 778.5Q289 781 274 789Q259 797 250.5 811Q242 825 242 848ZM359 -16Q189 -16 109 81Q29 178 29 375Q29 571 109.5 668.5Q190 766 362 766Q429 766 476 758.5Q523 751 552 743Q584 734 593.5 716Q603 698 603 672V627Q603 595 584 578Q565 561 532 569Q507 575 473.5 581.5Q440 588 391 588Q346 588 314.5 576Q283 564 263.5 538Q244 512 235 471.5Q226 431 226 375Q226 311 235.5 269Q245 227 265.5 201.5Q286 176 317 165.5Q348 155 390 155Q395 155 402 155.5Q409 156 414 157V288H387Q352 288 336 304.5Q320 321 320 356V381Q320 449 388 449H542Q609 449 609 381V85Q609 52 593 37.5Q577 23 557 15Q532 6 483.5 -5Q435 -16 359 -16Z" glyph-name="Gdotaccent" horiz-adv-x="645" unicode="&#288;" /><glyph d="M413 299H233V68Q233 0 164 0H106Q37 0 37 68V682Q37 750 106 750H164Q233 750 233 682V472H413V682Q413 750 482 750H540Q609 750 609 682V68Q609 0 540 0H482Q413 0 413 68Z" glyph-name="H" horiz-adv-x="646" unicode="H" /><glyph d="M413 472V537H233V472ZM413 299H233V68Q233 0 164 0H106Q37 0 37 68V682Q37 750 106 750H164Q233 750 233 682V680H413V682Q413 750 482 750H540Q609 750 609 682V68Q609 0 540 0H482Q413 0 413 68Z" glyph-name="Hbar" horiz-adv-x="647" unicode="&#294;" /><glyph d="M385 910Q413 910 428.5 901.5Q444 893 461 881L505 849Q515 841 519.5 830.5Q524 820 522 810Q520 800 512.5 793Q505 786 491 786H420Q391 786 374.5 792Q358 798 338 814L323 826L308 814Q288 798 271.5 792Q255 786 226 786H155Q141 786 133.5 793Q126 800 124 810Q122 820 126.5 830.5Q131 841 141 849L185 881Q202 893 217.5 901.5Q233 910 261 910ZM413 299H233V68Q233 0 164 0H106Q37 0 37 68V682Q37 750 106 750H164Q233 750 233 682V472H413V682Q413 750 482 750H540Q609 750 609 682V68Q609 0 540 0H482Q413 0 413 68Z" glyph-name="Hcircumflex" horiz-adv-x="646" unicode="&#292;" /><glyph d="M43 682Q43 750 111 750H171Q239 750 239 682V68Q239 0 171 0H111Q43 0 43 68Z" glyph-name="I" horiz-adv-x="282" unicode="I" /><glyph d="M428 682Q428 750 496 750H557Q624 750 624 682V175Q624 79 568 31.5Q512 -16 390 -16Q371 -16 349 -13Q327 -10 313 -5Q291 3 282 18Q273 33 273 59V107Q273 142 291.5 155.5Q310 169 333 165Q339 164 347.5 162.5Q356 161 364 161Q428 161 428 224ZM43 682Q43 750 111 750H171Q239 750 239 682V68Q239 0 171 0H111Q43 0 43 68Z" glyph-name="IJ" horiz-adv-x="657" unicode="&#306;" /><glyph d="M43 682Q43 750 111 750H171Q239 750 239 682V68Q239 0 171 0H111Q43 0 43 68ZM236 910Q253 910 263.5 902.5Q274 895 278 884Q282 873 278.5 860Q275 847 265 836L248 817Q234 802 220 794Q206 786 177 786H115Q86 786 75 803.5Q64 821 73 845L80 864Q91 893 104.5 901.5Q118 910 146 910Z" glyph-name="Iacute" horiz-adv-x="282" unicode="&#205;" /><glyph d="M43 682Q43 750 111 750H171Q239 750 239 682V68Q239 0 171 0H111Q43 0 43 68ZM141 776Q40 776 -7 793.5Q-54 811 -65 854Q-71 880 -60.5 895Q-50 910 -27 910H23Q40 910 47 905Q54 900 60 890Q66 880 83 875Q100 870 141 870Q182 870 199 875Q216 880 222 890Q228 900 235 905Q242 910 259 910H309Q332 910 342.5 895Q353 880 347 854Q336 811 289 793.5Q242 776 141 776Z" glyph-name="Ibreve" horiz-adv-x="282" unicode="&#300;" /><glyph d="M203 910Q231 910 246.5 901.5Q262 893 279 881L323 849Q333 841 337.5 830.5Q342 820 340 810Q338 800 330.5 793Q323 786 309 786H238Q209 786 192.5 792Q176 798 156 814L141 826L126 814Q106 798 89.5 792Q73 786 44 786H-27Q-41 786 -48.5 793Q-56 800 -58 810Q-60 820 -55.5 830.5Q-51 841 -41 849L3 881Q20 893 35.5 901.5Q51 910 79 910ZM43 682Q43 750 111 750H171Q239 750 239 682V68Q239 0 171 0H111Q43 0 43 68Z" glyph-name="Icircumflex" horiz-adv-x="282" unicode="&#206;" /><glyph d="M43 682Q43 750 111 750H171Q239 750 239 682V68Q239 0 171 0H111Q43 0 43 68ZM156 848Q156 871 164.5 885Q173 899 188 907Q203 915 223 917.5Q243 920 266 920Q289 920 309 917.5Q329 915 344 907Q359 899 367.5 885Q376 871 376 848Q376 825 367.5 811Q359 797 344 789Q329 781 309 778.5Q289 776 266 776Q243 776 223 778.5Q203 781 188 789Q173 797 164.5 811Q156 825 156 848ZM-94 848Q-94 871 -85.5 885Q-77 899 -62 907Q-47 915 -27 917.5Q-7 920 16 920Q39 920 59 917.5Q79 915 94 907Q109 899 117.5 885Q126 871 126 848Q126 825 117.5 811Q109 797 94 789Q79 781 59 778.5Q39 776 16 776Q-7 776 -27 778.5Q-47 781 -62 789Q-77 797 -85.5 811Q-94 825 -94 848Z" glyph-name="Idieresis" horiz-adv-x="282" unicode="&#207;" /><glyph d="M43 682Q43 750 111 750H171Q239 750 239 682V68Q239 0 171 0H111Q43 0 43 68ZM31 848Q31 871 39.5 885Q48 899 63 907Q78 915 98 917.5Q118 920 141 920Q164 920 184 917.5Q204 915 219 907Q234 899 242.5 885Q251 871 251 848Q251 825 242.5 811Q234 797 219 789Q204 781 184 778.5Q164 776 141 776Q118 776 98 778.5Q78 781 63 789Q48 797 39.5 811Q31 825 31 848Z" glyph-name="Idotaccent" horiz-adv-x="282" unicode="&#304;" /><glyph d="M43 682Q43 750 111 750H171Q239 750 239 682V68Q239 0 171 0H111Q43 0 43 68ZM136 910Q164 910 177.5 901.5Q191 893 202 864L209 845Q218 821 207 803.5Q196 786 167 786H105Q76 786 62 794Q48 802 34 817L17 836Q7 847 3.5 860Q0 873 4 884Q8 895 18.5 902.5Q29 910 46 910Z" glyph-name="Igrave" horiz-adv-x="282" unicode="&#204;" /><glyph d="M43 682Q43 750 111 750H171Q239 750 239 682V68Q239 0 171 0H111Q43 0 43 68ZM44 786Q13 786 -1 800Q-15 814 -15 846V850Q-15 882 -1 896Q13 910 44 910H238Q269 910 283 896Q297 882 297 850V846Q297 814 283 800Q269 786 238 786Z" glyph-name="Imacron" horiz-adv-x="282" unicode="&#298;" /><glyph d="M199 -145Q208 -145 215 -144Q222 -143 227 -143Q245 -143 256 -155Q267 -167 267 -187V-192Q267 -234 232 -242Q223 -244 206 -247Q189 -250 157 -250Q88 -250 43.5 -218.5Q-1 -187 -1 -127Q-1 -95 11 -69Q23 -43 43 -22V682Q43 750 111 750H171Q239 750 239 682V68Q239 45 231.5 31Q224 17 210 8Q139 -37 139 -99Q139 -120 153.5 -132.5Q168 -145 199 -145Z" glyph-name="Iogonek" horiz-adv-x="282" unicode="&#302;" /><glyph d="M43 682Q43 750 111 750H171Q239 750 239 682V68Q239 0 171 0H111Q43 0 43 68ZM236 777Q205 777 182.5 784Q160 791 141.5 799Q123 807 107 814Q91 821 73 821Q58 821 49 818Q40 815 34 807Q26 797 18.5 791.5Q11 786 -9 786H-42Q-65 786 -75 800Q-85 814 -80 840Q-72 882 -38.5 900.5Q-5 919 46 919Q77 919 99.5 912Q122 905 140.5 897Q159 889 175 882Q191 875 209 875Q224 875 233 878Q242 881 248 889Q256 899 263.5 904.5Q271 910 291 910H324Q347 910 357 896Q367 882 362 856Q354 814 320.5 795.5Q287 777 236 777Z" glyph-name="Itilde" horiz-adv-x="282" unicode="&#296;" /><glyph d="M158 682Q158 750 226 750H287Q354 750 354 682V175Q354 79 298 31.5Q242 -16 120 -16Q101 -16 79 -13Q57 -10 43 -5Q21 3 12 18Q3 33 3 59V107Q3 142 21.5 155.5Q40 169 63 165Q69 164 77.5 162.5Q86 161 94 161Q158 161 158 224Z" glyph-name="J" horiz-adv-x="387" unicode="J" /><glyph d="M318 910Q346 910 361.5 901.5Q377 893 394 881L438 849Q448 841 452.5 830.5Q457 820 455 810Q453 800 445.5 793Q438 786 424 786H353Q324 786 307.5 792Q291 798 271 814L256 826L241 814Q221 798 204.5 792Q188 786 159 786H88Q74 786 66.5 793Q59 800 57 810Q55 820 59.5 830.5Q64 841 74 849L118 881Q135 893 150.5 901.5Q166 910 194 910ZM158 682Q158 750 226 750H287Q354 750 354 682V175Q354 79 298 31.5Q242 -16 120 -16Q101 -16 79 -13Q57 -10 43 -5Q21 3 12 18Q3 33 3 59V107Q3 142 21.5 155.5Q40 169 63 165Q69 164 77.5 162.5Q86 161 94 161Q158 161 158 224Z" glyph-name="Jcircumflex" horiz-adv-x="387" unicode="&#308;" /><glyph d="M37 682Q37 750 104 750H164Q232 750 232 682V450L399 693Q420 725 439 737.5Q458 750 490 750H585Q601 750 612.5 742Q624 734 628.5 720.5Q633 707 629 690Q625 673 611 656L414 415L634 99Q647 80 649.5 62.5Q652 45 646.5 31Q641 17 628.5 8.5Q616 0 598 0H505Q487 0 473.5 3.5Q460 7 449.5 14Q439 21 430.5 32.5Q422 44 412 61L278 286L232 217V68Q232 0 164 0H104Q37 0 37 68Z" glyph-name="K" horiz-adv-x="663" unicode="K" /><glyph d="M37 682Q37 750 104 750H164Q232 750 232 682V450L399 693Q420 725 439 737.5Q458 750 490 750H585Q601 750 612.5 742Q624 734 628.5 720.5Q633 707 629 690Q625 673 611 656L414 415L634 99Q647 80 649.5 62.5Q652 45 646.5 31Q641 17 628.5 8.5Q616 0 598 0H505Q487 0 473.5 3.5Q460 7 449.5 14Q439 21 430.5 32.5Q422 44 412 61L278 286L232 217V68Q232 0 164 0H104Q37 0 37 68ZM345 -46Q387 -46 400 -69.5Q413 -93 397 -126L363 -197Q355 -213 348 -223.5Q341 -234 332.5 -240Q324 -246 314 -248Q304 -250 290 -250H258Q229 -250 214 -235Q199 -220 203 -189L214 -104Q218 -73 236.5 -59.5Q255 -46 283 -46Z" glyph-name="Kcommaaccent" horiz-adv-x="663" unicode="&#310;" /><glyph d="M37 682Q37 750 106 750H164Q233 750 233 682V173H447Q515 173 515 105V68Q515 0 447 0H106Q37 0 37 68Z" glyph-name="L" horiz-adv-x="525" unicode="L" /><glyph d="M37 682Q37 750 106 750H164Q233 750 233 682V173H447Q515 173 515 105V68Q515 0 447 0H106Q37 0 37 68ZM230 910Q247 910 257.5 902.5Q268 895 272 884Q276 873 272.5 860Q269 847 259 836L242 817Q228 802 214 794Q200 786 171 786H109Q80 786 69 803.5Q58 821 67 845L74 864Q85 893 98.5 901.5Q112 910 140 910Z" glyph-name="Lacute" horiz-adv-x="525" unicode="&#313;" /><glyph d="M360 750Q371 750 381.5 746.5Q392 743 399 735Q406 727 408 714Q410 701 404 682L374 591Q368 573 357 561.5Q346 550 325 550Q304 550 294.5 562.5Q285 575 287 595L295 698Q297 721 307.5 735.5Q318 750 344 750ZM37 682Q37 750 106 750H164Q233 750 233 682V173H447Q515 173 515 105V68Q515 0 447 0H106Q37 0 37 68Z" glyph-name="Lcaron" horiz-adv-x="525" unicode="&#317;" /><glyph d="M37 682Q37 750 106 750H164Q233 750 233 682V173H447Q515 173 515 105V68Q515 0 447 0H106Q37 0 37 68ZM301 -46Q343 -46 356 -69.5Q369 -93 353 -126L319 -197Q311 -213 304 -223.5Q297 -234 288.5 -240Q280 -246 270 -248Q260 -250 246 -250H214Q185 -250 170 -235Q155 -220 159 -189L170 -104Q174 -73 192.5 -59.5Q211 -46 239 -46Z" glyph-name="Lcommaaccent" horiz-adv-x="525" unicode="&#315;" /><glyph d="M37 682Q37 750 106 750H164Q233 750 233 682V173H447Q515 173 515 105V68Q515 0 447 0H106Q37 0 37 68ZM294 375Q294 398 302.5 418Q311 438 326 453Q341 468 361 476.5Q381 485 404 485Q427 485 447 476.5Q467 468 482 453Q497 438 505.5 418Q514 398 514 375Q514 352 505.5 332Q497 312 482 297Q467 282 447 273.5Q427 265 404 265Q381 265 361 273.5Q341 282 326 297Q311 312 302.5 332Q294 352 294 375Z" glyph-name="Ldot" horiz-adv-x="537" unicode="&#319;" /><glyph d="M77 346V682Q77 750 146 750H204Q273 750 273 682V439L404 501Q418 508 428.5 502.5Q439 497 439 480V434Q439 414 433 405.5Q427 397 412 389L273 323V173H487Q555 173 555 105V68Q555 0 487 0H146Q77 0 77 68V231L33 210Q19 203 8.5 209Q-2 215 -2 232V277Q-2 297 4 305.5Q10 314 25 322Z" glyph-name="Lslash" horiz-adv-x="565" unicode="&#321;" /><glyph d="M607 441 518 139Q509 111 490 99.5Q471 88 446 88H383Q357 88 337.5 99.5Q318 111 310 139L221 442L230 68Q231 0 161 0H106Q37 0 37 68V682Q37 750 106 750H236Q262 750 280.5 738Q299 726 306 701L414 317L522 701Q528 726 547 738Q566 750 591 750H722Q791 750 791 682V68Q791 0 722 0H666Q596 0 597 68Z" glyph-name="M" horiz-adv-x="828" unicode="M" /><glyph d="M232 68Q232 0 164 0H106Q37 0 37 68V682Q37 750 106 750H176Q202 750 219.5 741Q237 732 248 709L436 360L428 682Q428 750 497 750H554Q623 750 623 682V68Q623 0 554 0H483Q458 0 440.5 9Q423 18 412 41L224 390Z" glyph-name="N" horiz-adv-x="660" unicode="N" /><glyph d="M232 68Q232 0 164 0H106Q37 0 37 68V682Q37 750 106 750H176Q202 750 219.5 741Q237 732 248 709L436 360L428 682Q428 750 497 750H554Q623 750 623 682V68Q623 0 554 0H483Q458 0 440.5 9Q423 18 412 41L224 390ZM425 910Q442 910 452.5 902.5Q463 895 467 884Q471 873 467.5 860Q464 847 454 836L437 817Q423 802 409 794Q395 786 366 786H304Q275 786 264 803.5Q253 821 262 845L269 864Q280 893 293.5 901.5Q307 910 335 910Z" glyph-name="Nacute" horiz-adv-x="660" unicode="&#323;" /><glyph d="M268 786Q240 786 224.5 794.5Q209 803 192 815L148 847Q138 854 133.5 865Q129 876 131 886Q133 896 140.5 903Q148 910 162 910H233Q262 910 278.5 904Q295 898 315 882L330 870L345 882Q365 898 381.5 904Q398 910 427 910H498Q512 910 519.5 903Q527 896 529 886Q531 876 526.5 865Q522 854 512 847L468 815Q451 803 435.5 794.5Q420 786 392 786ZM232 68Q232 0 164 0H106Q37 0 37 68V682Q37 750 106 750H176Q202 750 219.5 741Q237 732 248 709L436 360L428 682Q428 750 497 750H554Q623 750 623 682V68Q623 0 554 0H483Q458 0 440.5 9Q423 18 412 41L224 390Z" glyph-name="Ncaron" horiz-adv-x="660" unicode="&#327;" /><glyph d="M355 -46Q397 -46 410 -69.5Q423 -93 407 -126L373 -197Q365 -213 358 -223.5Q351 -234 342.5 -240Q334 -246 324 -248Q314 -250 300 -250H268Q239 -250 224 -235Q209 -220 213 -189L224 -104Q228 -73 246.5 -59.5Q265 -46 293 -46ZM232 68Q232 0 164 0H106Q37 0 37 68V682Q37 750 106 750H176Q202 750 219.5 741Q237 732 248 709L436 360L428 682Q428 750 497 750H554Q623 750 623 682V68Q623 0 554 0H483Q458 0 440.5 9Q423 18 412 41L224 390Z" glyph-name="Ncommaaccent" horiz-adv-x="660" unicode="&#325;" /><glyph d="M232 68Q232 0 164 0H106Q37 0 37 68V682Q37 750 106 750H176Q202 750 219.5 741Q237 732 248 709L436 360L428 682Q428 750 497 750H554Q623 750 623 682V68Q623 0 554 0H483Q458 0 440.5 9Q423 18 412 41L224 390ZM425 777Q394 777 371.5 784Q349 791 330.5 799Q312 807 296 814Q280 821 262 821Q247 821 238 818Q229 815 223 807Q215 797 207.5 791.5Q200 786 180 786H147Q124 786 114 800Q104 814 109 840Q117 882 150.5 900.5Q184 919 235 919Q266 919 288.5 912Q311 905 329.5 897Q348 889 364 882Q380 875 398 875Q413 875 422 878Q431 881 437 889Q445 899 452.5 904.5Q460 910 480 910H513Q536 910 546 896Q556 882 551 856Q543 814 509.5 795.5Q476 777 425 777Z" glyph-name="Ntilde" horiz-adv-x="660" unicode="&#209;" /><glyph d="M438 375Q438 438 432.5 479.5Q427 521 415 546Q403 571 383 581.5Q363 592 333 592Q303 592 283 581.5Q263 571 251 546Q239 521 233.5 479.5Q228 438 228 375Q228 312 233.5 270.5Q239 229 251 204Q263 179 283 168.5Q303 158 333 158Q363 158 383 168.5Q403 179 415 204Q427 229 432.5 270.5Q438 312 438 375ZM29 375Q29 464 41.5 536Q54 608 88 659Q122 710 181 738Q240 766 333 766Q426 766 485 738Q544 710 578 659Q612 608 624.5 536Q637 464 637 375Q637 286 624.5 214Q612 142 578 91Q544 40 485 12Q426 -16 333 -16Q240 -16 181 12Q122 40 88 91Q54 142 41.5 214Q29 286 29 375Z" glyph-name="O" horiz-adv-x="666" unicode="O" /><glyph d="M393 579H352Q315 579 291 566Q267 553 253 527.5Q239 502 233.5 464Q228 426 228 375Q228 325 233.5 286.5Q239 248 253 222.5Q267 197 291 184Q315 171 352 171H393ZM808 750Q877 750 877 682V645Q877 577 808 577H589V472H780Q849 472 849 404V367Q849 299 780 299H589V173H808Q877 173 877 105V68Q877 0 808 0H353Q254 0 191 29Q128 58 91.5 108Q55 158 41 226.5Q27 295 27 375Q27 455 41 523.5Q55 592 91.5 642.5Q128 693 191 721.5Q254 750 353 750Z" glyph-name="OE" horiz-adv-x="907" unicode="&#338;" /><glyph d="M438 375Q438 438 432.5 479.5Q427 521 415 546Q403 571 383 581.5Q363 592 333 592Q303 592 283 581.5Q263 571 251 546Q239 521 233.5 479.5Q228 438 228 375Q228 312 233.5 270.5Q239 229 251 204Q263 179 283 168.5Q303 158 333 158Q363 158 383 168.5Q403 179 415 204Q427 229 432.5 270.5Q438 312 438 375ZM29 375Q29 464 41.5 536Q54 608 88 659Q122 710 181 738Q240 766 333 766Q426 766 485 738Q544 710 578 659Q612 608 624.5 536Q637 464 637 375Q637 286 624.5 214Q612 142 578 91Q544 40 485 12Q426 -16 333 -16Q240 -16 181 12Q122 40 88 91Q54 142 41.5 214Q29 286 29 375ZM428 910Q445 910 455.5 902.5Q466 895 470 884Q474 873 470.5 860Q467 847 457 836L440 817Q426 802 412 794Q398 786 369 786H307Q278 786 267 803.5Q256 821 265 845L272 864Q283 893 296.5 901.5Q310 910 338 910Z" glyph-name="Oacute" horiz-adv-x="666" unicode="&#211;" /><glyph d="M438 375Q438 438 432.5 479.5Q427 521 415 546Q403 571 383 581.5Q363 592 333 592Q303 592 283 581.5Q263 571 251 546Q239 521 233.5 479.5Q228 438 228 375Q228 312 233.5 270.5Q239 229 251 204Q263 179 283 168.5Q303 158 333 158Q363 158 383 168.5Q403 179 415 204Q427 229 432.5 270.5Q438 312 438 375ZM29 375Q29 464 41.5 536Q54 608 88 659Q122 710 181 738Q240 766 333 766Q426 766 485 738Q544 710 578 659Q612 608 624.5 536Q637 464 637 375Q637 286 624.5 214Q612 142 578 91Q544 40 485 12Q426 -16 333 -16Q240 -16 181 12Q122 40 88 91Q54 142 41.5 214Q29 286 29 375ZM333 776Q232 776 185 793.5Q138 811 127 854Q121 880 131.5 895Q142 910 165 910H215Q232 910 239 905Q246 900 252 890Q258 880 275 875Q292 870 333 870Q374 870 391 875Q408 880 414 890Q420 900 427 905Q434 910 451 910H501Q524 910 534.5 895Q545 880 539 854Q528 811 481 793.5Q434 776 333 776Z" glyph-name="Obreve" horiz-adv-x="666" unicode="&#334;" /><glyph d="M395 910Q423 910 438.5 901.5Q454 893 471 881L515 849Q525 841 529.5 830.5Q534 820 532 810Q530 800 522.5 793Q515 786 501 786H430Q401 786 384.5 792Q368 798 348 814L333 826L318 814Q298 798 281.5 792Q265 786 236 786H165Q151 786 143.5 793Q136 800 134 810Q132 820 136.5 830.5Q141 841 151 849L195 881Q212 893 227.5 901.5Q243 910 271 910ZM438 375Q438 438 432.5 479.5Q427 521 415 546Q403 571 383 581.5Q363 592 333 592Q303 592 283 581.5Q263 571 251 546Q239 521 233.5 479.5Q228 438 228 375Q228 312 233.5 270.5Q239 229 251 204Q263 179 283 168.5Q303 158 333 158Q363 158 383 168.5Q403 179 415 204Q427 229 432.5 270.5Q438 312 438 375ZM29 375Q29 464 41.5 536Q54 608 88 659Q122 710 181 738Q240 766 333 766Q426 766 485 738Q544 710 578 659Q612 608 624.5 536Q637 464 637 375Q637 286 624.5 214Q612 142 578 91Q544 40 485 12Q426 -16 333 -16Q240 -16 181 12Q122 40 88 91Q54 142 41.5 214Q29 286 29 375Z" glyph-name="Ocircumflex" horiz-adv-x="666" unicode="&#212;" /><glyph d="M438 375Q438 438 432.5 479.5Q427 521 415 546Q403 571 383 581.5Q363 592 333 592Q303 592 283 581.5Q263 571 251 546Q239 521 233.5 479.5Q228 438 228 375Q228 312 233.5 270.5Q239 229 251 204Q263 179 283 168.5Q303 158 333 158Q363 158 383 168.5Q403 179 415 204Q427 229 432.5 270.5Q438 312 438 375ZM29 375Q29 464 41.5 536Q54 608 88 659Q122 710 181 738Q240 766 333 766Q426 766 485 738Q544 710 578 659Q612 608 624.5 536Q637 464 637 375Q637 286 624.5 214Q612 142 578 91Q544 40 485 12Q426 -16 333 -16Q240 -16 181 12Q122 40 88 91Q54 142 41.5 214Q29 286 29 375ZM348 848Q348 871 356.5 885Q365 899 380 907Q395 915 415 917.5Q435 920 458 920Q481 920 501 917.5Q521 915 536 907Q551 899 559.5 885Q568 871 568 848Q568 825 559.5 811Q551 797 536 789Q521 781 501 778.5Q481 776 458 776Q435 776 415 778.5Q395 781 380 789Q365 797 356.5 811Q348 825 348 848ZM98 848Q98 871 106.5 885Q115 899 130 907Q145 915 165 917.5Q185 920 208 920Q231 920 251 917.5Q271 915 286 907Q301 899 309.5 885Q318 871 318 848Q318 825 309.5 811Q301 797 286 789Q271 781 251 778.5Q231 776 208 776Q185 776 165 778.5Q145 781 130 789Q115 797 106.5 811Q98 825 98 848Z" glyph-name="Odieresis" horiz-adv-x="666" unicode="&#214;" /><glyph d="M438 375Q438 438 432.5 479.5Q427 521 415 546Q403 571 383 581.5Q363 592 333 592Q303 592 283 581.5Q263 571 251 546Q239 521 233.5 479.5Q228 438 228 375Q228 312 233.5 270.5Q239 229 251 204Q263 179 283 168.5Q303 158 333 158Q363 158 383 168.5Q403 179 415 204Q427 229 432.5 270.5Q438 312 438 375ZM29 375Q29 464 41.5 536Q54 608 88 659Q122 710 181 738Q240 766 333 766Q426 766 485 738Q544 710 578 659Q612 608 624.5 536Q637 464 637 375Q637 286 624.5 214Q612 142 578 91Q544 40 485 12Q426 -16 333 -16Q240 -16 181 12Q122 40 88 91Q54 142 41.5 214Q29 286 29 375ZM328 910Q356 910 369.5 901.5Q383 893 394 864L401 845Q410 821 399 803.5Q388 786 359 786H297Q268 786 254 794Q240 802 226 817L209 836Q199 847 195.5 860Q192 873 196 884Q200 895 210.5 902.5Q221 910 238 910Z" glyph-name="Ograve" horiz-adv-x="666" unicode="&#210;" /><glyph d="M323 910Q340 910 350.5 902.5Q361 895 365 884Q369 873 365.5 860Q362 847 352 836L335 817Q321 802 307 794Q293 786 264 786H202Q173 786 162 803.5Q151 821 160 845L167 864Q178 893 191.5 901.5Q205 910 233 910ZM533 910Q550 910 560.5 902.5Q571 895 575 884Q579 873 575.5 860Q572 847 562 836L545 817Q531 802 517 794Q503 786 474 786H412Q383 786 372 803.5Q361 821 370 845L377 864Q388 893 401.5 901.5Q415 910 443 910ZM438 375Q438 438 432.5 479.5Q427 521 415 546Q403 571 383 581.5Q363 592 333 592Q303 592 283 581.5Q263 571 251 546Q239 521 233.5 479.5Q228 438 228 375Q228 312 233.5 270.5Q239 229 251 204Q263 179 283 168.5Q303 158 333 158Q363 158 383 168.5Q403 179 415 204Q427 229 432.5 270.5Q438 312 438 375ZM29 375Q29 464 41.5 536Q54 608 88 659Q122 710 181 738Q240 766 333 766Q426 766 485 738Q544 710 578 659Q612 608 624.5 536Q637 464 637 375Q637 286 624.5 214Q612 142 578 91Q544 40 485 12Q426 -16 333 -16Q240 -16 181 12Q122 40 88 91Q54 142 41.5 214Q29 286 29 375Z" glyph-name="Ohungarumlaut" horiz-adv-x="666" unicode="&#336;" /><glyph d="M438 375Q438 438 432.5 479.5Q427 521 415 546Q403 571 383 581.5Q363 592 333 592Q303 592 283 581.5Q263 571 251 546Q239 521 233.5 479.5Q228 438 228 375Q228 312 233.5 270.5Q239 229 251 204Q263 179 283 168.5Q303 158 333 158Q363 158 383 168.5Q403 179 415 204Q427 229 432.5 270.5Q438 312 438 375ZM29 375Q29 464 41.5 536Q54 608 88 659Q122 710 181 738Q240 766 333 766Q426 766 485 738Q544 710 578 659Q612 608 624.5 536Q637 464 637 375Q637 286 624.5 214Q612 142 578 91Q544 40 485 12Q426 -16 333 -16Q240 -16 181 12Q122 40 88 91Q54 142 41.5 214Q29 286 29 375ZM236 786Q205 786 191 800Q177 814 177 846V850Q177 882 191 896Q205 910 236 910H430Q461 910 475 896Q489 882 489 850V846Q489 814 475 800Q461 786 430 786Z" glyph-name="Omacron" horiz-adv-x="666" unicode="&#332;" /><glyph d="M228 375Q228 355 228 337.5Q228 320 230 305L397 571Q375 592 333 592Q303 592 283 581.5Q263 571 251 546Q239 521 233.5 479.5Q228 438 228 375ZM438 375Q438 418 435 451L265 182Q288 158 333 158Q363 158 383 168.5Q403 179 415 204Q427 229 432.5 270.5Q438 312 438 375ZM572 668Q609 616 623 542Q637 468 637 375Q637 286 624.5 214Q612 142 578 91Q544 40 485 12Q426 -16 333 -16Q279 -16 237 -6.5Q195 3 163 20L161 17Q155 7 148.5 3.5Q142 0 128 0H81Q67 0 60.5 13.5Q54 27 65 44L91 85Q56 137 42.5 210Q29 283 29 375Q29 464 41.5 536Q54 608 88 659Q122 710 181 738Q240 766 333 766Q434 766 499 731L500 733Q506 743 512.5 746.5Q519 750 533 750H580Q594 750 600.5 736.5Q607 723 596 706Z" glyph-name="Oslash" horiz-adv-x="667" unicode="&#216;" /><glyph d="M438 375Q438 438 432.5 479.5Q427 521 415 546Q403 571 383 581.5Q363 592 333 592Q303 592 283 581.5Q263 571 251 546Q239 521 233.5 479.5Q228 438 228 375Q228 312 233.5 270.5Q239 229 251 204Q263 179 283 168.5Q303 158 333 158Q363 158 383 168.5Q403 179 415 204Q427 229 432.5 270.5Q438 312 438 375ZM29 375Q29 464 41.5 536Q54 608 88 659Q122 710 181 738Q240 766 333 766Q426 766 485 738Q544 710 578 659Q612 608 624.5 536Q637 464 637 375Q637 286 624.5 214Q612 142 578 91Q544 40 485 12Q426 -16 333 -16Q240 -16 181 12Q122 40 88 91Q54 142 41.5 214Q29 286 29 375ZM428 777Q397 777 374.5 784Q352 791 333.5 799Q315 807 299 814Q283 821 265 821Q250 821 241 818Q232 815 226 807Q218 797 210.5 791.5Q203 786 183 786H150Q127 786 117 800Q107 814 112 840Q120 882 153.5 900.5Q187 919 238 919Q269 919 291.5 912Q314 905 332.5 897Q351 889 367 882Q383 875 401 875Q416 875 425 878Q434 881 440 889Q448 899 455.5 904.5Q463 910 483 910H516Q539 910 549 896Q559 882 554 856Q546 814 512.5 795.5Q479 777 428 777Z" glyph-name="Otilde" horiz-adv-x="666" unicode="&#213;" /><glyph d="M233 420H305Q327 420 341 428Q355 436 363 448Q371 460 374 474Q377 488 377 499Q377 509 374 523Q371 537 363 549Q355 561 341 569.5Q327 578 305 578H233ZM233 68Q233 0 165 0H106Q37 0 37 68V682Q37 750 106 750H304Q382 750 436 729Q490 708 523 673.5Q556 639 570.5 593.5Q585 548 585 500Q585 451 570.5 405.5Q556 360 523 325.5Q490 291 436 270.5Q382 250 304 250H233Z" glyph-name="P" horiz-adv-x="597" unicode="P" /><glyph d="M438 375Q438 438 432.5 479.5Q427 521 415 546Q403 571 383 581.5Q363 592 333 592Q303 592 283 581.5Q263 571 251 546Q239 521 233.5 479.5Q228 438 228 375Q228 312 233.5 270.5Q239 229 251 204Q263 179 283 168.5Q303 158 333 158Q363 158 383 168.5Q403 179 415 204Q427 229 432.5 270.5Q438 312 438 375ZM29 375Q29 464 41.5 536Q54 608 88 659Q122 710 181 738Q240 766 333 766Q426 766 485 738Q544 710 578 659Q612 608 624.5 536Q637 464 637 375Q637 265 617 182Q597 99 541 48L630 29Q666 21 680.5 3.5Q695 -14 695 -48V-93Q695 -125 671.5 -138.5Q648 -152 619 -141L212 0Q157 17 121.5 50.5Q86 84 65.5 132Q45 180 37 241.5Q29 303 29 375Z" glyph-name="Q" horiz-adv-x="667" unicode="Q" /><glyph d="M233 430H317Q337 430 349.5 437.5Q362 445 369 456.5Q376 468 378.5 482Q381 496 381 509Q381 522 378 536Q375 550 368 561.5Q361 573 348.5 580Q336 587 317 587H233ZM233 273V68Q233 0 166 0H104Q37 0 37 68V682Q37 750 104 750H314Q393 750 446 733Q499 716 531 685Q563 654 576.5 609.5Q590 565 590 510Q590 441 568.5 390.5Q547 340 492 310L599 95Q617 57 603 28.5Q589 0 552 0H476Q440 0 420 14Q400 28 388 64L310 273Z" glyph-name="R" horiz-adv-x="627" unicode="R" /><glyph d="M233 430H317Q337 430 349.5 437.5Q362 445 369 456.5Q376 468 378.5 482Q381 496 381 509Q381 522 378 536Q375 550 368 561.5Q361 573 348.5 580Q336 587 317 587H233ZM381 910Q398 910 408.5 902.5Q419 895 423 884Q427 873 423.5 860Q420 847 410 836L393 817Q379 802 365 794Q351 786 322 786H260Q231 786 220 803.5Q209 821 218 845L225 864Q236 893 249.5 901.5Q263 910 291 910ZM233 273V68Q233 0 166 0H104Q37 0 37 68V682Q37 750 104 750H314Q393 750 446 733Q499 716 531 685Q563 654 576.5 609.5Q590 565 590 510Q590 441 568.5 390.5Q547 340 492 310L599 95Q617 57 603 28.5Q589 0 552 0H476Q440 0 420 14Q400 28 388 64L310 273Z" glyph-name="Racute" horiz-adv-x="627" unicode="&#340;" /><glyph d="M233 430H317Q337 430 349.5 437.5Q362 445 369 456.5Q376 468 378.5 482Q381 496 381 509Q381 522 378 536Q375 550 368 561.5Q361 573 348.5 580Q336 587 317 587H233ZM224 786Q196 786 180.5 794.5Q165 803 148 815L104 847Q94 854 89.5 865Q85 876 87 886Q89 896 96.5 903Q104 910 118 910H189Q218 910 234.5 904Q251 898 271 882L286 870L301 882Q321 898 337.5 904Q354 910 383 910H454Q468 910 475.5 903Q483 896 485 886Q487 876 482.5 865Q478 854 468 847L424 815Q407 803 391.5 794.5Q376 786 348 786ZM233 273V68Q233 0 166 0H104Q37 0 37 68V682Q37 750 104 750H314Q393 750 446 733Q499 716 531 685Q563 654 576.5 609.5Q590 565 590 510Q590 441 568.5 390.5Q547 340 492 310L599 95Q617 57 603 28.5Q589 0 552 0H476Q440 0 420 14Q400 28 388 64L310 273Z" glyph-name="Rcaron" horiz-adv-x="627" unicode="&#344;" /><glyph d="M233 430H317Q337 430 349.5 437.5Q362 445 369 456.5Q376 468 378.5 482Q381 496 381 509Q381 522 378 536Q375 550 368 561.5Q361 573 348.5 580Q336 587 317 587H233ZM339 -46Q381 -46 394 -69.5Q407 -93 391 -126L357 -197Q349 -213 342 -223.5Q335 -234 326.5 -240Q318 -246 308 -248Q298 -250 284 -250H252Q223 -250 208 -235Q193 -220 197 -189L208 -104Q212 -73 230.5 -59.5Q249 -46 277 -46ZM233 273V68Q233 0 166 0H104Q37 0 37 68V682Q37 750 104 750H314Q393 750 446 733Q499 716 531 685Q563 654 576.5 609.5Q590 565 590 510Q590 441 568.5 390.5Q547 340 492 310L599 95Q617 57 603 28.5Q589 0 552 0H476Q440 0 420 14Q400 28 388 64L310 273Z" glyph-name="Rcommaaccent" horiz-adv-x="627" unicode="&#342;" /><glyph d="M256 161Q325 161 352.5 178.5Q380 196 380 227Q380 262 357 276Q334 290 289 295Q220 303 170 317.5Q120 332 88.5 358Q57 384 42 425Q27 466 27 527Q27 582 44.5 626.5Q62 671 98 702Q134 733 189.5 749.5Q245 766 322 766Q383 766 427.5 759Q472 752 497 744Q526 736 537 719Q548 702 548 676V627Q548 597 530 579Q512 561 477 570Q456 575 420.5 582Q385 589 337 589Q222 589 222 528Q222 495 245.5 483Q269 471 316 465Q381 457 429.5 444Q478 431 510.5 406.5Q543 382 559 341Q575 300 575 237Q575 166 553.5 117.5Q532 69 492.5 39.5Q453 10 397 -3Q341 -16 273 -16Q206 -16 154 -6Q102 4 73 15Q44 26 34 43Q24 60 24 86V139Q24 169 45 185.5Q66 202 98 190Q122 181 163 171Q204 161 256 161Z" glyph-name="S" horiz-adv-x="597" unicode="S" /><glyph d="M256 161Q325 161 352.5 178.5Q380 196 380 227Q380 262 357 276Q334 290 289 295Q220 303 170 317.5Q120 332 88.5 358Q57 384 42 425Q27 466 27 527Q27 582 44.5 626.5Q62 671 98 702Q134 733 189.5 749.5Q245 766 322 766Q383 766 427.5 759Q472 752 497 744Q526 736 537 719Q548 702 548 676V627Q548 597 530 579Q512 561 477 570Q456 575 420.5 582Q385 589 337 589Q222 589 222 528Q222 495 245.5 483Q269 471 316 465Q381 457 429.5 444Q478 431 510.5 406.5Q543 382 559 341Q575 300 575 237Q575 166 553.5 117.5Q532 69 492.5 39.5Q453 10 397 -3Q341 -16 273 -16Q206 -16 154 -6Q102 4 73 15Q44 26 34 43Q24 60 24 86V139Q24 169 45 185.5Q66 202 98 190Q122 181 163 171Q204 161 256 161ZM400 910Q417 910 427.5 902.5Q438 895 442 884Q446 873 442.5 860Q439 847 429 836L412 817Q398 802 384 794Q370 786 341 786H279Q250 786 239 803.5Q228 821 237 845L244 864Q255 893 268.5 901.5Q282 910 310 910Z" glyph-name="Sacute" horiz-adv-x="597" unicode="&#346;" /><glyph d="M243 786Q215 786 199.5 794.5Q184 803 167 815L123 847Q113 854 108.5 865Q104 876 106 886Q108 896 115.5 903Q123 910 137 910H208Q237 910 253.5 904Q270 898 290 882L305 870L320 882Q340 898 356.5 904Q373 910 402 910H473Q487 910 494.5 903Q502 896 504 886Q506 876 501.5 865Q497 854 487 847L443 815Q426 803 410.5 794.5Q395 786 367 786ZM256 161Q325 161 352.5 178.5Q380 196 380 227Q380 262 357 276Q334 290 289 295Q220 303 170 317.5Q120 332 88.5 358Q57 384 42 425Q27 466 27 527Q27 582 44.5 626.5Q62 671 98 702Q134 733 189.5 749.5Q245 766 322 766Q383 766 427.5 759Q472 752 497 744Q526 736 537 719Q548 702 548 676V627Q548 597 530 579Q512 561 477 570Q456 575 420.5 582Q385 589 337 589Q222 589 222 528Q222 495 245.5 483Q269 471 316 465Q381 457 429.5 444Q478 431 510.5 406.5Q543 382 559 341Q575 300 575 237Q575 166 553.5 117.5Q532 69 492.5 39.5Q453 10 397 -3Q341 -16 273 -16Q206 -16 154 -6Q102 4 73 15Q44 26 34 43Q24 60 24 86V139Q24 169 45 185.5Q66 202 98 190Q122 181 163 171Q204 161 256 161Z" glyph-name="Scaron" horiz-adv-x="597" unicode="&#352;" /><glyph d="M245 -147Q297 -147 297 -122Q297 -100 262 -92Q240 -87 232 -74.5Q224 -62 226 -39L228 -15Q177 -12 137 -3.5Q97 5 73 15Q44 26 34 43Q24 60 24 86V139Q24 169 45 185.5Q66 202 98 190Q122 181 163 171Q204 161 256 161Q325 161 352.5 178.5Q380 196 380 227Q380 262 357 276Q334 290 289 295Q220 303 170 317.5Q120 332 88.5 358Q57 384 42 425Q27 466 27 527Q27 582 44.5 626.5Q62 671 98 702Q134 733 189.5 749.5Q245 766 322 766Q383 766 427.5 759Q472 752 497 744Q526 736 537 719Q548 702 548 676V627Q548 597 530 579Q512 561 477 570Q456 575 420.5 582Q385 589 337 589Q222 589 222 528Q222 495 245.5 483Q269 471 316 465Q381 457 429.5 444Q478 431 510.5 406.5Q543 382 559 341Q575 300 575 237Q575 171 556.5 124.5Q538 78 503.5 48Q469 18 421 3Q373 -12 313 -15L314 -37Q314 -46 323 -49Q368 -61 392 -85.5Q416 -110 416 -145Q416 -200 375 -225Q334 -250 270 -250Q238 -250 224 -247.5Q210 -245 201 -243Q184 -239 175 -225.5Q166 -212 166 -193V-188Q166 -168 176.5 -155.5Q187 -143 205 -143Q212 -143 224 -145Q236 -147 245 -147Z" glyph-name="Scedilla" horiz-adv-x="597" unicode="&#350;" /><glyph d="M367 910Q395 910 410.5 901.5Q426 893 443 881L487 849Q497 841 501.5 830.5Q506 820 504 810Q502 800 494.5 793Q487 786 473 786H402Q373 786 356.5 792Q340 798 320 814L305 826L290 814Q270 798 253.5 792Q237 786 208 786H137Q123 786 115.5 793Q108 800 106 810Q104 820 108.5 830.5Q113 841 123 849L167 881Q184 893 199.5 901.5Q215 910 243 910ZM256 161Q325 161 352.5 178.5Q380 196 380 227Q380 262 357 276Q334 290 289 295Q220 303 170 317.5Q120 332 88.5 358Q57 384 42 425Q27 466 27 527Q27 582 44.5 626.5Q62 671 98 702Q134 733 189.5 749.5Q245 766 322 766Q383 766 427.5 759Q472 752 497 744Q526 736 537 719Q548 702 548 676V627Q548 597 530 579Q512 561 477 570Q456 575 420.5 582Q385 589 337 589Q222 589 222 528Q222 495 245.5 483Q269 471 316 465Q381 457 429.5 444Q478 431 510.5 406.5Q543 382 559 341Q575 300 575 237Q575 166 553.5 117.5Q532 69 492.5 39.5Q453 10 397 -3Q341 -16 273 -16Q206 -16 154 -6Q102 4 73 15Q44 26 34 43Q24 60 24 86V139Q24 169 45 185.5Q66 202 98 190Q122 181 163 171Q204 161 256 161Z" glyph-name="Scircumflex" horiz-adv-x="597" unicode="&#348;" /><glyph d="M320 -46Q362 -46 375 -69.5Q388 -93 372 -126L338 -197Q330 -213 323 -223.5Q316 -234 307.5 -240Q299 -246 289 -248Q279 -250 265 -250H233Q204 -250 189 -235Q174 -220 178 -189L189 -104Q193 -73 211.5 -59.5Q230 -46 258 -46ZM256 161Q325 161 352.5 178.5Q380 196 380 227Q380 262 357 276Q334 290 289 295Q220 303 170 317.5Q120 332 88.5 358Q57 384 42 425Q27 466 27 527Q27 582 44.5 626.5Q62 671 98 702Q134 733 189.5 749.5Q245 766 322 766Q383 766 427.5 759Q472 752 497 744Q526 736 537 719Q548 702 548 676V627Q548 597 530 579Q512 561 477 570Q456 575 420.5 582Q385 589 337 589Q222 589 222 528Q222 495 245.5 483Q269 471 316 465Q381 457 429.5 444Q478 431 510.5 406.5Q543 382 559 341Q575 300 575 237Q575 166 553.5 117.5Q532 69 492.5 39.5Q453 10 397 -3Q341 -16 273 -16Q206 -16 154 -6Q102 4 73 15Q44 26 34 43Q24 60 24 86V139Q24 169 45 185.5Q66 202 98 190Q122 181 163 171Q204 161 256 161Z" glyph-name="Scommaaccent" horiz-adv-x="597" unicode="&#536;" /><glyph d="M79 577Q10 577 10 645V682Q10 750 79 750H489Q558 750 558 682V645Q558 577 489 577H382V68Q382 0 313 0H255Q186 0 186 68V577Z" glyph-name="T" horiz-adv-x="568" unicode="T" /><glyph d="M382 304V68Q382 0 313 0H255Q186 0 186 68V304H145Q84 304 84 366V385Q84 447 145 447H186V577H79Q10 577 10 645V682Q10 750 79 750H489Q558 750 558 682V645Q558 577 489 577H382V447H423Q484 447 484 385V366Q484 304 423 304Z" glyph-name="Tbar" horiz-adv-x="568" unicode="&#358;" /><glyph d="M222 786Q194 786 178.5 794.5Q163 803 146 815L102 847Q92 854 87.5 865Q83 876 85 886Q87 896 94.5 903Q102 910 116 910H187Q216 910 232.5 904Q249 898 269 882L284 870L299 882Q319 898 335.5 904Q352 910 381 910H452Q466 910 473.5 903Q481 896 483 886Q485 876 480.5 865Q476 854 466 847L422 815Q405 803 389.5 794.5Q374 786 346 786ZM79 577Q10 577 10 645V682Q10 750 79 750H489Q558 750 558 682V645Q558 577 489 577H382V68Q382 0 313 0H255Q186 0 186 68V577Z" glyph-name="Tcaron" horiz-adv-x="568" unicode="&#356;" /><glyph d="M79 577Q10 577 10 645V682Q10 750 79 750H489Q558 750 558 682V645Q558 577 489 577H382V68Q382 0 313 0H255Q186 0 186 68V577ZM309 -46Q351 -46 364 -69.5Q377 -93 361 -126L327 -197Q319 -213 312 -223.5Q305 -234 296.5 -240Q288 -246 278 -248Q268 -250 254 -250H222Q193 -250 178 -235Q163 -220 167 -189L178 -104Q182 -73 200.5 -59.5Q219 -46 247 -46Z" glyph-name="Tcommaaccent" horiz-adv-x="568" unicode="&#354;" /><glyph d="M233 295H305Q327 295 341 303Q355 311 363 323Q371 335 374 349Q377 363 377 374Q377 384 374 398Q371 412 363 424Q355 436 341 444.5Q327 453 305 453H233ZM37 682Q37 750 105 750H165Q233 750 233 682V625H304Q382 625 436 604Q490 583 523 548.5Q556 514 570.5 468.5Q585 423 585 375Q585 326 570.5 280.5Q556 235 523 200.5Q490 166 436 145.5Q382 125 304 125H233V68Q233 0 165 0H106Q37 0 37 68Z" glyph-name="Thorn" horiz-adv-x="600" unicode="&#222;" /><glyph d="M615 243Q615 165 588.5 115Q562 65 520 35.5Q478 6 426.5 -5Q375 -16 324 -16Q274 -16 222 -5Q170 6 128 35.5Q86 65 59.5 115Q33 165 33 243V682Q33 750 102 750H160Q229 750 229 682V258Q229 226 237 206.5Q245 187 258 176Q271 165 288 161Q305 157 324 157Q343 157 360.5 161Q378 165 391 176Q404 187 411.5 206.5Q419 226 419 258V682Q419 750 487 750H547Q615 750 615 682Z" glyph-name="U" horiz-adv-x="648" unicode="U" /><glyph d="M615 243Q615 165 588.5 115Q562 65 520 35.5Q478 6 426.5 -5Q375 -16 324 -16Q274 -16 222 -5Q170 6 128 35.5Q86 65 59.5 115Q33 165 33 243V682Q33 750 102 750H160Q229 750 229 682V258Q229 226 237 206.5Q245 187 258 176Q271 165 288 161Q305 157 324 157Q343 157 360.5 161Q378 165 391 176Q404 187 411.5 206.5Q419 226 419 258V682Q419 750 487 750H547Q615 750 615 682ZM419 910Q436 910 446.5 902.5Q457 895 461 884Q465 873 461.5 860Q458 847 448 836L431 817Q417 802 403 794Q389 786 360 786H298Q269 786 258 803.5Q247 821 256 845L263 864Q274 893 287.5 901.5Q301 910 329 910Z" glyph-name="Uacute" horiz-adv-x="648" unicode="&#218;" /><glyph d="M615 243Q615 165 588.5 115Q562 65 520 35.5Q478 6 426.5 -5Q375 -16 324 -16Q274 -16 222 -5Q170 6 128 35.5Q86 65 59.5 115Q33 165 33 243V682Q33 750 102 750H160Q229 750 229 682V258Q229 226 237 206.5Q245 187 258 176Q271 165 288 161Q305 157 324 157Q343 157 360.5 161Q378 165 391 176Q404 187 411.5 206.5Q419 226 419 258V682Q419 750 487 750H547Q615 750 615 682ZM324 776Q223 776 176 793.5Q129 811 118 854Q112 880 122.5 895Q133 910 156 910H206Q223 910 230 905Q237 900 243 890Q249 880 266 875Q283 870 324 870Q365 870 382 875Q399 880 405 890Q411 900 418 905Q425 910 442 910H492Q515 910 525.5 895Q536 880 530 854Q519 811 472 793.5Q425 776 324 776Z" glyph-name="Ubreve" horiz-adv-x="648" unicode="&#364;" /><glyph d="M386 910Q414 910 429.5 901.5Q445 893 462 881L506 849Q516 841 520.5 830.5Q525 820 523 810Q521 800 513.5 793Q506 786 492 786H421Q392 786 375.5 792Q359 798 339 814L324 826L309 814Q289 798 272.5 792Q256 786 227 786H156Q142 786 134.5 793Q127 800 125 810Q123 820 127.5 830.5Q132 841 142 849L186 881Q203 893 218.5 901.5Q234 910 262 910ZM615 243Q615 165 588.5 115Q562 65 520 35.5Q478 6 426.5 -5Q375 -16 324 -16Q274 -16 222 -5Q170 6 128 35.5Q86 65 59.5 115Q33 165 33 243V682Q33 750 102 750H160Q229 750 229 682V258Q229 226 237 206.5Q245 187 258 176Q271 165 288 161Q305 157 324 157Q343 157 360.5 161Q378 165 391 176Q404 187 411.5 206.5Q419 226 419 258V682Q419 750 487 750H547Q615 750 615 682Z" glyph-name="Ucircumflex" horiz-adv-x="648" unicode="&#219;" /><glyph d="M615 243Q615 165 588.5 115Q562 65 520 35.5Q478 6 426.5 -5Q375 -16 324 -16Q274 -16 222 -5Q170 6 128 35.5Q86 65 59.5 115Q33 165 33 243V682Q33 750 102 750H160Q229 750 229 682V258Q229 226 237 206.5Q245 187 258 176Q271 165 288 161Q305 157 324 157Q343 157 360.5 161Q378 165 391 176Q404 187 411.5 206.5Q419 226 419 258V682Q419 750 487 750H547Q615 750 615 682ZM339 848Q339 871 347.5 885Q356 899 371 907Q386 915 406 917.5Q426 920 449 920Q472 920 492 917.5Q512 915 527 907Q542 899 550.5 885Q559 871 559 848Q559 825 550.5 811Q542 797 527 789Q512 781 492 778.5Q472 776 449 776Q426 776 406 778.5Q386 781 371 789Q356 797 347.5 811Q339 825 339 848ZM89 848Q89 871 97.5 885Q106 899 121 907Q136 915 156 917.5Q176 920 199 920Q222 920 242 917.5Q262 915 277 907Q292 899 300.5 885Q309 871 309 848Q309 825 300.5 811Q292 797 277 789Q262 781 242 778.5Q222 776 199 776Q176 776 156 778.5Q136 781 121 789Q106 797 97.5 811Q89 825 89 848Z" glyph-name="Udieresis" horiz-adv-x="648" unicode="&#220;" /><glyph d="M615 243Q615 165 588.5 115Q562 65 520 35.5Q478 6 426.5 -5Q375 -16 324 -16Q274 -16 222 -5Q170 6 128 35.5Q86 65 59.5 115Q33 165 33 243V682Q33 750 102 750H160Q229 750 229 682V258Q229 226 237 206.5Q245 187 258 176Q271 165 288 161Q305 157 324 157Q343 157 360.5 161Q378 165 391 176Q404 187 411.5 206.5Q419 226 419 258V682Q419 750 487 750H547Q615 750 615 682ZM319 910Q347 910 360.5 901.5Q374 893 385 864L392 845Q401 821 390 803.5Q379 786 350 786H288Q259 786 245 794Q231 802 217 817L200 836Q190 847 186.5 860Q183 873 187 884Q191 895 201.5 902.5Q212 910 229 910Z" glyph-name="Ugrave" horiz-adv-x="648" unicode="&#217;" /><glyph d="M314 910Q331 910 341.5 902.5Q352 895 356 884Q360 873 356.5 860Q353 847 343 836L326 817Q312 802 298 794Q284 786 255 786H193Q164 786 153 803.5Q142 821 151 845L158 864Q169 893 182.5 901.5Q196 910 224 910ZM524 910Q541 910 551.5 902.5Q562 895 566 884Q570 873 566.5 860Q563 847 553 836L536 817Q522 802 508 794Q494 786 465 786H403Q374 786 363 803.5Q352 821 361 845L368 864Q379 893 392.5 901.5Q406 910 434 910ZM615 243Q615 165 588.5 115Q562 65 520 35.5Q478 6 426.5 -5Q375 -16 324 -16Q274 -16 222 -5Q170 6 128 35.5Q86 65 59.5 115Q33 165 33 243V682Q33 750 102 750H160Q229 750 229 682V258Q229 226 237 206.5Q245 187 258 176Q271 165 288 161Q305 157 324 157Q343 157 360.5 161Q378 165 391 176Q404 187 411.5 206.5Q419 226 419 258V682Q419 750 487 750H547Q615 750 615 682Z" glyph-name="Uhungarumlaut" horiz-adv-x="648" unicode="&#368;" /><glyph d="M227 786Q196 786 182 800Q168 814 168 846V850Q168 882 182 896Q196 910 227 910H421Q452 910 466 896Q480 882 480 850V846Q480 814 466 800Q452 786 421 786ZM615 243Q615 165 588.5 115Q562 65 520 35.5Q478 6 426.5 -5Q375 -16 324 -16Q274 -16 222 -5Q170 6 128 35.5Q86 65 59.5 115Q33 165 33 243V682Q33 750 102 750H160Q229 750 229 682V258Q229 226 237 206.5Q245 187 258 176Q271 165 288 161Q305 157 324 157Q343 157 360.5 161Q378 165 391 176Q404 187 411.5 206.5Q419 226 419 258V682Q419 750 487 750H547Q615 750 615 682Z" glyph-name="Umacron" horiz-adv-x="648" unicode="&#362;" /><glyph d="M394 -145Q403 -145 410 -144Q417 -143 422 -143Q440 -143 451 -155Q462 -167 462 -187V-192Q462 -234 427 -242Q418 -244 401 -247Q384 -250 352 -250Q283 -250 238.5 -218.5Q194 -187 194 -127Q194 -90 210.5 -61.5Q227 -33 254 -10Q212 -4 172 12Q132 28 101 57.5Q70 87 51.5 132.5Q33 178 33 243V682Q33 750 102 750H160Q229 750 229 682V258Q229 226 237 206.5Q245 187 258 176Q271 165 288 161Q305 157 324 157Q343 157 360.5 161Q378 165 391 176Q404 187 411.5 206.5Q419 226 419 258V682Q419 750 487 750H547Q615 750 615 682V243Q615 184 599.5 142Q584 100 558 71Q532 42 497.5 24Q463 6 426 -5Q381 -19 357.5 -46Q334 -73 334 -99Q334 -120 348.5 -132.5Q363 -145 394 -145Z" glyph-name="Uogonek" horiz-adv-x="648" unicode="&#370;" /><glyph d="M324 777Q267 777 237.5 790.5Q208 804 208 847Q208 891 237.5 905Q267 919 324 919Q381 919 410.5 905Q440 891 440 848Q440 804 410.5 790.5Q381 777 324 777ZM324 831Q352 831 352 847Q352 864 324 864Q296 864 296 848Q296 831 324 831ZM615 243Q615 165 588.5 115Q562 65 520 35.5Q478 6 426.5 -5Q375 -16 324 -16Q274 -16 222 -5Q170 6 128 35.5Q86 65 59.5 115Q33 165 33 243V682Q33 750 102 750H160Q229 750 229 682V258Q229 226 237 206.5Q245 187 258 176Q271 165 288 161Q305 157 324 157Q343 157 360.5 161Q378 165 391 176Q404 187 411.5 206.5Q419 226 419 258V682Q419 750 487 750H547Q615 750 615 682Z" glyph-name="Uring" horiz-adv-x="648" unicode="&#366;" /><glyph d="M615 243Q615 165 588.5 115Q562 65 520 35.5Q478 6 426.5 -5Q375 -16 324 -16Q274 -16 222 -5Q170 6 128 35.5Q86 65 59.5 115Q33 165 33 243V682Q33 750 102 750H160Q229 750 229 682V258Q229 226 237 206.5Q245 187 258 176Q271 165 288 161Q305 157 324 157Q343 157 360.5 161Q378 165 391 176Q404 187 411.5 206.5Q419 226 419 258V682Q419 750 487 750H547Q615 750 615 682ZM419 777Q388 777 365.5 784Q343 791 324.5 799Q306 807 290 814Q274 821 256 821Q241 821 232 818Q223 815 217 807Q209 797 201.5 791.5Q194 786 174 786H141Q118 786 108 800Q98 814 103 840Q111 882 144.5 900.5Q178 919 229 919Q260 919 282.5 912Q305 905 323.5 897Q342 889 358 882Q374 875 392 875Q407 875 416 878Q425 881 431 889Q439 899 446.5 904.5Q454 910 474 910H507Q530 910 540 896Q550 882 545 856Q537 814 503.5 795.5Q470 777 419 777Z" glyph-name="Utilde" horiz-adv-x="648" unicode="&#360;" /><glyph d="M272 -4Q237 -4 217 11Q197 26 187 61L18 662Q11 685 13.5 702Q16 719 24.5 729.5Q33 740 46.5 745Q60 750 77 750H142Q179 750 194.5 736Q210 722 218 686L320 228L424 686Q431 722 447 736Q463 750 500 750H565Q581 750 595 745Q609 740 617.5 729.5Q626 719 628.5 702Q631 685 624 662L454 61Q444 26 424 11Q404 -4 369 -4Z" glyph-name="V" horiz-adv-x="642" unicode="V" /><glyph d="M483 750Q518 750 537 734.5Q556 719 562 681L631 274L675 681Q679 717 695.5 733.5Q712 750 749 750H810Q840 750 859.5 732Q879 714 872 670L772 65Q766 29 746.5 12.5Q727 -4 692 -4H598Q562 -4 542.5 12.5Q523 29 517 64L443 494L368 64Q362 29 342.5 12.5Q323 -4 287 -4H193Q158 -4 138.5 12.5Q119 29 113 65L13 670Q9 692 12.5 707.5Q16 723 25 732.5Q34 742 47.5 746Q61 750 76 750H136Q173 750 189.5 733.5Q206 717 210 681L254 274L323 681Q329 719 348 734.5Q367 750 402 750Z" glyph-name="W" horiz-adv-x="888" unicode="W" /><glyph d="M506 910Q534 910 549.5 901.5Q565 893 582 881L626 849Q636 841 640.5 830.5Q645 820 643 810Q641 800 633.5 793Q626 786 612 786H541Q512 786 495.5 792Q479 798 459 814L444 826L429 814Q409 798 392.5 792Q376 786 347 786H276Q262 786 254.5 793Q247 800 245 810Q243 820 247.5 830.5Q252 841 262 849L306 881Q323 893 338.5 901.5Q354 910 382 910ZM483 750Q518 750 537 734.5Q556 719 562 681L631 274L675 681Q679 717 695.5 733.5Q712 750 749 750H810Q840 750 859.5 732Q879 714 872 670L772 65Q766 29 746.5 12.5Q727 -4 692 -4H598Q562 -4 542.5 12.5Q523 29 517 64L443 494L368 64Q362 29 342.5 12.5Q323 -4 287 -4H193Q158 -4 138.5 12.5Q119 29 113 65L13 670Q9 692 12.5 707.5Q16 723 25 732.5Q34 742 47.5 746Q61 750 76 750H136Q173 750 189.5 733.5Q206 717 210 681L254 274L323 681Q329 719 348 734.5Q367 750 402 750Z" glyph-name="Wcircumflex" horiz-adv-x="888" unicode="&#372;" /><glyph d="M235 64Q221 34 205 17Q189 0 155 0H66Q48 0 35.5 8Q23 16 16.5 29Q10 42 11.5 59.5Q13 77 24 96L193 390L33 657Q21 677 20 694Q19 711 26 723.5Q33 736 46 743Q59 750 75 750H161Q193 750 210 736.5Q227 723 240 694L334 500L428 694Q441 723 458 736.5Q475 750 507 750H593Q609 750 622 743Q635 736 642 723.5Q649 711 648 694Q647 677 635 657L474 390L644 96Q655 77 656.5 59.5Q658 42 651.5 29Q645 16 632.5 8Q620 0 602 0H514Q479 0 463 17Q447 34 433 64L334 255Z" glyph-name="X" horiz-adv-x="676" unicode="X" /><glyph d="M431 68Q431 0 364 0H303Q235 0 235 68V285L23 653Q11 674 9 692Q7 710 13.5 722.5Q20 735 33.5 742.5Q47 750 64 750H140Q174 750 191.5 734.5Q209 719 223 690L333 467L444 690Q458 719 475.5 734.5Q493 750 527 750H603Q620 750 633 742.5Q646 735 652.5 722.5Q659 710 657.5 692Q656 674 644 653L431 285Z" glyph-name="Y" horiz-adv-x="670" unicode="Y" /><glyph d="M431 68Q431 0 364 0H303Q235 0 235 68V285L23 653Q11 674 9 692Q7 710 13.5 722.5Q20 735 33.5 742.5Q47 750 64 750H140Q174 750 191.5 734.5Q209 719 223 690L333 467L444 690Q458 719 475.5 734.5Q493 750 527 750H603Q620 750 633 742.5Q646 735 652.5 722.5Q659 710 657.5 692Q656 674 644 653L431 285ZM429 910Q446 910 456.5 902.5Q467 895 471 884Q475 873 471.5 860Q468 847 458 836L441 817Q427 802 413 794Q399 786 370 786H308Q279 786 268 803.5Q257 821 266 845L273 864Q284 893 297.5 901.5Q311 910 339 910Z" glyph-name="Yacute" horiz-adv-x="670" unicode="&#221;" /><glyph d="M396 910Q424 910 439.5 901.5Q455 893 472 881L516 849Q526 841 530.5 830.5Q535 820 533 810Q531 800 523.5 793Q516 786 502 786H431Q402 786 385.5 792Q369 798 349 814L334 826L319 814Q299 798 282.5 792Q266 786 237 786H166Q152 786 144.5 793Q137 800 135 810Q133 820 137.5 830.5Q142 841 152 849L196 881Q213 893 228.5 901.5Q244 910 272 910ZM431 68Q431 0 364 0H303Q235 0 235 68V285L23 653Q11 674 9 692Q7 710 13.5 722.5Q20 735 33.5 742.5Q47 750 64 750H140Q174 750 191.5 734.5Q209 719 223 690L333 467L444 690Q458 719 475.5 734.5Q493 750 527 750H603Q620 750 633 742.5Q646 735 652.5 722.5Q659 710 657.5 692Q656 674 644 653L431 285Z" glyph-name="Ycircumflex" horiz-adv-x="670" unicode="&#374;" /><glyph d="M431 68Q431 0 364 0H303Q235 0 235 68V285L23 653Q11 674 9 692Q7 710 13.5 722.5Q20 735 33.5 742.5Q47 750 64 750H140Q174 750 191.5 734.5Q209 719 223 690L333 467L444 690Q458 719 475.5 734.5Q493 750 527 750H603Q620 750 633 742.5Q646 735 652.5 722.5Q659 710 657.5 692Q656 674 644 653L431 285ZM349 848Q349 871 357.5 885Q366 899 381 907Q396 915 416 917.5Q436 920 459 920Q482 920 502 917.5Q522 915 537 907Q552 899 560.5 885Q569 871 569 848Q569 825 560.5 811Q552 797 537 789Q522 781 502 778.5Q482 776 459 776Q436 776 416 778.5Q396 781 381 789Q366 797 357.5 811Q349 825 349 848ZM99 848Q99 871 107.5 885Q116 899 131 907Q146 915 166 917.5Q186 920 209 920Q232 920 252 917.5Q272 915 287 907Q302 899 310.5 885Q319 871 319 848Q319 825 310.5 811Q302 797 287 789Q272 781 252 778.5Q232 776 209 776Q186 776 166 778.5Q146 781 131 789Q116 797 107.5 811Q99 825 99 848Z" glyph-name="Ydieresis" horiz-adv-x="670" unicode="&#376;" /><glyph d="M110 567Q42 567 42 635V682Q42 750 110 750H518Q586 750 586 682V660Q586 635 562 600L277 181L530 183Q599 183 599 115V68Q599 0 530 0H86Q17 0 17 68V90Q17 115 41 150L326 569Z" glyph-name="Z" horiz-adv-x="616" unicode="Z" /><glyph d="M110 567Q42 567 42 635V682Q42 750 110 750H518Q586 750 586 682V660Q586 635 562 600L277 181L530 183Q599 183 599 115V68Q599 0 530 0H86Q17 0 17 68V90Q17 115 41 150L326 569ZM409 910Q426 910 436.5 902.5Q447 895 451 884Q455 873 451.5 860Q448 847 438 836L421 817Q407 802 393 794Q379 786 350 786H288Q259 786 248 803.5Q237 821 246 845L253 864Q264 893 277.5 901.5Q291 910 319 910Z" glyph-name="Zacute" horiz-adv-x="616" unicode="&#377;" /><glyph d="M252 786Q224 786 208.5 794.5Q193 803 176 815L132 847Q122 854 117.5 865Q113 876 115 886Q117 896 124.5 903Q132 910 146 910H217Q246 910 262.5 904Q279 898 299 882L314 870L329 882Q349 898 365.5 904Q382 910 411 910H482Q496 910 503.5 903Q511 896 513 886Q515 876 510.5 865Q506 854 496 847L452 815Q435 803 419.5 794.5Q404 786 376 786ZM110 567Q42 567 42 635V682Q42 750 110 750H518Q586 750 586 682V660Q586 635 562 600L277 181L530 183Q599 183 599 115V68Q599 0 530 0H86Q17 0 17 68V90Q17 115 41 150L326 569Z" glyph-name="Zcaron" horiz-adv-x="616" unicode="&#381;" /><glyph d="M110 567Q42 567 42 635V682Q42 750 110 750H518Q586 750 586 682V660Q586 635 562 600L277 181L530 183Q599 183 599 115V68Q599 0 530 0H86Q17 0 17 68V90Q17 115 41 150L326 569ZM204 848Q204 871 212.5 885Q221 899 236 907Q251 915 271 917.5Q291 920 314 920Q337 920 357 917.5Q377 915 392 907Q407 899 415.5 885Q424 871 424 848Q424 825 415.5 811Q407 797 392 789Q377 781 357 778.5Q337 776 314 776Q291 776 271 778.5Q251 781 236 789Q221 797 212.5 811Q204 825 204 848Z" glyph-name="Zdotaccent" horiz-adv-x="616" unicode="&#379;" /><glyph d="M243 216Q215 213 201 200.5Q187 188 187 157Q187 128 201.5 117.5Q216 107 236 107Q260 107 277 114Q294 121 302 129V223ZM233 374Q218 374 201 371.5Q184 369 167.5 366Q151 363 137 359.5Q123 356 113 353Q80 344 64 359Q48 374 48 395V437Q48 481 89 492Q115 500 160 508Q205 516 262 516Q331 516 374 503Q417 490 441 465.5Q465 441 474 406Q483 371 483 328V53Q483 0 430 0H378Q361 0 352 7Q343 14 335 28L333 32Q310 12 274 -2Q238 -16 186 -16Q140 -16 108 -3.5Q76 9 56 30.5Q36 52 27 81.5Q18 111 18 145Q18 193 32.5 223Q47 253 72.5 271Q98 289 133.5 297.5Q169 306 212 310L301 318V338Q301 355 288.5 364.5Q276 374 233 374Z" glyph-name="a" horiz-adv-x="511" unicode="a" /><glyph d="M327 352Q325 354 309.5 360.5Q294 367 274 367Q235 367 222 340Q209 313 209 250Q209 186 222 159Q235 132 274 132Q294 132 309.5 138.5Q325 145 327 147ZM523 53Q523 0 470 0H434Q408 0 396 10.5Q384 21 376 39L375 41Q340 12 302.5 -2Q265 -16 214 -16Q116 -16 66.5 45.5Q17 107 17 250Q17 394 66.5 455Q116 516 214 516Q259 516 299.5 502Q340 488 375 459L376 461Q384 479 396 489.5Q408 500 434 500H470Q523 500 523 447Z" glyph-name="a.school" horiz-adv-x="555" unicode="&#57681;" /><glyph d="M249 194H336L293 370ZM364 80H221L217 62Q209 29 192.5 14.5Q176 0 141 0H67Q34 0 18 23Q2 46 16 90L133 438Q145 473 163.5 488.5Q182 504 218 504H368Q404 504 422.5 488.5Q441 473 453 438L570 90Q584 46 568 23Q552 0 519 0H445Q410 0 393.5 14.5Q377 29 369 62Z" glyph-name="a.smcp" horiz-adv-x="586" unicode="&#57857;" /><glyph d="M136 446Q113 443 113 424Q113 413 119 409Q125 405 133 405Q139 405 147.5 407Q156 409 160 412V448ZM179 357Q166 346 147.5 338.5Q129 331 100 331Q11 331 11 412Q11 457 38 474.5Q65 492 116 497L159 501V502Q159 508 153.5 510.5Q148 513 129 513Q113 513 93 509.5Q73 506 58 501Q40 496 32.5 503.5Q25 511 25 521V559Q25 581 47 587Q64 592 92 595.5Q120 599 152 599Q187 599 209.5 592.5Q232 586 245.5 574Q259 562 264.5 544.5Q270 527 270 505V370Q270 340 240 340H204Q195 340 189.5 344.5Q184 349 180 355Z" glyph-name="a.superior" horiz-adv-x="296" unicode="&#58209;" /><glyph d="M285 370Q285 340 255 340H224Q209 340 202 345.5Q195 351 191 361Q173 345 152 338Q131 331 111 331Q59 331 32.5 360.5Q6 390 6 465Q6 540 32.5 569.5Q59 599 111 599Q131 599 152 592Q173 585 191 569Q195 579 202 584.5Q209 590 224 590H255Q285 590 285 560ZM124 465Q124 433 129.5 423.5Q135 414 146 414Q151 414 156.5 415.5Q162 417 165 419V511Q157 515 146 515Q135 515 129.5 505.5Q124 496 124 465Z" glyph-name="a.superiorschool" horiz-adv-x="313" /><glyph d="M243 216Q215 213 201 200.5Q187 188 187 157Q187 128 201.5 117.5Q216 107 236 107Q260 107 277 114Q294 121 302 129V223ZM233 374Q218 374 201 371.5Q184 369 167.5 366Q151 363 137 359.5Q123 356 113 353Q80 344 64 359Q48 374 48 395V437Q48 481 89 492Q115 500 160 508Q205 516 262 516Q331 516 374 503Q417 490 441 465.5Q465 441 474 406Q483 371 483 328V53Q483 0 430 0H378Q361 0 352 7Q343 14 335 28L333 32Q310 12 274 -2Q238 -16 186 -16Q140 -16 108 -3.5Q76 9 56 30.5Q36 52 27 81.5Q18 111 18 145Q18 193 32.5 223Q47 253 72.5 271Q98 289 133.5 297.5Q169 306 212 310L301 318V338Q301 355 288.5 364.5Q276 374 233 374ZM371 750Q392 750 404 742.5Q416 735 420.5 723.5Q425 712 421.5 698Q418 684 408 670L349 593Q329 567 314 556.5Q299 546 271 546H255Q226 546 212.5 562.5Q199 579 206 607L227 692Q241 750 296 750Z" glyph-name="aacute" horiz-adv-x="511" unicode="&#225;" /><glyph d="M327 352Q325 354 309.5 360.5Q294 367 274 367Q235 367 222 340Q209 313 209 250Q209 186 222 159Q235 132 274 132Q294 132 309.5 138.5Q325 145 327 147ZM385 750Q406 750 418 742.5Q430 735 434.5 723.5Q439 712 435.5 698Q432 684 422 670L363 593Q343 567 328 556.5Q313 546 285 546H269Q240 546 226.5 562.5Q213 579 220 607L241 692Q255 750 310 750ZM523 53Q523 0 470 0H434Q408 0 396 10.5Q384 21 376 39L375 41Q340 12 302.5 -2Q265 -16 214 -16Q116 -16 66.5 45.5Q17 107 17 250Q17 394 66.5 455Q116 516 214 516Q259 516 299.5 502Q340 488 375 459L376 461Q384 479 396 489.5Q408 500 434 500H470Q523 500 523 447Z" glyph-name="aacute.school" horiz-adv-x="555" unicode="&#57683;" /><glyph d="M249 194H336L293 370ZM408 750Q429 750 441 742.5Q453 735 457.5 723.5Q462 712 458.5 698Q455 684 445 670L386 593Q366 567 351 556.5Q336 546 308 546H292Q263 546 249.5 562.5Q236 579 243 607L264 692Q278 750 333 750ZM364 80H221L217 62Q209 29 192.5 14.5Q176 0 141 0H67Q34 0 18 23Q2 46 16 90L133 438Q145 473 163.5 488.5Q182 504 218 504H368Q404 504 422.5 488.5Q441 473 453 438L570 90Q584 46 568 23Q552 0 519 0H445Q410 0 393.5 14.5Q377 29 369 62Z" glyph-name="aacute.smcp" horiz-adv-x="586" unicode="&#57889;" /><glyph d="M243 216Q215 213 201 200.5Q187 188 187 157Q187 128 201.5 117.5Q216 107 236 107Q260 107 277 114Q294 121 302 129V223ZM233 374Q218 374 201 371.5Q184 369 167.5 366Q151 363 137 359.5Q123 356 113 353Q80 344 64 359Q48 374 48 395V437Q48 481 89 492Q115 500 160 508Q205 516 262 516Q331 516 374 503Q417 490 441 465.5Q465 441 474 406Q483 371 483 328V53Q483 0 430 0H378Q361 0 352 7Q343 14 335 28L333 32Q310 12 274 -2Q238 -16 186 -16Q140 -16 108 -3.5Q76 9 56 30.5Q36 52 27 81.5Q18 111 18 145Q18 193 32.5 223Q47 253 72.5 271Q98 289 133.5 297.5Q169 306 212 310L301 318V338Q301 355 288.5 364.5Q276 374 233 374ZM256 546Q64 546 46 694Q43 720 55 735Q67 750 90 750H127Q148 750 158.5 741Q169 732 174 715Q181 690 199.5 680Q218 670 256 670Q294 670 312.5 680Q331 690 338 715Q343 732 353.5 741Q364 750 385 750H422Q445 750 457 735Q469 720 466 694Q448 546 256 546Z" glyph-name="abreve" horiz-adv-x="511" unicode="&#259;" /><glyph d="M327 352Q325 354 309.5 360.5Q294 367 274 367Q235 367 222 340Q209 313 209 250Q209 186 222 159Q235 132 274 132Q294 132 309.5 138.5Q325 145 327 147ZM270 546Q78 546 60 694Q57 720 69 735Q81 750 104 750H141Q162 750 172.5 741Q183 732 188 715Q195 690 213.5 680Q232 670 270 670Q308 670 326.5 680Q345 690 352 715Q357 732 367.5 741Q378 750 399 750H436Q459 750 471 735Q483 720 480 694Q462 546 270 546ZM523 53Q523 0 470 0H434Q408 0 396 10.5Q384 21 376 39L375 41Q340 12 302.5 -2Q265 -16 214 -16Q116 -16 66.5 45.5Q17 107 17 250Q17 394 66.5 455Q116 516 214 516Q259 516 299.5 502Q340 488 375 459L376 461Q384 479 396 489.5Q408 500 434 500H470Q523 500 523 447Z" glyph-name="abreve.school" horiz-adv-x="555" unicode="&#57690;" /><glyph d="M249 194H336L293 370ZM293 546Q101 546 83 694Q80 720 92 735Q104 750 127 750H164Q185 750 195.5 741Q206 732 211 715Q218 690 236.5 680Q255 670 293 670Q331 670 349.5 680Q368 690 375 715Q380 732 390.5 741Q401 750 422 750H459Q482 750 494 735Q506 720 503 694Q485 546 293 546ZM364 80H221L217 62Q209 29 192.5 14.5Q176 0 141 0H67Q34 0 18 23Q2 46 16 90L133 438Q145 473 163.5 488.5Q182 504 218 504H368Q404 504 422.5 488.5Q441 473 453 438L570 90Q584 46 568 23Q552 0 519 0H445Q410 0 393.5 14.5Q377 29 369 62Z" glyph-name="abreve.smcp" horiz-adv-x="586" unicode="&#57897;" /><glyph d="M243 216Q215 213 201 200.5Q187 188 187 157Q187 128 201.5 117.5Q216 107 236 107Q260 107 277 114Q294 121 302 129V223ZM290 750Q315 750 328 742Q341 734 354 719L445 620Q457 606 459.5 592.5Q462 579 457.5 568.5Q453 558 443.5 552Q434 546 422 546H364Q344 546 329.5 554.5Q315 563 298 581L256 626L214 581Q197 563 182.5 554.5Q168 546 148 546H90Q78 546 68.5 552Q59 558 54.5 568.5Q50 579 52.5 592.5Q55 606 67 620L158 719Q171 734 184 742Q197 750 222 750ZM233 374Q218 374 201 371.5Q184 369 167.5 366Q151 363 137 359.5Q123 356 113 353Q80 344 64 359Q48 374 48 395V437Q48 481 89 492Q115 500 160 508Q205 516 262 516Q331 516 374 503Q417 490 441 465.5Q465 441 474 406Q483 371 483 328V53Q483 0 430 0H378Q361 0 352 7Q343 14 335 28L333 32Q310 12 274 -2Q238 -16 186 -16Q140 -16 108 -3.5Q76 9 56 30.5Q36 52 27 81.5Q18 111 18 145Q18 193 32.5 223Q47 253 72.5 271Q98 289 133.5 297.5Q169 306 212 310L301 318V338Q301 355 288.5 364.5Q276 374 233 374Z" glyph-name="acircumflex" horiz-adv-x="511" unicode="&#226;" /><glyph d="M327 352Q325 354 309.5 360.5Q294 367 274 367Q235 367 222 340Q209 313 209 250Q209 186 222 159Q235 132 274 132Q294 132 309.5 138.5Q325 145 327 147ZM304 750Q329 750 342 742Q355 734 368 719L459 620Q471 606 473.5 592.5Q476 579 471.5 568.5Q467 558 457.5 552Q448 546 436 546H378Q358 546 343.5 554.5Q329 563 312 581L270 626L228 581Q211 563 196.5 554.5Q182 546 162 546H104Q92 546 82.5 552Q73 558 68.5 568.5Q64 579 66.5 592.5Q69 606 81 620L172 719Q185 734 198 742Q211 750 236 750ZM523 53Q523 0 470 0H434Q408 0 396 10.5Q384 21 376 39L375 41Q340 12 302.5 -2Q265 -16 214 -16Q116 -16 66.5 45.5Q17 107 17 250Q17 394 66.5 455Q116 516 214 516Q259 516 299.5 502Q340 488 375 459L376 461Q384 479 396 489.5Q408 500 434 500H470Q523 500 523 447Z" glyph-name="acircumflex.school" horiz-adv-x="555" unicode="&#57684;" /><glyph d="M249 194H336L293 370ZM327 750Q352 750 365 742Q378 734 391 719L482 620Q494 606 496.5 592.5Q499 579 494.5 568.5Q490 558 480.5 552Q471 546 459 546H401Q381 546 366.5 554.5Q352 563 335 581L293 626L251 581Q234 563 219.5 554.5Q205 546 185 546H127Q115 546 105.5 552Q96 558 91.5 568.5Q87 579 89.5 592.5Q92 606 104 620L195 719Q208 734 221 742Q234 750 259 750ZM364 80H221L217 62Q209 29 192.5 14.5Q176 0 141 0H67Q34 0 18 23Q2 46 16 90L133 438Q145 473 163.5 488.5Q182 504 218 504H368Q404 504 422.5 488.5Q441 473 453 438L570 90Q584 46 568 23Q552 0 519 0H445Q410 0 393.5 14.5Q377 29 369 62Z" glyph-name="acircumflex.smcp" horiz-adv-x="586" unicode="&#57891;" /><glyph d="M380 750Q401 750 413 742.5Q425 735 429.5 723.5Q434 712 430.5 698Q427 684 417 670L358 593Q338 567 323 556.5Q308 546 280 546H264Q235 546 221.5 562.5Q208 579 215 607L236 692Q250 750 305 750Z" glyph-name="acute" horiz-adv-x="530" unicode="&#180;" /><glyph d="M360 910Q377 910 387.5 902.5Q398 895 402 884Q406 873 402.5 860Q399 847 389 836L372 817Q358 802 344 794Q330 786 301 786H239Q210 786 199 803.5Q188 821 197 845L204 864Q215 893 228.5 901.5Q242 910 270 910Z" glyph-name="acute.cap" horiz-adv-x="530" unicode="&#58402;" /><glyph d="M243 216Q215 213 201 200.5Q187 188 187 157Q187 128 201.5 117.5Q216 107 236 107Q260 107 277 114Q294 121 302 129V223ZM233 374Q218 374 201 371.5Q184 369 167.5 366Q151 363 137 359.5Q123 356 113 353Q80 344 64 359Q48 374 48 395V437Q48 481 89 492Q115 500 160 508Q205 516 262 516Q331 516 374 503Q417 490 441 465.5Q465 441 474 406Q483 371 483 328V53Q483 0 430 0H378Q361 0 352 7Q343 14 335 28L333 32Q310 12 274 -2Q238 -16 186 -16Q140 -16 108 -3.5Q76 9 56 30.5Q36 52 27 81.5Q18 111 18 145Q18 193 32.5 223Q47 253 72.5 271Q98 289 133.5 297.5Q169 306 212 310L301 318V338Q301 355 288.5 364.5Q276 374 233 374ZM271 648Q271 671 279.5 691Q288 711 303 726Q318 741 338 749.5Q358 758 381 758Q404 758 424 749.5Q444 741 459 726Q474 711 482.5 691Q491 671 491 648Q491 625 482.5 605Q474 585 459 570Q444 555 424 546.5Q404 538 381 538Q358 538 338 546.5Q318 555 303 570Q288 585 279.5 605Q271 625 271 648ZM21 648Q21 671 29.5 691Q38 711 53 726Q68 741 88 749.5Q108 758 131 758Q154 758 174 749.5Q194 741 209 726Q224 711 232.5 691Q241 671 241 648Q241 625 232.5 605Q224 585 209 570Q194 555 174 546.5Q154 538 131 538Q108 538 88 546.5Q68 555 53 570Q38 585 29.5 605Q21 625 21 648Z" glyph-name="adieresis" horiz-adv-x="511" unicode="&#228;" /><glyph d="M327 352Q325 354 309.5 360.5Q294 367 274 367Q235 367 222 340Q209 313 209 250Q209 186 222 159Q235 132 274 132Q294 132 309.5 138.5Q325 145 327 147ZM35 648Q35 671 43.5 691Q52 711 67 726Q82 741 102 749.5Q122 758 145 758Q168 758 188 749.5Q208 741 223 726Q238 711 246.5 691Q255 671 255 648Q255 625 246.5 605Q238 585 223 570Q208 555 188 546.5Q168 538 145 538Q122 538 102 546.5Q82 555 67 570Q52 585 43.5 605Q35 625 35 648ZM285 648Q285 671 293.5 691Q302 711 317 726Q332 741 352 749.5Q372 758 395 758Q418 758 438 749.5Q458 741 473 726Q488 711 496.5 691Q505 671 505 648Q505 625 496.5 605Q488 585 473 570Q458 555 438 546.5Q418 538 395 538Q372 538 352 546.5Q332 555 317 570Q302 585 293.5 605Q285 625 285 648ZM523 53Q523 0 470 0H434Q408 0 396 10.5Q384 21 376 39L375 41Q340 12 302.5 -2Q265 -16 214 -16Q116 -16 66.5 45.5Q17 107 17 250Q17 394 66.5 455Q116 516 214 516Q259 516 299.5 502Q340 488 375 459L376 461Q384 479 396 489.5Q408 500 434 500H470Q523 500 523 447Z" glyph-name="adieresis.school" horiz-adv-x="555" unicode="&#57685;" /><glyph d="M249 194H336L293 370ZM308 648Q308 671 316.5 691Q325 711 340 726Q355 741 375 749.5Q395 758 418 758Q441 758 461 749.5Q481 741 496 726Q511 711 519.5 691Q528 671 528 648Q528 625 519.5 605Q511 585 496 570Q481 555 461 546.5Q441 538 418 538Q395 538 375 546.5Q355 555 340 570Q325 585 316.5 605Q308 625 308 648ZM58 648Q58 671 66.5 691Q75 711 90 726Q105 741 125 749.5Q145 758 168 758Q191 758 211 749.5Q231 741 246 726Q261 711 269.5 691Q278 671 278 648Q278 625 269.5 605Q261 585 246 570Q231 555 211 546.5Q191 538 168 538Q145 538 125 546.5Q105 555 90 570Q75 585 66.5 605Q58 625 58 648ZM364 80H221L217 62Q209 29 192.5 14.5Q176 0 141 0H67Q34 0 18 23Q2 46 16 90L133 438Q145 473 163.5 488.5Q182 504 218 504H368Q404 504 422.5 488.5Q441 473 453 438L570 90Q584 46 568 23Q552 0 519 0H445Q410 0 393.5 14.5Q377 29 369 62Z" glyph-name="adieresis.smcp" horiz-adv-x="586" unicode="&#57892;" /><glyph d="M233 374Q218 374 201 372Q184 370 167.5 366.5Q151 363 137 359.5Q123 356 113 353Q80 344 64 359Q48 374 48 395V437Q48 481 89 492Q115 500 160 508Q205 516 262 516Q310 516 345 506.5Q380 497 405 481Q460 516 550 516Q619 516 663 498Q707 480 732.5 448.5Q758 417 768 375.5Q778 334 778 286V258Q778 205 725 205H473Q471 167 496 146.5Q521 126 579 126Q624 126 654.5 131.5Q685 137 705 142Q735 149 751 134Q767 119 767 96V63Q767 43 759.5 29.5Q752 16 731 8Q707 0 660 -8Q613 -16 556 -16Q431 -16 369 37Q331 9 286.5 -3.5Q242 -16 186 -16Q140 -16 108 -3.5Q76 9 56 30.5Q36 52 27 81.5Q18 111 18 145Q18 193 32 223Q46 253 71.5 270Q97 287 133 293.5Q169 300 212 300H301V339Q301 346 299 352.5Q297 359 289.5 363.5Q282 368 268.5 371Q255 374 233 374ZM550 384Q517 384 494.5 364.5Q472 345 473 300H610Q615 344 599.5 364Q584 384 550 384ZM311 136Q307 151 304 170Q301 189 300 205H243Q216 205 201 192.5Q186 180 186 155Q186 132 200.5 119.5Q215 107 236 107Q262 107 281 116Q300 125 311 136Z" glyph-name="ae" horiz-adv-x="798" unicode="&#230;" /><glyph d="M258 194H341L321 375ZM704 500Q772 500 772 432V421Q772 352 704 352H521L528 301H699Q744 301 744 256V243Q744 199 699 199H540L546 148H704Q772 148 772 79V68Q772 0 704 0H427Q390 0 374.5 16Q359 32 355 67L353 80H219L215 67Q202 30 183 15Q164 0 127 0H73Q29 0 14 29Q-1 58 22 108L171 432Q188 468 208.5 484Q229 500 264 500Z" glyph-name="ae.smcp" horiz-adv-x="812" unicode="&#57905;" /><glyph d="M256 445Q273 483 281 522Q289 561 289 591Q289 605 285 610Q281 615 276 615Q268 615 262 603Q256 591 256 556ZM257 -16Q160 -16 114.5 20.5Q69 57 61 129Q42 113 30.5 120.5Q19 128 19 143V235Q19 248 23 255.5Q27 263 35 268L60 288V496Q60 575 74.5 627.5Q89 680 115.5 710.5Q142 741 178 753.5Q214 766 257 766Q340 766 374.5 721.5Q409 677 409 597Q409 538 395.5 488.5Q382 439 360 396.5Q338 354 311 318.5Q284 283 256 253V184Q256 137 306 137Q312 137 317 138Q322 138 326 138.5Q330 139 332 139Q349 139 358 129.5Q367 120 367 105V36Q367 16 356 4.5Q345 -7 330 -10Q317 -12 298 -14Q279 -16 257 -16Z" glyph-name="afii61289" horiz-adv-x="430" unicode="&#8467;" /><glyph d="M232 68Q232 0 164 0H106Q37 0 37 68V682Q37 750 106 750H176Q202 750 219.5 741Q237 732 248 709L436 360L428 682Q428 750 497 750H554Q623 750 623 682V68Q623 0 554 0H483Q458 0 440.5 9Q423 18 412 41L224 390ZM866 361Q813 361 776 373Q739 385 716 409.5Q693 434 683 472.5Q673 511 673 564Q673 616 683 654.5Q693 693 716 717.5Q739 742 776 754Q813 766 866 766Q919 766 956 754Q993 742 1016 717.5Q1039 693 1049 654.5Q1059 616 1059 564Q1059 511 1049 472.5Q1039 434 1016 409.5Q993 385 956 373Q919 361 866 361ZM866 486Q887 486 896.5 501.5Q906 517 906 564Q906 610 896.5 625.5Q887 641 866 641Q845 641 835.5 625.5Q826 610 826 564Q826 517 835.5 501.5Q845 486 866 486Z" glyph-name="afii61352" horiz-adv-x="1075" unicode="&#8470;" /><glyph d="M243 216Q215 213 201 200.5Q187 188 187 157Q187 128 201.5 117.5Q216 107 236 107Q260 107 277 114Q294 121 302 129V223ZM233 374Q218 374 201 371.5Q184 369 167.5 366Q151 363 137 359.5Q123 356 113 353Q80 344 64 359Q48 374 48 395V437Q48 481 89 492Q115 500 160 508Q205 516 262 516Q331 516 374 503Q417 490 441 465.5Q465 441 474 406Q483 371 483 328V53Q483 0 430 0H378Q361 0 352 7Q343 14 335 28L333 32Q310 12 274 -2Q238 -16 186 -16Q140 -16 108 -3.5Q76 9 56 30.5Q36 52 27 81.5Q18 111 18 145Q18 193 32.5 223Q47 253 72.5 271Q98 289 133.5 297.5Q169 306 212 310L301 318V338Q301 355 288.5 364.5Q276 374 233 374ZM216 750Q271 750 285 692L306 607Q313 579 299.5 562.5Q286 546 257 546H241Q227 546 216.5 548.5Q206 551 197.5 556.5Q189 562 181 571Q173 580 163 593L104 670Q93 684 90 698Q87 712 91.5 723.5Q96 735 108 742.5Q120 750 141 750Z" glyph-name="agrave" horiz-adv-x="511" unicode="&#224;" /><glyph d="M327 352Q325 354 309.5 360.5Q294 367 274 367Q235 367 222 340Q209 313 209 250Q209 186 222 159Q235 132 274 132Q294 132 309.5 138.5Q325 145 327 147ZM230 750Q285 750 299 692L320 607Q327 579 313.5 562.5Q300 546 271 546H255Q241 546 230.5 548.5Q220 551 211.5 556.5Q203 562 195 571Q187 580 177 593L118 670Q107 684 104 698Q101 712 105.5 723.5Q110 735 122 742.5Q134 750 155 750ZM523 53Q523 0 470 0H434Q408 0 396 10.5Q384 21 376 39L375 41Q340 12 302.5 -2Q265 -16 214 -16Q116 -16 66.5 45.5Q17 107 17 250Q17 394 66.5 455Q116 516 214 516Q259 516 299.5 502Q340 488 375 459L376 461Q384 479 396 489.5Q408 500 434 500H470Q523 500 523 447Z" glyph-name="agrave.school" horiz-adv-x="555" unicode="&#57682;" /><glyph d="M249 194H336L293 370ZM253 750Q308 750 322 692L343 607Q350 579 336.5 562.5Q323 546 294 546H278Q264 546 253.5 548.5Q243 551 234.5 556.5Q226 562 218 571Q210 580 200 593L141 670Q130 684 127 698Q124 712 128.5 723.5Q133 735 145 742.5Q157 750 178 750ZM364 80H221L217 62Q209 29 192.5 14.5Q176 0 141 0H67Q34 0 18 23Q2 46 16 90L133 438Q145 473 163.5 488.5Q182 504 218 504H368Q404 504 422.5 488.5Q441 473 453 438L570 90Q584 46 568 23Q552 0 519 0H445Q410 0 393.5 14.5Q377 29 369 62Z" glyph-name="agrave.smcp" horiz-adv-x="586" unicode="&#57890;" /><glyph d="M265 -250Q233 -250 219 -247.5Q205 -245 196 -243Q179 -239 170 -225.5Q161 -212 161 -193V-188Q161 -168 171.5 -155.5Q182 -143 200 -143Q207 -143 219 -145Q231 -147 240 -147Q292 -147 292 -122Q292 -97 244 -89Q226 -86 220 -78Q214 -70 216 -57Q219 -33 248 -36Q299 -42 331 -53Q363 -64 380.5 -79Q398 -94 404.5 -111Q411 -128 411 -145Q411 -200 370 -225Q329 -250 265 -250Z" glyph-name="altcedilla" horiz-adv-x="530" unicode="&#58390;" /><glyph d="M243 216Q215 213 201 200.5Q187 188 187 157Q187 128 201.5 117.5Q216 107 236 107Q260 107 277 114Q294 121 302 129V223ZM233 374Q218 374 201 371.5Q184 369 167.5 366Q151 363 137 359.5Q123 356 113 353Q80 344 64 359Q48 374 48 395V437Q48 481 89 492Q115 500 160 508Q205 516 262 516Q331 516 374 503Q417 490 441 465.5Q465 441 474 406Q483 371 483 328V53Q483 0 430 0H378Q361 0 352 7Q343 14 335 28L333 32Q310 12 274 -2Q238 -16 186 -16Q140 -16 108 -3.5Q76 9 56 30.5Q36 52 27 81.5Q18 111 18 145Q18 193 32.5 223Q47 253 72.5 271Q98 289 133.5 297.5Q169 306 212 310L301 318V338Q301 355 288.5 364.5Q276 374 233 374ZM161 583Q100 583 100 645V651Q100 713 161 713H351Q412 713 412 651V645Q412 583 351 583Z" glyph-name="amacron" horiz-adv-x="511" unicode="&#257;" /><glyph d="M327 352Q325 354 309.5 360.5Q294 367 274 367Q235 367 222 340Q209 313 209 250Q209 186 222 159Q235 132 274 132Q294 132 309.5 138.5Q325 145 327 147ZM175 583Q114 583 114 645V651Q114 713 175 713H365Q426 713 426 651V645Q426 583 365 583ZM523 53Q523 0 470 0H434Q408 0 396 10.5Q384 21 376 39L375 41Q340 12 302.5 -2Q265 -16 214 -16Q116 -16 66.5 45.5Q17 107 17 250Q17 394 66.5 455Q116 516 214 516Q259 516 299.5 502Q340 488 375 459L376 461Q384 479 396 489.5Q408 500 434 500H470Q523 500 523 447Z" glyph-name="amacron.school" horiz-adv-x="555" unicode="&#57689;" /><glyph d="M249 194H336L293 370ZM198 583Q137 583 137 645V651Q137 713 198 713H388Q449 713 449 651V645Q449 583 388 583ZM364 80H221L217 62Q209 29 192.5 14.5Q176 0 141 0H67Q34 0 18 23Q2 46 16 90L133 438Q145 473 163.5 488.5Q182 504 218 504H368Q404 504 422.5 488.5Q441 473 453 438L570 90Q584 46 568 23Q552 0 519 0H445Q410 0 393.5 14.5Q377 29 369 62Z" glyph-name="amacron.smcp" horiz-adv-x="586" unicode="&#57896;" /><glyph d="M507 264Q519 279 529 302.5Q539 326 545.5 350.5Q552 375 555.5 399Q559 423 559 440Q559 467 574.5 483.5Q590 500 619 500H686Q712 500 730 486Q748 472 748 438Q748 408 743 372Q738 336 728 299.5Q718 263 703 229.5Q688 196 668 171Q676 167 683.5 163Q691 159 699 156Q729 144 735 117Q741 90 730 65L717 35Q704 6 678 -2.5Q652 -11 623 0Q602 8 580.5 17.5Q559 27 532 42Q436 -16 312 -16Q245 -16 191.5 -2.5Q138 11 100.5 38.5Q63 66 43 109.5Q23 153 23 213Q23 255 31.5 288Q40 321 55.5 346.5Q71 372 93 391Q115 410 143 426Q129 459 121 492.5Q113 526 113 559Q113 600 126 637.5Q139 675 166.5 703.5Q194 732 236.5 749Q279 766 338 766Q396 766 437 751.5Q478 737 503.5 711Q529 685 540.5 648.5Q552 612 552 567Q552 495 511.5 450Q471 405 398 371Q442 312 507 264ZM298 556Q298 544 302.5 527.5Q307 511 313 497Q342 511 357 526Q372 541 372 562Q372 597 337 597Q315 597 306.5 586Q298 575 298 556ZM319 145Q333 145 345.5 147Q358 149 366 151Q325 185 290 220Q255 255 229 290Q208 268 208 234Q208 209 217.5 192Q227 175 243 164.5Q259 154 278.5 149.5Q298 145 319 145Z" glyph-name="ampersand" horiz-adv-x="774" unicode="&amp;" /><glyph d="M218 273Q212 265 209.5 255.5Q207 246 207 235Q207 197 228.5 177Q250 157 299 157H312Q255 211 218 273ZM414 537Q422 589 374 589Q345 589 335 572.5Q325 556 325 530Q325 496 335 458Q345 420 365 382Q385 344 414.5 308Q444 272 483 244Q493 259 499 277Q505 295 503 317Q499 354 515 368.5Q531 383 557 383H638Q655 383 669 375.5Q683 368 691 352Q695 344 696.5 332.5Q698 321 698 313Q698 276 689.5 238Q681 200 663 165L692 160Q719 156 731 140Q743 124 743 100V46Q743 20 728.5 1Q714 -18 680 -15Q648 -12 608 -2Q568 8 520 26Q478 6 426 -5Q374 -16 314 -16Q158 -16 89 47Q20 110 20 232Q20 308 51 360.5Q82 413 143 439Q130 490 130 544Q130 587 144 627Q158 667 187.5 698Q217 729 263 747.5Q309 766 373 766Q490 766 547.5 722Q605 678 605 592Q605 565 601.5 543Q598 521 595 513Q587 493 572 484.5Q557 476 540 476H461Q437 476 423 489.5Q409 503 414 537Z" glyph-name="ampersand.alt" horiz-adv-x="748" /><glyph d="M328 469Q343 443 362.5 416Q382 389 405 362Q428 335 454 310Q480 285 507 264Q519 279 529 302.5Q539 326 545.5 350.5Q552 375 555.5 399Q559 423 559 440Q559 467 574.5 483.5Q590 500 619 500H686Q712 500 730 486Q748 472 748 438Q748 408 743 372Q738 336 728 299.5Q718 263 703 229.5Q688 196 668 171Q676 167 683.5 163Q691 159 699 156Q729 144 735 117Q741 90 730 65L717 35Q704 6 678 -2.5Q652 -11 623 0Q602 8 580.5 17.5Q559 27 532 42Q436 -16 312 -16Q245 -16 191.5 -2.5Q138 11 100.5 38.5Q63 66 43 109.5Q23 153 23 213Q23 255 31.5 288Q40 321 55.5 346.5Q71 372 93 391Q115 410 143 426L140 433Q134 446 135.5 458Q137 470 143 479.5Q149 489 159.5 494.5Q170 500 183 500H274Q296 500 308 491.5Q320 483 328 469ZM319 145Q333 145 345.5 147Q358 149 366 151Q325 185 290 220Q255 255 229 290Q208 268 208 234Q208 209 217.5 192Q227 175 243 164.5Q259 154 278.5 149.5Q298 145 319 145Z" glyph-name="ampersand.smcp" horiz-adv-x="774" unicode="&#58369;" /><glyph d="M37 277Q37 284 38 292.5Q39 301 43 315L149 721Q158 756 174 769.5Q190 783 225 783H266Q299 783 313 764Q327 745 317 710L194 277L317 -156Q327 -191 313 -210Q299 -229 266 -229H225Q190 -229 174 -215.5Q158 -202 149 -167L43 239Q39 253 38 261.5Q37 270 37 277Z" glyph-name="anglebracketleft" horiz-adv-x="347" unicode="&#12296;" /><glyph d="M37 375Q37 382 38 390.5Q39 399 43 413L149 819Q158 854 174 867.5Q190 881 225 881H266Q299 881 313 862Q327 843 317 808L194 375L317 -58Q327 -93 313 -112Q299 -131 266 -131H225Q190 -131 174 -117.5Q158 -104 149 -69L43 337Q39 351 38 359.5Q37 368 37 375Z" glyph-name="anglebracketleft.cap" horiz-adv-x="347" unicode="&#58519;" /><glyph d="M310 277Q310 270 309 261.5Q308 253 304 239L198 -167Q189 -202 173 -215.5Q157 -229 122 -229H81Q48 -229 34 -210Q20 -191 30 -156L153 277L30 710Q20 745 34 764Q48 783 81 783H122Q157 783 173 769.5Q189 756 198 721L304 315Q308 301 309 292.5Q310 284 310 277Z" glyph-name="anglebracketright" horiz-adv-x="347" unicode="&#12297;" /><glyph d="M310 375Q310 368 309 359.5Q308 351 304 337L198 -69Q189 -104 173 -117.5Q157 -131 122 -131H81Q48 -131 34 -112Q20 -93 30 -58L153 375L30 808Q20 843 34 862Q48 881 81 881H122Q157 881 173 867.5Q189 854 198 819L304 413Q308 399 309 390.5Q310 382 310 375Z" glyph-name="anglebracketright.cap" horiz-adv-x="347" unicode="&#58520;" /><glyph d="M217 62Q209 29 192.5 14.5Q176 0 141 0H67Q34 0 18 23Q2 46 16 90L133 438Q145 473 163.5 488.5Q182 504 218 504H368Q404 504 422.5 488.5Q441 473 453 438L570 90Q584 46 568 23Q552 0 519 0H445Q410 0 393.5 14.5Q377 29 369 62L293 370Z" glyph-name="anocross.smcp" horiz-adv-x="586" unicode="&#57888;" /><glyph d="M243 216Q215 213 201 200.5Q187 188 187 157Q187 128 201.5 117.5Q216 107 236 107Q260 107 277 114Q294 121 302 129V223ZM433 -145Q442 -145 449 -144Q456 -143 461 -143Q479 -143 490 -155Q501 -167 501 -187V-192Q501 -234 466 -242Q457 -244 440 -247Q423 -250 391 -250Q322 -250 277.5 -218.5Q233 -187 233 -127Q233 -75 263.5 -40Q294 -5 340 18L333 32Q310 12 274 -2Q238 -16 186 -16Q140 -16 108 -3.5Q76 9 56 30.5Q36 52 27 81.5Q18 111 18 145Q18 193 32.5 223Q47 253 72.5 271Q98 289 133.5 297.5Q169 306 212 310L301 318V338Q301 355 288.5 364.5Q276 374 233 374Q218 374 201 371.5Q184 369 167.5 366Q151 363 137 359.5Q123 356 113 353Q80 344 64 359Q48 374 48 395V437Q48 481 89 492Q115 500 160 508Q205 516 262 516Q331 516 374 503Q417 490 441 465.5Q465 441 474 406Q483 371 483 328V53Q483 19 458 5Q418 -18 395.5 -42.5Q373 -67 373 -99Q373 -120 387.5 -132.5Q402 -145 433 -145Z" glyph-name="aogonek" horiz-adv-x="511" unicode="&#261;" /><glyph d="M327 352Q325 354 309.5 360.5Q294 367 274 367Q235 367 222 340Q209 313 209 250Q209 186 222 159Q235 132 274 132Q294 132 309.5 138.5Q325 145 327 147ZM473 -145Q482 -145 489 -144Q496 -143 501 -143Q519 -143 530 -155Q541 -167 541 -187V-192Q541 -234 506 -242Q497 -244 480 -247Q463 -250 431 -250Q362 -250 317.5 -218.5Q273 -187 273 -127Q273 -74 305.5 -38.5Q338 -3 386 21Q381 27 376 39L375 41Q340 12 302.5 -2Q265 -16 214 -16Q116 -16 66.5 45.5Q17 107 17 250Q17 394 66.5 455Q116 516 214 516Q259 516 299.5 502Q340 488 375 459L376 461Q384 479 396 489.5Q408 500 434 500H470Q523 500 523 447V53Q523 34 516 22.5Q509 11 497 4Q458 -18 435.5 -43Q413 -68 413 -99Q413 -120 427.5 -132.5Q442 -145 473 -145Z" glyph-name="aogonek.school" horiz-adv-x="555" unicode="&#57680;" /><glyph d="M249 194H336L293 370ZM530 -145Q539 -145 546 -144Q553 -143 558 -143Q576 -143 587 -155Q598 -167 598 -187V-192Q598 -234 563 -242Q554 -244 537 -247Q520 -250 488 -250Q419 -250 374.5 -218.5Q330 -187 330 -127Q330 -91 345 -62Q360 -33 386 -10L364 80H221L217 62Q209 29 192.5 14.5Q176 0 141 0H67Q34 0 18 23Q2 46 16 90L133 438Q145 473 163.5 488.5Q182 504 218 504H368Q404 504 422.5 488.5Q441 473 453 438L570 90Q581 58 573.5 37.5Q566 17 549 6Q512 -17 491 -45Q470 -73 470 -99Q470 -120 484.5 -132.5Q499 -145 530 -145Z" glyph-name="aogonek.smcp" horiz-adv-x="586" unicode="&#57903;" /><glyph d="M444 102Q400 102 363 113Q326 124 292.5 137Q259 150 226 161Q193 172 157 172Q145 172 131.5 170Q118 168 103 163Q77 153 58.5 163.5Q40 174 40 201V292Q40 311 48.5 321Q57 331 68 336Q79 341 101.5 347Q124 353 156 353Q200 353 237 342Q274 331 307.5 318Q341 305 374 294Q407 283 443 283Q455 283 468.5 285Q482 287 497 292Q523 302 541.5 291.5Q560 281 560 254V163Q560 144 551.5 134Q543 124 532 119Q521 114 498.5 108Q476 102 444 102ZM444 329Q400 329 363 340Q326 351 292.5 364Q259 377 226 388Q193 399 157 399Q145 399 131.5 397Q118 395 103 390Q77 380 58.5 390.5Q40 401 40 428V519Q40 538 48.5 548Q57 558 68 563Q79 568 101.5 574Q124 580 156 580Q200 580 237 569Q274 558 307.5 545Q341 532 374 521Q407 510 443 510Q455 510 468.5 512Q482 514 497 519Q523 529 541.5 518.5Q560 508 560 481V390Q560 371 551.5 361Q543 351 532 346Q521 341 498.5 335Q476 329 444 329Z" glyph-name="approxequal" horiz-adv-x="600" unicode="&#8776;" /><glyph d="M243 216Q215 213 201 200.5Q187 188 187 157Q187 128 201.5 117.5Q216 107 236 107Q260 107 277 114Q294 121 302 129V223ZM233 374Q218 374 201 371.5Q184 369 167.5 366Q151 363 137 359.5Q123 356 113 353Q80 344 64 359Q48 374 48 395V437Q48 481 89 492Q115 500 160 508Q205 516 262 516Q331 516 374 503Q417 490 441 465.5Q465 441 474 406Q483 371 483 328V53Q483 0 430 0H378Q361 0 352 7Q343 14 335 28L333 32Q310 12 274 -2Q238 -16 186 -16Q140 -16 108 -3.5Q76 9 56 30.5Q36 52 27 81.5Q18 111 18 145Q18 193 32.5 223Q47 253 72.5 271Q98 289 133.5 297.5Q169 306 212 310L301 318V338Q301 355 288.5 364.5Q276 374 233 374ZM256 537Q199 537 169.5 563Q140 589 140 647Q140 706 169.5 732Q199 758 256 758Q313 758 342.5 732Q372 706 372 648Q372 589 342.5 563Q313 537 256 537ZM256 620Q284 620 284 647Q284 662 276.5 668Q269 674 256 674Q228 674 228 648Q228 620 256 620Z" glyph-name="aring" horiz-adv-x="511" unicode="&#229;" /><glyph d="M270 620Q298 620 298 647Q298 662 290.5 668Q283 674 270 674Q242 674 242 648Q242 620 270 620ZM327 352Q325 354 309.5 360.5Q294 367 274 367Q235 367 222 340Q209 313 209 250Q209 186 222 159Q235 132 274 132Q294 132 309.5 138.5Q325 145 327 147ZM270 537Q213 537 183.5 563Q154 589 154 647Q154 706 183.5 732Q213 758 270 758Q327 758 356.5 732Q386 706 386 648Q386 589 356.5 563Q327 537 270 537ZM523 53Q523 0 470 0H434Q408 0 396 10.5Q384 21 376 39L375 41Q340 12 302.5 -2Q265 -16 214 -16Q116 -16 66.5 45.5Q17 107 17 250Q17 394 66.5 455Q116 516 214 516Q259 516 299.5 502Q340 488 375 459L376 461Q384 479 396 489.5Q408 500 434 500H470Q523 500 523 447Z" glyph-name="aring.school" horiz-adv-x="555" unicode="&#57687;" /><glyph d="M293 620Q321 620 321 647Q321 662 313.5 668Q306 674 293 674Q265 674 265 648Q265 620 293 620ZM249 194H336L293 370ZM293 537Q236 537 206.5 563Q177 589 177 647Q177 706 206.5 732Q236 758 293 758Q350 758 379.5 732Q409 706 409 648Q409 589 379.5 563Q350 537 293 537ZM364 80H221L217 62Q209 29 192.5 14.5Q176 0 141 0H67Q34 0 18 23Q2 46 16 90L133 438Q145 473 163.5 488.5Q182 504 218 504H368Q404 504 422.5 488.5Q441 473 453 438L570 90Q584 46 568 23Q552 0 519 0H445Q410 0 393.5 14.5Q377 29 369 62Z" glyph-name="aring.smcp" horiz-adv-x="586" unicode="&#57894;" /><glyph d="M718 543Q728 554 740.5 558Q753 562 764 559.5Q775 557 782.5 548Q790 539 790 524V363Q790 346 786 333.5Q782 321 770 309L474 6Q457 -16 417 -16H413Q373 -16 356 6L60 309Q48 321 44 333.5Q40 346 40 363V524Q40 539 47.5 548Q55 557 66 559.5Q77 562 89.5 558Q102 554 112 543L324 314V682Q324 750 393 750H437Q506 750 506 682V314Z" glyph-name="arrowdown" horiz-adv-x="830" unicode="&#8595;" /><glyph d="M360 466H728Q796 466 796 397V353Q796 284 728 284H360L589 72Q600 62 604 49.5Q608 37 605.5 26Q603 15 594 7.5Q585 0 570 0H409Q392 0 379.5 4Q367 8 355 20L52 316Q30 332 30 373V377Q30 418 52 434L355 730Q367 742 379.5 746Q392 750 409 750H570Q585 750 594 742.5Q603 735 605.5 724Q608 713 604 700.5Q600 688 589 678Z" glyph-name="arrowleft" horiz-adv-x="830" unicode="&#8592;" /><glyph d="M470 284H102Q34 284 34 353V397Q34 466 102 466H470L241 678Q230 688 226 700.5Q222 713 224.5 724Q227 735 236 742.5Q245 750 260 750H421Q438 750 450.5 746Q463 742 475 730L777 434Q800 417 800 377V373Q800 333 777 316L475 20Q463 8 450.5 4Q438 0 421 0H260Q245 0 236 7.5Q227 15 224.5 26Q222 37 226 49.5Q230 62 241 72Z" glyph-name="arrowright" horiz-adv-x="830" unicode="&#8594;" /><glyph d="M506 436V68Q506 0 437 0H393Q324 0 324 68V436L112 207Q102 196 89.5 192Q77 188 66 190.5Q55 193 47.5 202Q40 211 40 226V387Q40 404 44 416.5Q48 429 60 441L356 743Q373 766 413 766H417Q457 766 474 743L770 441Q782 429 786 416.5Q790 404 790 387V226Q790 211 782.5 202Q775 193 764 190.5Q753 188 740.5 192Q728 196 718 207Z" glyph-name="arrowup" horiz-adv-x="830" unicode="&#8593;" /><glyph d="M277 766Q313 766 329 751Q345 736 360 702L464 461Q473 440 472 424Q471 408 463.5 397Q456 386 443.5 380.5Q431 375 416 375H356Q301 375 287 427L250 559L213 427Q199 375 144 375H84Q69 375 56 380.5Q43 386 35.5 397Q28 408 27.5 424Q27 440 36 461L140 702Q155 736 171 751Q187 766 223 766Z" glyph-name="asciicircum" horiz-adv-x="500" unicode="^" /><glyph d="M371 218Q334 218 303 227.5Q272 237 244.5 248Q217 259 191 268.5Q165 278 138 278Q126 278 112.5 276Q99 274 84 269Q59 261 42.5 271Q26 281 26 308V374Q26 393 34.5 403Q43 413 54 418Q63 422 83 427Q103 432 129 432Q166 432 197 422.5Q228 413 255.5 402Q283 391 309 381.5Q335 372 362 372Q374 372 387.5 374Q401 376 416 381Q441 389 457.5 379Q474 369 474 342V276Q474 257 465.5 247Q457 237 446 232Q437 228 417 223Q397 218 371 218Z" glyph-name="asciitilde" horiz-adv-x="500" unicode="~" /><glyph d="M66 626Q74 651 95.5 659.5Q117 668 140 657L193 630L185 689Q181 715 196 732.5Q211 750 238 750H322Q349 750 363.5 732.5Q378 715 375 689L366 631L420 657Q443 668 464.5 659.5Q486 651 494 626L520 545Q528 520 516.5 500.5Q505 481 479 476L420 466L462 423Q479 404 477.5 381.5Q476 359 455 344L385 294Q364 278 342 283.5Q320 289 308 312L280 364L252 312Q240 289 217.5 283.5Q195 278 174 294L105 344Q84 359 82.5 381.5Q81 404 98 423L139 466L81 476Q55 481 43.5 500.5Q32 520 40 545Z" glyph-name="asterisk" horiz-adv-x="592" unicode="*" /><glyph d="M535 -158Q402 -158 310 -129Q218 -100 160.5 -46.5Q103 7 77 82Q51 157 51 250Q51 343 77 418Q103 493 160.5 546.5Q218 600 310 629Q402 658 535 658Q664 658 752 636.5Q840 615 894 573Q948 531 972 469Q996 407 996 327Q996 265 979 214Q962 163 929 126.5Q896 90 846.5 70Q797 50 732 50H671Q649 50 639 56.5Q629 63 622 77L619 82Q590 60 555 46Q520 32 476 32Q427 32 387.5 44Q348 56 320 82.5Q292 109 277 150Q262 191 262 250Q262 308 277 349.5Q292 391 320 417.5Q348 444 387.5 456Q427 468 476 468Q520 468 555 454Q590 440 619 418L621 421Q629 435 639 442.5Q649 450 671 450H713Q766 450 766 397V173Q822 173 843.5 214.5Q865 256 865 327Q865 387 848 428.5Q831 470 792 496Q753 522 690 533.5Q627 545 535 545Q443 545 376 528.5Q309 512 266 477Q223 442 202.5 385.5Q182 329 182 250Q182 170 202.5 114Q223 58 266 23Q309 -12 376 -28.5Q443 -45 535 -45Q582 -45 626 -41.5Q670 -38 707.5 -33Q745 -28 774 -22Q803 -16 820 -11Q849 -3 863 -16Q877 -29 877 -49V-68Q877 -86 870 -99Q863 -112 843 -119Q825 -125 792 -131.5Q759 -138 717 -144Q675 -150 628 -154Q581 -158 535 -158ZM572 306Q570 308 555.5 314Q541 320 524 320Q487 320 470.5 304Q454 288 454 250Q454 212 470.5 196Q487 180 524 180Q541 180 555.5 185.5Q570 191 572 193Z" glyph-name="at" horiz-adv-x="1047" unicode="@" /><glyph d="M580 414Q578 416 562.5 422.5Q547 429 527 429Q488 429 475 402Q462 375 462 312Q462 248 475 221Q488 194 527 194Q547 194 562.5 200.5Q578 207 580 209ZM776 186Q836 190 867 246.5Q898 303 898 403Q898 472 881.5 529.5Q865 587 824 629Q783 671 713 694Q643 717 537 717Q430 717 357.5 685Q285 653 240.5 598Q196 543 176.5 469Q157 395 157 312Q157 229 176.5 155.5Q196 82 240.5 27Q285 -28 357.5 -60Q430 -92 537 -92Q631 -92 695.5 -79.5Q760 -67 793 -57Q822 -49 836 -62Q850 -75 850 -95V-116Q850 -134 843 -147Q836 -160 816 -167Q778 -180 710.5 -192.5Q643 -205 537 -205Q439 -205 363 -185Q287 -165 230.5 -130Q174 -95 134.5 -46.5Q95 2 71 59.5Q47 117 36.5 181Q26 245 26 312Q26 379 36.5 443Q47 507 71 565Q95 623 134.5 671.5Q174 720 230.5 755Q287 790 363 810Q439 830 537 830Q684 830 779 796.5Q874 763 929.5 705Q985 647 1007 569Q1029 491 1029 403Q1029 326 1010.5 263Q992 200 956.5 155.5Q921 111 870 86.5Q819 62 754 62H687Q661 62 649 72.5Q637 83 629 101L628 103Q593 74 555.5 60Q518 46 467 46Q369 46 319.5 107.5Q270 169 270 312Q270 456 319.5 517Q369 578 467 578Q512 578 552.5 564Q593 550 628 521L629 523Q637 541 649 551.5Q661 562 687 562H723Q776 562 776 509Z" glyph-name="at.cap" horiz-adv-x="1055" unicode="&#58643;" /><glyph d="M243 216Q215 213 201 200.5Q187 188 187 157Q187 128 201.5 117.5Q216 107 236 107Q260 107 277 114Q294 121 302 129V223ZM233 374Q218 374 201 371.5Q184 369 167.5 366Q151 363 137 359.5Q123 356 113 353Q80 344 64 359Q48 374 48 395V437Q48 481 89 492Q115 500 160 508Q205 516 262 516Q331 516 374 503Q417 490 441 465.5Q465 441 474 406Q483 371 483 328V53Q483 0 430 0H378Q361 0 352 7Q343 14 335 28L333 32Q310 12 274 -2Q238 -16 186 -16Q140 -16 108 -3.5Q76 9 56 30.5Q36 52 27 81.5Q18 111 18 145Q18 193 32.5 223Q47 253 72.5 271Q98 289 133.5 297.5Q169 306 212 310L301 318V338Q301 355 288.5 364.5Q276 374 233 374ZM476 677Q472 637 459.5 610Q447 583 428.5 567Q410 551 387 544.5Q364 538 340 538Q307 538 285.5 549Q264 560 247 573.5Q230 587 215.5 598.5Q201 610 183 610Q154 610 147 588Q143 576 134 569.5Q125 563 107 563H81Q58 563 45.5 578Q33 593 36 619Q40 659 52.5 686Q65 713 83.5 729Q102 745 125 751.5Q148 758 172 758Q205 758 226.5 746.5Q248 735 265 721.5Q282 708 296.5 697Q311 686 329 686Q358 686 365 708Q369 720 378 726.5Q387 733 405 733H431Q454 733 466.5 718Q479 703 476 677Z" glyph-name="atilde" horiz-adv-x="511" unicode="&#227;" /><glyph d="M327 352Q325 354 309.5 360.5Q294 367 274 367Q235 367 222 340Q209 313 209 250Q209 186 222 159Q235 132 274 132Q294 132 309.5 138.5Q325 145 327 147ZM490 677Q486 637 473.5 610Q461 583 442.5 567Q424 551 401 544.5Q378 538 354 538Q321 538 299.5 549Q278 560 261 573.5Q244 587 229.5 598.5Q215 610 197 610Q168 610 161 588Q157 576 148 569.5Q139 563 121 563H95Q72 563 59.5 578Q47 593 50 619Q54 659 66.5 686Q79 713 97.5 729Q116 745 139 751.5Q162 758 186 758Q219 758 240.5 746.5Q262 735 279 721.5Q296 708 310.5 697Q325 686 343 686Q372 686 379 708Q383 720 392 726.5Q401 733 419 733H445Q468 733 480.5 718Q493 703 490 677ZM523 53Q523 0 470 0H434Q408 0 396 10.5Q384 21 376 39L375 41Q340 12 302.5 -2Q265 -16 214 -16Q116 -16 66.5 45.5Q17 107 17 250Q17 394 66.5 455Q116 516 214 516Q259 516 299.5 502Q340 488 375 459L376 461Q384 479 396 489.5Q408 500 434 500H470Q523 500 523 447Z" glyph-name="atilde.school" horiz-adv-x="555" unicode="&#57686;" /><glyph d="M249 194H336L293 370ZM513 677Q509 637 496.5 610Q484 583 465.5 567Q447 551 424 544.5Q401 538 377 538Q344 538 322.5 549Q301 560 284 573.5Q267 587 252.5 598.5Q238 610 220 610Q191 610 184 588Q180 576 171 569.5Q162 563 144 563H118Q95 563 82.5 578Q70 593 73 619Q77 659 89.5 686Q102 713 120.5 729Q139 745 162 751.5Q185 758 209 758Q242 758 263.5 746.5Q285 735 302 721.5Q319 708 333.5 697Q348 686 366 686Q395 686 402 708Q406 720 415 726.5Q424 733 442 733H468Q491 733 503.5 718Q516 703 513 677ZM364 80H221L217 62Q209 29 192.5 14.5Q176 0 141 0H67Q34 0 18 23Q2 46 16 90L133 438Q145 473 163.5 488.5Q182 504 218 504H368Q404 504 422.5 488.5Q441 473 453 438L570 90Q584 46 568 23Q552 0 519 0H445Q410 0 393.5 14.5Q377 29 369 62Z" glyph-name="atilde.smcp" horiz-adv-x="586" unicode="&#57893;" /><glyph d="M228 147Q230 145 245.5 138.5Q261 132 281 132Q320 132 333 159Q346 186 346 250Q346 313 333 340Q320 367 281 367Q261 367 245.5 360.5Q230 354 228 352ZM183 33Q176 20 165 10Q154 0 128 0H85Q32 0 32 53V698Q32 751 85 751H175Q228 751 228 697V489Q251 501 279 508.5Q307 516 341 516Q390 516 426.5 501.5Q463 487 488 455Q513 423 525.5 372.5Q538 322 538 250Q538 178 525.5 127.5Q513 77 488 45Q463 13 426.5 -1.5Q390 -16 341 -16Q290 -16 252.5 -2Q215 12 183 33Z" glyph-name="b" horiz-adv-x="555" unicode="b" /><glyph d="M337 334Q337 371 306 371H232V295H305Q321 295 329 306Q337 317 337 334ZM347 168Q347 187 338.5 198Q330 209 314 209H232V129H315Q331 129 339 139.5Q347 150 347 168ZM46 432Q46 500 115 500H337Q389 500 423.5 489.5Q458 479 478.5 460.5Q499 442 507.5 416Q516 390 516 359Q516 330 503.5 307Q491 284 474 272Q501 259 517 230Q533 201 533 164Q533 129 524 99Q515 69 493.5 47Q472 25 435.5 12.5Q399 0 345 0H115Q46 0 46 68Z" glyph-name="b.smcp" horiz-adv-x="555" unicode="&#57858;" /><glyph d="M180 465Q180 496 175 505.5Q170 515 159 515Q148 515 140 511V419Q143 417 148.5 415.5Q154 414 159 414Q170 414 175 423.5Q180 433 180 465ZM140 589Q152 594 166 596.5Q180 599 194 599Q246 599 273 569.5Q300 540 300 465Q300 390 273 360.5Q246 331 194 331Q174 331 153 338Q132 345 114 361Q110 351 103 345.5Q96 340 81 340H50Q20 340 20 370V685Q20 715 50 715H110Q140 715 140 685Z" glyph-name="b.superior" horiz-adv-x="313" unicode="&#58210;" /><glyph d="M17 712Q1 755 16.5 777.5Q32 800 65 800H143Q177 800 192.5 785Q208 770 219 738L526 -112Q542 -155 526.5 -177.5Q511 -200 478 -200H400Q383 -200 371 -196.5Q359 -193 350.5 -185.5Q342 -178 336 -166Q330 -154 324 -138Z" glyph-name="backslash" horiz-adv-x="543" unicode="\" /><glyph d="M69 432Q69 500 138 500H500Q569 500 569 432V68Q569 0 500 0H138Q69 0 69 68ZM254 315V185H384V315ZM276 293H362V207H276Z" glyph-name="ballotboxwithx" horiz-adv-x="638" unicode="&#9746;" /><glyph d="M43 732Q43 800 112 800H170Q239 800 239 732V-132Q239 -200 170 -200H112Q43 -200 43 -132Z" glyph-name="bar" horiz-adv-x="282" unicode="|" /><glyph d="M52 375Q52 456 82.5 527Q113 598 166.5 651.5Q220 705 291 735.5Q362 766 443 766Q524 766 595 735.5Q666 705 719.5 651.5Q773 598 803.5 527Q834 456 834 375Q834 294 803.5 223Q773 152 719.5 98.5Q666 45 595 14.5Q524 -16 443 -16Q362 -16 291 14.5Q220 45 166.5 98.5Q113 152 82.5 223Q52 294 52 375Z" glyph-name="blackcircle" horiz-adv-x="887" unicode="&#9679;" /><glyph d="M69 432Q69 500 138 500H500Q569 500 569 432V68Q569 0 500 0H138Q69 0 69 68Z" glyph-name="blacksmallsquare" horiz-adv-x="638" unicode="&#9642;" /><glyph d="M69 682Q69 750 138 750H750Q819 750 819 682V68Q819 0 750 0H138Q69 0 69 68Z" glyph-name="blacksquare" horiz-adv-x="888" unicode="&#9632;" /><glyph d="M181 277Q203 265 211.5 244.5Q220 224 219 201L202 -51Q201 -62 205 -67Q209 -72 215 -74Q223 -77 232 -80.5Q241 -84 248.5 -90.5Q256 -97 261 -108Q266 -119 266 -137V-161Q266 -229 197 -229H182Q152 -229 127 -222Q102 -215 84 -200Q66 -185 56.5 -161Q47 -137 49 -104L66 180Q67 192 63 197Q59 202 51 205Q30 213 21 227.5Q12 242 12 269V285Q12 312 21 326.5Q30 341 51 349Q59 352 63 357Q67 362 66 374L49 658Q47 691 56.5 715Q66 739 84 754Q102 769 127 776Q152 783 182 783H197Q266 783 266 715V691Q266 673 261 662Q256 651 248.5 644.5Q241 638 232 634.5Q223 631 215 628Q209 626 205 621Q201 616 202 605L219 353Q220 330 211.5 309.5Q203 289 181 277Z" glyph-name="braceleft" horiz-adv-x="285" unicode="{" /><glyph d="M181 375Q203 363 211.5 342.5Q220 322 219 299L202 47Q201 36 205 31Q209 26 215 24Q223 21 232 17.5Q241 14 248.5 7.5Q256 1 261 -10Q266 -21 266 -39V-63Q266 -131 197 -131H182Q152 -131 127 -124Q102 -117 84 -102Q66 -87 56.5 -63Q47 -39 49 -6L66 278Q67 290 63 295Q59 300 51 303Q30 311 21 325.5Q12 340 12 367V383Q12 410 21 424.5Q30 439 51 447Q59 450 63 455Q67 460 66 472L49 756Q47 789 56.5 813Q66 837 84 852Q102 867 127 874Q152 881 182 881H197Q266 881 266 813V789Q266 771 261 760Q256 749 248.5 742.5Q241 736 232 732.5Q223 729 215 726Q209 724 205 719Q201 714 202 703L219 451Q220 428 211.5 407.5Q203 387 181 375Z" glyph-name="braceleft.cap" horiz-adv-x="285" unicode="&#58517;" /><glyph d="M104 277Q82 289 73.5 309.5Q65 330 66 353L83 605Q84 616 80 621Q76 626 70 628Q62 631 53 634.5Q44 638 36.5 644.5Q29 651 24 662Q19 673 19 691V715Q19 783 88 783H103Q133 783 158 776Q183 769 201 754Q219 739 228.5 715Q238 691 236 658L219 374Q218 362 222 357Q226 352 234 349Q255 341 264 326.5Q273 312 273 285V269Q273 242 264 227.5Q255 213 234 205Q226 202 222 197Q218 192 219 180L236 -104Q238 -137 228.5 -161Q219 -185 201 -200Q183 -215 158 -222Q133 -229 103 -229H88Q19 -229 19 -161V-137Q19 -119 24 -108Q29 -97 36.5 -90.5Q44 -84 53 -80.5Q62 -77 70 -74Q76 -72 80 -67Q84 -62 83 -51L66 201Q65 224 73.5 244.5Q82 265 104 277Z" glyph-name="braceright" horiz-adv-x="285" unicode="}" /><glyph d="M104 375Q82 387 73.5 407.5Q65 428 66 451L83 703Q84 714 80 719Q76 724 70 726Q62 729 53 732.5Q44 736 36.5 742.5Q29 749 24 760Q19 771 19 789V813Q19 881 88 881H103Q133 881 158 874Q183 867 201 852Q219 837 228.5 813Q238 789 236 756L219 472Q218 460 222 455Q226 450 234 447Q255 439 264 424.5Q273 410 273 383V367Q273 340 264 325.5Q255 311 234 303Q226 300 222 295Q218 290 219 278L236 -6Q238 -39 228.5 -63Q219 -87 201 -102Q183 -117 158 -124Q133 -131 103 -131H88Q19 -131 19 -63V-39Q19 -21 24 -10Q29 1 36.5 7.5Q44 14 53 17.5Q62 21 70 24Q76 26 80 31Q84 36 83 47L66 299Q65 322 73.5 342.5Q82 363 104 375Z" glyph-name="braceright.cap" horiz-adv-x="285" unicode="&#58518;" /><glyph d="M208 -75H210Q279 -75 279 -143V-160Q279 -228 210 -228H125Q56 -228 56 -160V715Q56 783 125 783H210Q279 783 279 715V698Q279 630 210 630H208Z" glyph-name="bracketleft" horiz-adv-x="295" unicode="[" /><glyph d="M208 23H210Q279 23 279 -45V-62Q279 -130 210 -130H125Q56 -130 56 -62V813Q56 881 125 881H210Q279 881 279 813V796Q279 728 210 728H208Z" glyph-name="bracketleft.cap" horiz-adv-x="295" unicode="&#58515;" /><glyph d="M87 630H85Q16 630 16 698V715Q16 783 85 783H170Q239 783 239 715V-160Q239 -228 170 -228H85Q16 -228 16 -160V-143Q16 -75 85 -75H87Z" glyph-name="bracketright" horiz-adv-x="295" unicode="]" /><glyph d="M87 728H85Q16 728 16 796V813Q16 881 85 881H170Q239 881 239 813V-62Q239 -130 170 -130H85Q16 -130 16 -62V-45Q16 23 85 23H87Z" glyph-name="bracketright.cap" horiz-adv-x="295" unicode="&#58516;" /><glyph d="M265 546Q73 546 55 694Q52 720 64 735Q76 750 99 750H136Q157 750 167.5 741Q178 732 183 715Q190 690 208.5 680Q227 670 265 670Q303 670 321.5 680Q340 690 347 715Q352 732 362.5 741Q373 750 394 750H431Q454 750 466 735Q478 720 475 694Q457 546 265 546Z" glyph-name="breve" horiz-adv-x="530" unicode="&#728;" /><glyph d="M265 776Q164 776 117 793.5Q70 811 59 854Q53 880 63.5 895Q74 910 97 910H147Q164 910 171 905Q178 900 184 890Q190 880 207 875Q224 870 265 870Q306 870 323 875Q340 880 346 890Q352 900 359 905Q366 910 383 910H433Q456 910 466.5 895Q477 880 471 854Q460 811 413 793.5Q366 776 265 776Z" glyph-name="breve.cap" horiz-adv-x="530" unicode="&#58406;" /><glyph d="M43 207Q43 275 112 275H170Q239 275 239 207V-132Q239 -200 170 -200H112Q43 -200 43 -132ZM43 732Q43 800 112 800H170Q239 800 239 732V393Q239 325 170 325H112Q43 325 43 393Z" glyph-name="brokenbar" horiz-adv-x="248" unicode="&#166;" /><glyph d="M47 375Q47 404 58 430Q69 456 88 475Q107 494 133 505Q159 516 188 516Q217 516 243 505Q269 494 288 475Q307 456 318 430Q329 404 329 375Q329 346 318 320Q307 294 288 275Q269 256 243 245Q217 234 188 234Q159 234 133 245Q107 256 88 275Q69 294 58 320Q47 346 47 375Z" glyph-name="bullet" horiz-adv-x="377" unicode="&#8226;" /><glyph d="M71 331Q62 322 56.5 315Q51 308 50 303V321ZM405 750H444L433 619Q428 617 424.5 614.5Q421 612 416 610ZM458 750H499L459 617L453 626Q445 624 441 622ZM392 750 410 605 397 594 351 750ZM513 750H560L475 593L464 609ZM800 321V300Q775 306 747 315Q719 324 695 336Q671 348 653.5 362.5Q636 377 633 394Q631 398 631 401ZM337 750 393 590 383 579 290 750ZM50 410 264 461Q238 451 213 443.5Q188 436 166 422Q144 408 127.5 393.5Q111 379 98 365L50 345ZM578 750H638L487 574L479 587ZM272 750 379 574 371 563 212 750ZM800 410V345L624 418Q616 431 606 441Q596 451 584 461ZM800 490V430L568 474L542 496ZM317 496Q312 488 307 483.5Q302 479 296 476L50 430V490ZM800 569V510L536 503L524 517ZM662 750H750L498 557L491 568ZM50 510V569L340 515Q335 507 330 503ZM188 750 368 559 362 549 100 750ZM800 655V589L521 523Q518 526 514 534L513 535ZM50 655 350 530 344 520 50 589ZM788 750H800V678L509 540L502 552ZM50 750H62L359 544Q354 538 353 534L50 678Z" glyph-name="bullseye" horiz-adv-x="850" unicode="&#9678;" /><glyph d="M208 250Q208 191 233.5 168Q259 145 307 145Q320 145 330 146.5Q340 148 346 149Q375 155 392 141.5Q409 128 409 104V52Q409 28 398 13.5Q387 -1 361 -6Q344 -11 321.5 -13.5Q299 -16 270 -16Q201 -16 153 1.5Q105 19 75 53Q45 87 31 136.5Q17 186 17 250Q17 314 31 363.5Q45 413 75 447Q105 481 153 498.5Q201 516 270 516Q299 516 321.5 513.5Q344 511 361 506Q387 501 398 486.5Q409 472 409 448V396Q409 372 392 358.5Q375 345 346 351Q340 352 330 353.5Q320 355 307 355Q259 355 233.5 332Q208 309 208 250Z" glyph-name="c" horiz-adv-x="428" unicode="c" /><glyph d="M32 250Q32 377 95.5 446.5Q159 516 300 516Q337 516 368 512Q399 508 419 502Q444 495 457 481.5Q470 468 470 442V384Q470 358 451 344.5Q432 331 400 339Q388 342 370 344.5Q352 347 328 347Q278 347 251 324Q224 301 224 250Q224 199 251 176Q278 153 328 153Q352 153 370 155.5Q388 158 400 161Q432 169 451 155.5Q470 142 470 116V58Q470 32 457 18.5Q444 5 419 -2Q399 -8 368 -12Q337 -16 300 -16Q159 -16 95.5 53Q32 122 32 250Z" glyph-name="c.smcp" horiz-adv-x="505" unicode="&#57859;" /><glyph d="M6 465Q6 530 36.5 564.5Q67 599 139 599Q164 599 184 596Q214 592 214 565V528Q214 500 183 505Q178 506 174 506Q170 506 168 506Q145 506 134 497Q123 488 123 465Q123 442 134 433Q145 424 168 424Q170 424 174 424Q178 424 183 425Q214 430 214 402V365Q214 338 184 334Q164 331 139 331Q67 331 36.5 365.5Q6 400 6 465Z" glyph-name="c.superior" horiz-adv-x="236" unicode="&#58211;" /><glyph d="M208 250Q208 191 233.5 168Q259 145 307 145Q320 145 330 146.5Q340 148 346 149Q375 155 392 141.5Q409 128 409 104V52Q409 28 398 13.5Q387 -1 361 -6Q344 -11 321.5 -13.5Q299 -16 270 -16Q201 -16 153 1.5Q105 19 75 53Q45 87 31 136.5Q17 186 17 250Q17 314 31 363.5Q45 413 75 447Q105 481 153 498.5Q201 516 270 516Q299 516 321.5 513.5Q344 511 361 506Q387 501 398 486.5Q409 472 409 448V396Q409 372 392 358.5Q375 345 346 351Q340 352 330 353.5Q320 355 307 355Q259 355 233.5 332Q208 309 208 250ZM355 750Q376 750 388 742.5Q400 735 404.5 723.5Q409 712 405.5 698Q402 684 392 670L333 593Q313 567 298 556.5Q283 546 255 546H239Q210 546 196.5 562.5Q183 579 190 607L211 692Q225 750 280 750Z" glyph-name="cacute" horiz-adv-x="428" unicode="&#263;" /><glyph d="M32 250Q32 377 95.5 446.5Q159 516 300 516Q337 516 368 512Q399 508 419 502Q444 495 457 481.5Q470 468 470 442V384Q470 358 451 344.5Q432 331 400 339Q388 342 370 344.5Q352 347 328 347Q278 347 251 324Q224 301 224 250Q224 199 251 176Q278 153 328 153Q352 153 370 155.5Q388 158 400 161Q432 169 451 155.5Q470 142 470 116V58Q470 32 457 18.5Q444 5 419 -2Q399 -8 368 -12Q337 -16 300 -16Q159 -16 95.5 53Q32 122 32 250ZM385 750Q406 750 418 742.5Q430 735 434.5 723.5Q439 712 435.5 698Q432 684 422 670L363 593Q343 567 328 556.5Q313 546 285 546H269Q240 546 226.5 562.5Q213 579 220 607L241 692Q255 750 310 750Z" glyph-name="cacute.smcp" horiz-adv-x="505" unicode="&#57908;" /><glyph d="M231 546Q206 546 193 554Q180 562 167 577L76 676Q64 690 61.5 703.5Q59 717 63.5 727.5Q68 738 77.5 744Q87 750 99 750H157Q177 750 191.5 741.5Q206 733 223 715L265 670L307 715Q324 733 338.5 741.5Q353 750 373 750H431Q443 750 452.5 744Q462 738 466.5 727.5Q471 717 468.5 703.5Q466 690 454 676L363 577Q350 562 337 554Q324 546 299 546Z" glyph-name="caron" horiz-adv-x="530" unicode="&#711;" /><glyph d="M203 786Q175 786 159.5 794.5Q144 803 127 815L83 847Q73 854 68.5 865Q64 876 66 886Q68 896 75.5 903Q83 910 97 910H168Q197 910 213.5 904Q230 898 250 882L265 870L280 882Q300 898 316.5 904Q333 910 362 910H433Q447 910 454.5 903Q462 896 464 886Q466 876 461.5 865Q457 854 447 847L403 815Q386 803 370.5 794.5Q355 786 327 786Z" glyph-name="caron.cap" horiz-adv-x="530" unicode="&#58413;" /><glyph d="M372 750Q383 750 393.5 746.5Q404 743 411 735Q418 727 420 714Q422 701 416 682L386 591Q380 573 369 561.5Q358 550 337 550Q316 550 306.5 562.5Q297 575 299 595L307 698Q309 721 319.5 735.5Q330 750 356 750Z" glyph-name="caronSlovak" horiz-adv-x="530" unicode="&#58387;" /><glyph d="M206 546Q181 546 168 554Q155 562 142 577L51 676Q39 690 36.5 703.5Q34 717 38.5 727.5Q43 738 52.5 744Q62 750 74 750H132Q152 750 166.5 741.5Q181 733 198 715L240 670L282 715Q299 733 313.5 741.5Q328 750 348 750H406Q418 750 427.5 744Q437 738 441.5 727.5Q446 717 443.5 703.5Q441 690 429 676L338 577Q325 562 312 554Q299 546 274 546ZM208 250Q208 191 233.5 168Q259 145 307 145Q320 145 330 146.5Q340 148 346 149Q375 155 392 141.5Q409 128 409 104V52Q409 28 398 13.5Q387 -1 361 -6Q344 -11 321.5 -13.5Q299 -16 270 -16Q201 -16 153 1.5Q105 19 75 53Q45 87 31 136.5Q17 186 17 250Q17 314 31 363.5Q45 413 75 447Q105 481 153 498.5Q201 516 270 516Q299 516 321.5 513.5Q344 511 361 506Q387 501 398 486.5Q409 472 409 448V396Q409 372 392 358.5Q375 345 346 351Q340 352 330 353.5Q320 355 307 355Q259 355 233.5 332Q208 309 208 250Z" glyph-name="ccaron" horiz-adv-x="428" unicode="&#269;" /><glyph d="M236 546Q211 546 198 554Q185 562 172 577L81 676Q69 690 66.5 703.5Q64 717 68.5 727.5Q73 738 82.5 744Q92 750 104 750H162Q182 750 196.5 741.5Q211 733 228 715L270 670L312 715Q329 733 343.5 741.5Q358 750 378 750H436Q448 750 457.5 744Q467 738 471.5 727.5Q476 717 473.5 703.5Q471 690 459 676L368 577Q355 562 342 554Q329 546 304 546ZM32 250Q32 377 95.5 446.5Q159 516 300 516Q337 516 368 512Q399 508 419 502Q444 495 457 481.5Q470 468 470 442V384Q470 358 451 344.5Q432 331 400 339Q388 342 370 344.5Q352 347 328 347Q278 347 251 324Q224 301 224 250Q224 199 251 176Q278 153 328 153Q352 153 370 155.5Q388 158 400 161Q432 169 451 155.5Q470 142 470 116V58Q470 32 457 18.5Q444 5 419 -2Q399 -8 368 -12Q337 -16 300 -16Q159 -16 95.5 53Q32 122 32 250Z" glyph-name="ccaron.smcp" horiz-adv-x="505" unicode="&#57910;" /><glyph d="M215 -147Q267 -147 267 -122Q267 -100 232 -92Q210 -87 202 -74.5Q194 -62 196 -39L199 -10Q101 6 59 73Q17 140 17 250Q17 314 31 363.5Q45 413 75 447Q105 481 153 498.5Q201 516 270 516Q299 516 321.5 513.5Q344 511 361 506Q387 501 398 486.5Q409 472 409 448V396Q409 372 392 358.5Q375 345 346 351Q340 352 330 353.5Q320 355 307 355Q259 355 233.5 332Q208 309 208 250Q208 191 233.5 168Q259 145 307 145Q320 145 330 146.5Q340 148 346 149Q375 155 392 141.5Q409 128 409 104V52Q409 28 398 13.5Q387 -1 361 -6Q345 -10 326 -12.5Q307 -15 283 -16L284 -37Q284 -46 293 -49Q338 -61 362 -85.5Q386 -110 386 -145Q386 -200 345 -225Q304 -250 240 -250Q208 -250 194 -247.5Q180 -245 171 -243Q154 -239 145 -225.5Q136 -212 136 -193V-188Q136 -168 146.5 -155.5Q157 -143 175 -143Q182 -143 194 -145Q206 -147 215 -147Z" glyph-name="ccedilla" horiz-adv-x="428" unicode="&#231;" /><glyph d="M245 -147Q297 -147 297 -122Q297 -100 262 -92Q240 -87 232 -74.5Q224 -62 226 -39L229 -10Q125 7 78.5 73Q32 139 32 250Q32 377 95.5 446.5Q159 516 300 516Q337 516 368 512Q399 508 419 502Q444 495 457 481.5Q470 468 470 442V384Q470 358 451 344.5Q432 331 400 339Q388 342 370 344.5Q352 347 328 347Q278 347 251 324Q224 301 224 250Q224 199 251 176Q278 153 328 153Q352 153 370 155.5Q388 158 400 161Q432 169 451 155.5Q470 142 470 116V58Q470 32 457 18.5Q444 5 419 -2Q401 -7 373 -11Q345 -15 313 -16L314 -37Q314 -46 323 -49Q368 -61 392 -85.5Q416 -110 416 -145Q416 -200 375 -225Q334 -250 270 -250Q238 -250 224 -247.5Q210 -245 201 -243Q184 -239 175 -225.5Q166 -212 166 -193V-188Q166 -168 176.5 -155.5Q187 -143 205 -143Q212 -143 224 -145Q236 -147 245 -147Z" glyph-name="ccedilla.smcp" horiz-adv-x="505" unicode="&#57912;" /><glyph d="M274 750Q299 750 312 742Q325 734 338 719L429 620Q441 606 443.5 592.5Q446 579 441.5 568.5Q437 558 427.5 552Q418 546 406 546H348Q328 546 313.5 554.5Q299 563 282 581L240 626L198 581Q181 563 166.5 554.5Q152 546 132 546H74Q62 546 52.5 552Q43 558 38.5 568.5Q34 579 36.5 592.5Q39 606 51 620L142 719Q155 734 168 742Q181 750 206 750ZM208 250Q208 191 233.5 168Q259 145 307 145Q320 145 330 146.5Q340 148 346 149Q375 155 392 141.5Q409 128 409 104V52Q409 28 398 13.5Q387 -1 361 -6Q344 -11 321.5 -13.5Q299 -16 270 -16Q201 -16 153 1.5Q105 19 75 53Q45 87 31 136.5Q17 186 17 250Q17 314 31 363.5Q45 413 75 447Q105 481 153 498.5Q201 516 270 516Q299 516 321.5 513.5Q344 511 361 506Q387 501 398 486.5Q409 472 409 448V396Q409 372 392 358.5Q375 345 346 351Q340 352 330 353.5Q320 355 307 355Q259 355 233.5 332Q208 309 208 250Z" glyph-name="ccircumflex" horiz-adv-x="428" unicode="&#265;" /><glyph d="M304 750Q329 750 342 742Q355 734 368 719L459 620Q471 606 473.5 592.5Q476 579 471.5 568.5Q467 558 457.5 552Q448 546 436 546H378Q358 546 343.5 554.5Q329 563 312 581L270 626L228 581Q211 563 196.5 554.5Q182 546 162 546H104Q92 546 82.5 552Q73 558 68.5 568.5Q64 579 66.5 592.5Q69 606 81 620L172 719Q185 734 198 742Q211 750 236 750ZM32 250Q32 377 95.5 446.5Q159 516 300 516Q337 516 368 512Q399 508 419 502Q444 495 457 481.5Q470 468 470 442V384Q470 358 451 344.5Q432 331 400 339Q388 342 370 344.5Q352 347 328 347Q278 347 251 324Q224 301 224 250Q224 199 251 176Q278 153 328 153Q352 153 370 155.5Q388 158 400 161Q432 169 451 155.5Q470 142 470 116V58Q470 32 457 18.5Q444 5 419 -2Q399 -8 368 -12Q337 -16 300 -16Q159 -16 95.5 53Q32 122 32 250Z" glyph-name="ccircumflex.smcp" horiz-adv-x="505" unicode="&#57909;" /><glyph d="M208 250Q208 191 233.5 168Q259 145 307 145Q320 145 330 146.5Q340 148 346 149Q375 155 392 141.5Q409 128 409 104V52Q409 28 398 13.5Q387 -1 361 -6Q344 -11 321.5 -13.5Q299 -16 270 -16Q201 -16 153 1.5Q105 19 75 53Q45 87 31 136.5Q17 186 17 250Q17 314 31 363.5Q45 413 75 447Q105 481 153 498.5Q201 516 270 516Q299 516 321.5 513.5Q344 511 361 506Q387 501 398 486.5Q409 472 409 448V396Q409 372 392 358.5Q375 345 346 351Q340 352 330 353.5Q320 355 307 355Q259 355 233.5 332Q208 309 208 250ZM130 648Q130 671 138.5 691Q147 711 162 726Q177 741 197 749.5Q217 758 240 758Q263 758 283 749.5Q303 741 318 726Q333 711 341.5 691Q350 671 350 648Q350 625 341.5 605Q333 585 318 570Q303 555 283 546.5Q263 538 240 538Q217 538 197 546.5Q177 555 162 570Q147 585 138.5 605Q130 625 130 648Z" glyph-name="cdotaccent" horiz-adv-x="428" unicode="&#267;" /><glyph d="M32 250Q32 377 95.5 446.5Q159 516 300 516Q337 516 368 512Q399 508 419 502Q444 495 457 481.5Q470 468 470 442V384Q470 358 451 344.5Q432 331 400 339Q388 342 370 344.5Q352 347 328 347Q278 347 251 324Q224 301 224 250Q224 199 251 176Q278 153 328 153Q352 153 370 155.5Q388 158 400 161Q432 169 451 155.5Q470 142 470 116V58Q470 32 457 18.5Q444 5 419 -2Q399 -8 368 -12Q337 -16 300 -16Q159 -16 95.5 53Q32 122 32 250ZM160 648Q160 671 168.5 691Q177 711 192 726Q207 741 227 749.5Q247 758 270 758Q293 758 313 749.5Q333 741 348 726Q363 711 371.5 691Q380 671 380 648Q380 625 371.5 605Q363 585 348 570Q333 555 313 546.5Q293 538 270 538Q247 538 227 546.5Q207 555 192 570Q177 585 168.5 605Q160 625 160 648Z" glyph-name="cdotaccent.smcp" horiz-adv-x="505" unicode="&#57911;" /><glyph d="M240 -147Q292 -147 292 -122Q292 -100 257 -92Q235 -87 227 -74.5Q219 -62 221 -39L225 0H307L309 -37Q309 -46 318 -49Q363 -61 387 -85.5Q411 -110 411 -145Q411 -200 370 -225Q329 -250 265 -250Q233 -250 219 -247.5Q205 -245 196 -243Q179 -239 170 -225.5Q161 -212 161 -193V-188Q161 -168 171.5 -155.5Q182 -143 200 -143Q207 -143 219 -145Q231 -147 240 -147Z" glyph-name="cedilla" horiz-adv-x="530" unicode="&#184;" /><glyph d="M221 375Q221 323 249 298Q277 273 337 273Q361 273 380.5 276.5Q400 280 412 283Q444 291 463 277.5Q482 264 482 238V186Q482 137 431 123Q412 117 378.5 112Q345 107 288 109L260 28Q255 13 245.5 6.5Q236 0 219 0H146Q126 0 118 14.5Q110 29 119 49L159 135Q93 164 61.5 224Q30 284 31 375Q30 500 90 567Q150 634 278 640L307 722Q312 737 321.5 743.5Q331 750 348 750H421Q441 750 449 735.5Q457 721 448 701L415 631L431 627Q482 613 482 564V512Q482 486 463 472.5Q444 459 412 467Q400 470 380.5 473.5Q361 477 337 477Q277 477 249 452Q221 427 221 375Z" glyph-name="cent" horiz-adv-x="513" unicode="&#162;" /><glyph d="M221 375Q221 323 249 298Q277 273 337 273Q361 273 380.5 276.5Q400 280 412 283Q444 291 463 277.5Q482 264 482 238V186Q482 137 431 123Q412 117 378.5 112Q345 107 288 109L260 28Q255 13 245.5 6.5Q236 0 219 0H146Q126 0 118 14.5Q110 29 119 49L159 135Q93 164 61.5 224Q30 284 31 375Q30 500 90 567Q150 634 278 640L307 722Q312 737 321.5 743.5Q331 750 348 750H421Q441 750 449 735.5Q457 721 448 701L415 631L431 627Q482 613 482 564V512Q482 486 463 472.5Q444 459 412 467Q400 470 380.5 473.5Q361 477 337 477Q277 477 249 452Q221 427 221 375Z" glyph-name="cent.LP" horiz-adv-x="513" unicode="&#58659;" /><glyph d="M221 250Q221 198 249 173Q277 148 337 148Q361 148 380.5 151.5Q400 155 412 158Q444 166 463 152.5Q482 139 482 113V61Q482 12 431 -2Q412 -7 378.5 -12Q345 -17 288 -15L260 -97Q255 -112 245.5 -118.5Q236 -125 219 -125H146Q126 -125 118 -110.5Q110 -96 119 -76L159 10Q93 39 61.5 99Q30 159 31 250Q30 375 90 442Q150 509 279 515L307 596Q312 611 321.5 617.5Q331 624 348 624H421Q441 624 449 609.5Q457 595 448 575L416 506Q421 504 431 502Q482 488 482 439V387Q482 361 463 347.5Q444 334 412 342Q400 345 380.5 348.5Q361 352 337 352Q277 352 249 327Q221 302 221 250Z" glyph-name="cent.OP" horiz-adv-x="513" /><glyph d="M221 313Q221 261 249 236Q277 211 337 211Q361 211 380.5 214.5Q400 218 412 221Q444 229 463 215.5Q482 202 482 176V124Q482 75 431 61Q412 55 378.5 50Q345 45 288 47L260 -34Q255 -49 245.5 -55.5Q236 -62 219 -62H146Q126 -62 118 -47.5Q110 -33 119 -13L159 73Q93 102 61.5 162Q30 222 31 313Q30 438 90 505Q150 572 279 578L307 659Q312 674 321.5 680.5Q331 687 348 687H421Q441 687 449 672.5Q457 658 448 638L416 569Q421 567 431 565Q482 551 482 502V450Q482 424 463 410.5Q444 397 412 405Q400 408 380.5 411.5Q361 415 337 415Q277 415 249 390Q221 365 221 313Z" glyph-name="cent.hybrid" horiz-adv-x="513" /><glyph d="M299 750Q324 750 337 742Q350 734 363 719L454 620Q466 606 468.5 592.5Q471 579 466.5 568.5Q462 558 452.5 552Q443 546 431 546H373Q353 546 338.5 554.5Q324 563 307 581L265 626L223 581Q206 563 191.5 554.5Q177 546 157 546H99Q87 546 77.5 552Q68 558 63.5 568.5Q59 579 61.5 592.5Q64 606 76 620L167 719Q180 734 193 742Q206 750 231 750Z" glyph-name="circumflex" horiz-adv-x="530" unicode="&#710;" /><glyph d="M327 910Q355 910 370.5 901.5Q386 893 403 881L447 849Q457 841 461.5 830.5Q466 820 464 810Q462 800 454.5 793Q447 786 433 786H362Q333 786 316.5 792Q300 798 280 814L265 826L250 814Q230 798 213.5 792Q197 786 168 786H97Q83 786 75.5 793Q68 800 66 810Q64 820 68.5 830.5Q73 841 83 849L127 881Q144 893 159.5 901.5Q175 910 203 910Z" glyph-name="circumflex.cap" horiz-adv-x="530" unicode="&#58403;" /><glyph d="M451 307Q454 262 459.5 226Q465 190 474 159.5Q483 129 496.5 101.5Q510 74 530 47Q542 30 534.5 15Q527 0 510 0H354Q337 0 329.5 15Q322 30 334 47Q354 74 367.5 101.5Q381 129 390 159.5Q399 190 404.5 226Q410 262 413 307L410 308Q398 278 380 250Q362 222 338 200.5Q314 179 284 166Q254 153 218 153Q182 153 151 166Q120 179 97 201.5Q74 224 61 254.5Q48 285 48 321Q48 358 60 390Q72 422 94.5 445Q117 468 147.5 481Q178 494 216 494Q241 494 260.5 487.5Q280 481 297 472L299 474Q283 498 272.5 526.5Q262 555 262 587Q262 623 275 654.5Q288 686 310.5 709.5Q333 733 364 746.5Q395 760 432 760Q469 760 500 746.5Q531 733 553.5 709.5Q576 686 589 654.5Q602 623 602 587Q602 555 591.5 526.5Q581 498 565 474L567 472Q584 481 603.5 487.5Q623 494 648 494Q685 494 716 481Q747 468 769.5 445Q792 422 804 390Q816 358 816 321Q816 285 803 254.5Q790 224 767 201.5Q744 179 713 166Q682 153 646 153Q610 153 580 166Q550 179 526 200.5Q502 222 484 250Q466 278 454 308Z" glyph-name="club" horiz-adv-x="864" unicode="&#9827;" /><glyph d="M20 390Q20 413 28.5 433Q37 453 52 468Q67 483 87 491.5Q107 500 130 500Q153 500 173 491.5Q193 483 208 468Q223 453 231.5 433Q240 413 240 390Q240 367 231.5 347Q223 327 208 312Q193 297 173 288.5Q153 280 130 280Q107 280 87 288.5Q67 297 52 312Q37 327 28.5 347Q20 367 20 390ZM20 94Q20 117 28.5 137Q37 157 52 172Q67 187 87 195.5Q107 204 130 204Q153 204 173 195.5Q193 187 208 172Q223 157 231.5 137Q240 117 240 94Q240 71 231.5 51Q223 31 208 16Q193 1 173 -7.5Q153 -16 130 -16Q107 -16 87 -7.5Q67 1 52 16Q37 31 28.5 51Q20 71 20 94Z" glyph-name="colon" horiz-adv-x="260" unicode=":" /><glyph d="M174 175Q216 175 228 152Q240 129 226 95L158 -72Q145 -103 129.5 -114Q114 -125 85 -125H61Q32 -125 17.5 -108.5Q3 -92 6 -64L27 117Q30 146 49 160.5Q68 175 96 175Z" glyph-name="comma" horiz-adv-x="260" unicode="," /><glyph d="M300 -46Q342 -46 355 -69.5Q368 -93 352 -126L318 -197Q310 -213 303 -223.5Q296 -234 287.5 -240Q279 -246 269 -248Q259 -250 245 -250H213Q184 -250 169 -235Q154 -220 158 -189L169 -104Q173 -73 191.5 -59.5Q210 -46 238 -46Z" glyph-name="commaaccent" horiz-adv-x="530" unicode="&#58388;" /><glyph d="M196 313Q196 413 245 462.5Q294 512 397 512Q425 512 445 509Q465 506 482 502Q524 492 524 451V416Q524 395 511.5 384Q499 373 471 379Q461 381 446 383.5Q431 386 418 386Q383 386 361.5 369.5Q340 353 340 313Q340 273 361.5 256.5Q383 240 418 240Q431 240 446 242.5Q461 245 471 247Q499 253 511.5 242Q524 231 524 210V175Q524 134 482 124Q465 120 445 117Q425 114 397 114Q294 114 245 163.5Q196 213 196 313ZM389 63Q441 63 487.5 76.5Q534 90 569 119.5Q604 149 624.5 196.5Q645 244 645 312Q645 380 624.5 427.5Q604 475 569 505Q534 535 487.5 548.5Q441 562 389 562Q336 562 289 548.5Q242 535 207 505Q172 475 151.5 427.5Q131 380 131 312Q131 244 151.5 196.5Q172 149 207 119.5Q242 90 289 76.5Q336 63 389 63ZM387 -14Q319 -14 258 3.5Q197 21 151 60Q105 99 78 161Q51 223 51 312Q51 402 78 464Q105 526 151 565Q197 604 258 621.5Q319 639 387 639Q456 639 517.5 621.5Q579 604 625 565Q671 526 698 464Q725 402 725 312Q725 223 698 161Q671 99 625 60Q579 21 517.5 3.5Q456 -14 387 -14Z" glyph-name="copyright" horiz-adv-x="776" unicode="&#169;" /><glyph d="M15 564Q15 661 60.5 713.5Q106 766 210 766Q230 766 248.5 764.5Q267 763 279 761Q294 758 304.5 748Q315 738 315 721V665Q315 648 305 638Q295 628 272 632Q262 634 246 634Q207 634 187.5 617.5Q168 601 168 564Q168 527 187.5 510.5Q207 494 246 494Q262 494 272 496Q295 500 305 490Q315 480 315 463V407Q315 390 304.5 380Q294 370 279 367Q267 365 248.5 363.5Q230 362 210 362Q106 362 60.5 414.5Q15 467 15 564Z" glyph-name="cordinal" horiz-adv-x="337" unicode="&#57729;" /><glyph d="M181 563Q181 523 202.5 508.5Q224 494 267 494Q283 494 294.5 495.5Q306 497 312 498Q335 502 345.5 491.5Q356 481 356 461V412Q356 392 349 381Q342 370 325 366Q314 364 291.5 362Q269 360 237 360Q122 360 72.5 412Q23 464 23 563Q23 662 72.5 714Q122 766 237 766Q269 766 291.5 764Q314 762 325 760Q342 756 349 745Q356 734 356 714V665Q356 645 345.5 634.5Q335 624 312 628Q306 629 294.5 630.5Q283 632 267 632Q224 632 202.5 617.5Q181 603 181 563Z" glyph-name="cordinal.smcp" horiz-adv-x="386" unicode="&#58195;" /><glyph d="M502 375Q502 439 476 465.5Q450 492 400 492Q349 492 323.5 465.5Q298 439 298 375Q298 311 323.5 284.5Q349 258 400 258Q450 258 476 284.5Q502 311 502 375ZM696 375Q696 287 662 222L743 141Q792 92 742 44L724 26Q676 -24 627 25L543 109Q509 93 477 85Q445 77 400 77Q355 77 323 85Q291 93 257 109L173 25Q124 -24 76 26L58 44Q8 92 57 141L138 222Q104 287 104 375Q104 463 138 528L57 609Q8 658 58 706L76 724Q124 774 173 725L257 641Q291 657 323 665Q355 673 400 673Q445 673 477 665Q509 657 543 641L627 725Q676 774 724 724L742 706Q792 658 743 609L662 528Q696 463 696 375Z" glyph-name="currency" horiz-adv-x="800" unicode="&#164;" /><glyph d="M327 352Q325 354 309.5 360.5Q294 367 274 367Q235 367 222 340Q209 313 209 250Q209 186 222 159Q235 132 274 132Q294 132 309.5 138.5Q325 145 327 147ZM372 33Q340 12 302.5 -2Q265 -16 214 -16Q116 -16 66.5 45Q17 106 17 250Q17 394 66.5 455Q116 516 214 516Q248 516 276 508.5Q304 501 327 489V697Q327 751 380 751H470Q523 751 523 698V53Q523 0 470 0H427Q401 0 390 10Q379 20 372 33Z" glyph-name="d" horiz-adv-x="555" unicode="d" /><glyph d="M275 150Q317 150 332 176Q347 202 347 250Q347 298 332 324Q317 350 275 350H242V150ZM46 432Q46 500 115 500H291Q362 500 410 481.5Q458 463 487.5 430Q517 397 530 351Q543 305 543 250Q543 195 530 149Q517 103 487.5 70Q458 37 410 18.5Q362 0 291 0H115Q46 0 46 68Z" glyph-name="d.smcp" horiz-adv-x="573" unicode="&#57860;" /><glyph d="M124 465Q124 433 129.5 423.5Q135 414 146 414Q151 414 156.5 415.5Q162 417 165 419V511Q157 515 146 515Q135 515 129.5 505.5Q124 496 124 465ZM165 685Q165 715 195 715H255Q285 715 285 685V370Q285 340 255 340H224Q209 340 202 345.5Q195 351 191 361Q173 345 152 338Q131 331 111 331Q59 331 32.5 360.5Q6 390 6 465Q6 540 32.5 569.5Q59 599 111 599Q125 599 139 596.5Q153 594 165 589Z" glyph-name="d.superior" horiz-adv-x="313" unicode="&#58212;" /><glyph d="M13 590Q13 617 30 632Q47 647 74 643L127 635L120 689Q116 715 131 732.5Q146 750 173 750H257Q284 750 298.5 732.5Q313 715 310 689L302 635L356 643Q382 647 399.5 632Q417 617 417 590V506Q417 479 399.5 464Q382 449 356 453L302 461L320 311Q324 285 309 267.5Q294 250 267 250H163Q136 250 121.5 267.5Q107 285 110 311L128 461L74 453Q48 449 30.5 464Q13 479 13 506Z" glyph-name="dagger" horiz-adv-x="430" unicode="&#8224;" /><glyph d="M13 590Q13 617 30 632Q47 647 74 643L127 635L120 689Q116 715 131 732.5Q146 750 173 750H257Q284 750 298.5 732.5Q313 715 310 689L302 635L356 643Q382 647 399.5 632Q417 617 417 590V506Q417 479 399.5 464Q382 449 356 453L301 461Q305 447 306 438.5Q307 430 307 423Q307 416 306 407.5Q305 399 301 385L356 393Q382 397 399.5 382Q417 367 417 340V256Q417 229 399.5 214Q382 199 356 203L302 211L320 61Q324 35 309 17.5Q294 0 267 0H163Q136 0 121.5 17.5Q107 35 110 61L128 211L74 203Q48 199 30.5 214Q13 229 13 256V340Q13 367 30 382Q47 397 74 393L129 385Q125 399 124 407.5Q123 416 123 423Q123 430 124 438.5Q125 447 129 461L74 453Q48 449 30.5 464Q13 479 13 506Z" glyph-name="daggerdbl" horiz-adv-x="430" unicode="&#8225;" /><glyph d="M630 750Q641 750 651.5 746.5Q662 743 669 735Q676 727 678 714Q680 701 674 682L644 591Q638 573 627 561.5Q616 550 595 550Q574 550 564.5 562.5Q555 575 557 595L565 698Q567 721 577.5 735.5Q588 750 614 750ZM327 352Q325 354 309.5 360.5Q294 367 274 367Q235 367 222 340Q209 313 209 250Q209 186 222 159Q235 132 274 132Q294 132 309.5 138.5Q325 145 327 147ZM372 33Q340 12 302.5 -2Q265 -16 214 -16Q116 -16 66.5 45Q17 106 17 250Q17 394 66.5 455Q116 516 214 516Q248 516 276 508.5Q304 501 327 489V697Q327 751 380 751H470Q523 751 523 698V53Q523 0 470 0H427Q401 0 390 10Q379 20 372 33Z" glyph-name="dcaron" horiz-adv-x="555" unicode="&#271;" /><glyph d="M275 150Q317 150 332 176Q347 202 347 250Q347 298 332 324Q317 350 275 350H242V150ZM236 546Q211 546 198 554Q185 562 172 577L81 676Q69 690 66.5 703.5Q64 717 68.5 727.5Q73 738 82.5 744Q92 750 104 750H162Q182 750 196.5 741.5Q211 733 228 715L270 670L312 715Q329 733 343.5 741.5Q358 750 378 750H436Q448 750 457.5 744Q467 738 471.5 727.5Q476 717 473.5 703.5Q471 690 459 676L368 577Q355 562 342 554Q329 546 304 546ZM46 432Q46 500 115 500H291Q362 500 410 481.5Q458 463 487.5 430Q517 397 530 351Q543 305 543 250Q543 195 530 149Q517 103 487.5 70Q458 37 410 18.5Q362 0 291 0H115Q46 0 46 68Z" glyph-name="dcaron.smcp" horiz-adv-x="573" unicode="&#57913;" /><glyph d="M327 352Q325 354 309.5 360.5Q294 367 274 367Q235 367 222 340Q209 313 209 250Q209 186 222 159Q235 132 274 132Q294 132 309.5 138.5Q325 145 327 147ZM523 546V53Q523 0 470 0H427Q401 0 390 10Q379 20 372 33Q340 12 302.5 -2Q265 -16 214 -16Q116 -16 66.5 45Q17 106 17 250Q17 394 66.5 455Q116 516 214 516Q248 516 276 508.5Q304 501 327 489V546H283Q252 546 238 560Q224 574 224 606V610Q224 642 238 656Q252 670 283 670H327V697Q327 751 380 751H470Q523 751 523 698V670H534Q565 670 579 656Q593 642 593 610V606Q593 574 579 560Q565 546 534 546Z" glyph-name="dcroat" horiz-adv-x="555" unicode="&#273;" /><glyph d="M295 150Q337 150 352 176Q367 202 367 250Q367 298 352 324Q337 350 295 350H262V313H267Q298 313 312 299Q326 285 326 253V249Q326 217 312 203Q298 189 267 189H262V150ZM66 189H64Q33 189 19 203Q5 217 5 249V253Q5 285 19 299Q33 313 64 313H66V432Q66 500 135 500H311Q382 500 430 481.5Q478 463 507.5 430Q537 397 550 351Q563 305 563 250Q563 195 550 149Q537 103 507.5 70Q478 37 430 18.5Q382 0 311 0H135Q66 0 66 68Z" glyph-name="dcroat.smcp" horiz-adv-x="593" unicode="&#57916;" /><glyph d="M173 600Q173 585 181.5 575Q190 565 213 565Q236 565 244.5 575Q253 585 253 600Q253 615 244.5 625Q236 635 213 635Q190 635 181.5 625Q173 615 173 600ZM390 600Q390 434 213 434Q36 434 36 600Q36 766 213 766Q390 766 390 600Z" glyph-name="degree" horiz-adv-x="426" unicode="&#176;" /><glyph d="M432 -10Q412 -10 401 -0.5Q390 9 383 23Q339 108 268 186Q197 264 104 330Q93 338 86 348Q79 358 79 375Q79 392 86 402Q93 412 104 420Q197 486 268 564Q339 642 383 727Q390 741 401 750.5Q412 760 432 760Q452 760 463 750.5Q474 741 481 727Q525 642 596 564Q667 486 760 420Q771 412 778 402Q785 392 785 375Q785 358 778 348Q771 338 760 330Q667 264 596 186Q525 108 481 23Q474 9 463 -0.5Q452 -10 432 -10Z" glyph-name="diamond" horiz-adv-x="864" unicode="&#9830;" /><glyph d="M280 648Q280 671 288.5 691Q297 711 312 726Q327 741 347 749.5Q367 758 390 758Q413 758 433 749.5Q453 741 468 726Q483 711 491.5 691Q500 671 500 648Q500 625 491.5 605Q483 585 468 570Q453 555 433 546.5Q413 538 390 538Q367 538 347 546.5Q327 555 312 570Q297 585 288.5 605Q280 625 280 648ZM30 648Q30 671 38.5 691Q47 711 62 726Q77 741 97 749.5Q117 758 140 758Q163 758 183 749.5Q203 741 218 726Q233 711 241.5 691Q250 671 250 648Q250 625 241.5 605Q233 585 218 570Q203 555 183 546.5Q163 538 140 538Q117 538 97 546.5Q77 555 62 570Q47 585 38.5 605Q30 625 30 648Z" glyph-name="dieresis" horiz-adv-x="530" unicode="&#168;" /><glyph d="M280 848Q280 871 288.5 885Q297 899 312 907Q327 915 347 917.5Q367 920 390 920Q413 920 433 917.5Q453 915 468 907Q483 899 491.5 885Q500 871 500 848Q500 825 491.5 811Q483 797 468 789Q453 781 433 778.5Q413 776 390 776Q367 776 347 778.5Q327 781 312 789Q297 797 288.5 811Q280 825 280 848ZM30 848Q30 871 38.5 885Q47 899 62 907Q77 915 97 917.5Q117 920 140 920Q163 920 183 917.5Q203 915 218 907Q233 899 241.5 885Q250 871 250 848Q250 825 241.5 811Q233 797 218 789Q203 781 183 778.5Q163 776 140 776Q117 776 97 778.5Q77 781 62 789Q47 797 38.5 811Q30 825 30 848Z" glyph-name="dieresis.cap" horiz-adv-x="530" unicode="&#58409;" /><glyph d="M560 303Q560 250 507 250H93Q40 250 40 303V378Q40 432 93 432H507Q560 432 560 378ZM190 562Q190 585 198.5 605Q207 625 222 640Q237 655 257 663.5Q277 672 300 672Q323 672 343 663.5Q363 655 378 640Q393 625 401.5 605Q410 585 410 562Q410 539 401.5 519Q393 499 378 484Q363 469 343 460.5Q323 452 300 452Q277 452 257 460.5Q237 469 222 484Q207 499 198.5 519Q190 539 190 562ZM190 120Q190 143 198.5 163Q207 183 222 198Q237 213 257 221.5Q277 230 300 230Q323 230 343 221.5Q363 213 378 198Q393 183 401.5 163Q410 143 410 120Q410 97 401.5 77Q393 57 378 42Q363 27 343 18.5Q323 10 300 10Q277 10 257 18.5Q237 27 222 42Q207 57 198.5 77Q190 97 190 120Z" glyph-name="divide" horiz-adv-x="600" unicode="&#247;" /><glyph d="M825 337Q825 284 772 284H128Q75 284 75 337V413Q75 466 128 466H772Q825 466 825 413ZM340 656Q340 679 348.5 699Q357 719 372 734Q387 749 407 757.5Q427 766 450 766Q473 766 493 757.5Q513 749 528 734Q543 719 551.5 699Q560 679 560 656Q560 633 551.5 613Q543 593 528 578Q513 563 493 554.5Q473 546 450 546Q427 546 407 554.5Q387 563 372 578Q357 593 348.5 613Q340 633 340 656ZM340 94Q340 117 348.5 137Q357 157 372 172Q387 187 407 195.5Q427 204 450 204Q473 204 493 195.5Q513 187 528 172Q543 157 551.5 137Q560 117 560 94Q560 71 551.5 51Q543 31 528 16Q513 1 493 -7.5Q473 -16 450 -16Q427 -16 407 -7.5Q387 1 372 16Q357 31 348.5 51Q340 71 340 94Z" glyph-name="divide.cap" horiz-adv-x="900" unicode="&#58772;" /><glyph d="M267 485Q220 485 220 463Q220 451 230.5 447Q241 443 262 441Q323 435 367 427Q411 419 439 402.5Q467 386 480 357Q493 328 493 282Q493 244 481.5 212.5Q470 181 442 157.5Q414 134 368.5 121Q323 108 255 108L227 28Q222 13 212.5 6.5Q203 0 186 0H113Q93 0 85 14.5Q77 29 86 49L119 120Q107 122 98 124Q89 126 82 128Q56 134 45 149Q34 164 34 190V237Q34 265 52.5 278.5Q71 292 101 284Q111 281 128 277Q145 273 165.5 269.5Q186 266 208 263.5Q230 261 250 262Q303 262 303 285Q303 298 292.5 302Q282 306 262 308Q199 313 155 322Q111 331 84 348.5Q57 366 44.5 394.5Q32 423 32 466Q32 546 85 593Q138 640 258 640L287 722Q292 737 301.5 743.5Q311 750 328 750H401Q421 750 429 735.5Q437 721 428 701L394 629Q404 627 412 625.5Q420 624 426 622Q452 615 463 600Q474 585 474 559V513Q474 485 455 472Q436 459 407 467Q384 472 344 478.5Q304 485 267 485Z" glyph-name="dollar" horiz-adv-x="523" unicode="$" /><glyph d="M267 485Q220 485 220 463Q220 451 230.5 447Q241 443 262 441Q323 435 367 427Q411 419 439 402.5Q467 386 480 357Q493 328 493 282Q493 244 481.5 212.5Q470 181 442 157.5Q414 134 368.5 121Q323 108 255 108L227 28Q222 13 212.5 6.5Q203 0 186 0H113Q93 0 85 14.5Q77 29 86 49L119 120Q107 122 98 124Q89 126 82 128Q56 134 45 149Q34 164 34 190V237Q34 265 52.5 278.5Q71 292 101 284Q111 281 128 277Q145 273 165.5 269.5Q186 266 208 263.5Q230 261 250 262Q303 262 303 285Q303 298 292.5 302Q282 306 262 308Q199 313 155 322Q111 331 84 348.5Q57 366 44.5 394.5Q32 423 32 466Q32 546 85 593Q138 640 258 640L287 722Q292 737 301.5 743.5Q311 750 328 750H401Q421 750 429 735.5Q437 721 428 701L394 629Q404 627 412 625.5Q420 624 426 622Q452 615 463 600Q474 585 474 559V513Q474 485 455 472Q436 459 407 467Q384 472 344 478.5Q304 485 267 485Z" glyph-name="dollar.LP" horiz-adv-x="523" unicode="&#58658;" /><glyph d="M267 360Q220 360 220 338Q220 326 230.5 322Q241 318 262 316Q323 310 367 302Q411 294 439 277.5Q467 261 480 232Q493 203 493 157Q493 119 481.5 87.5Q470 56 442 32.5Q414 9 368.5 -4Q323 -17 255 -17L227 -97Q222 -112 212.5 -118.5Q203 -125 186 -125H113Q93 -125 85 -110.5Q77 -96 86 -76L119 -5Q107 -3 98 -1Q89 1 82 3Q56 9 45 24Q34 39 34 65V112Q34 140 52.5 153.5Q71 167 101 159Q111 156 128 152Q145 148 165.5 144.5Q186 141 208 138.5Q230 136 250 137Q303 137 303 160Q303 173 292.5 177Q282 181 262 183Q199 188 155 197Q111 206 84 223.5Q57 241 44.5 269.5Q32 298 32 341Q32 421 85 468Q138 515 259 515L287 596Q292 611 301.5 617.5Q311 624 328 624H401Q421 624 429 609.5Q437 595 428 575L394 503L426 497Q452 490 463 475Q474 460 474 434V388Q474 360 455 347Q436 334 407 342Q384 347 344 353.5Q304 360 267 360Z" glyph-name="dollar.OP" horiz-adv-x="523" /><glyph d="M267 423Q220 423 220 401Q220 389 230.5 385Q241 381 262 379Q323 373 367 365Q411 357 439 340.5Q467 324 480 295Q493 266 493 220Q493 182 481.5 150.5Q470 119 442 95.5Q414 72 368.5 59Q323 46 255 46L227 -34Q222 -49 212.5 -55.5Q203 -62 186 -62H113Q93 -62 85 -47.5Q77 -33 86 -13L119 58Q107 60 98 62Q89 64 82 66Q56 72 45 87Q34 102 34 128V175Q34 203 52.5 216.5Q71 230 101 222Q111 219 128 215Q145 211 165.5 207.5Q186 204 208 201.5Q230 199 250 200Q303 200 303 223Q303 236 292.5 240Q282 244 262 246Q199 251 155 260Q111 269 84 286.5Q57 304 44.5 332.5Q32 361 32 404Q32 484 85 531Q138 578 259 578L287 659Q292 674 301.5 680.5Q311 687 328 687H401Q421 687 429 672.5Q437 658 428 638L394 566L426 560Q452 553 463 538Q474 523 474 497V451Q474 423 455 410Q436 397 407 405Q384 410 344 416.5Q304 423 267 423Z" glyph-name="dollar.hybrid" horiz-adv-x="523" /><glyph d="M155 648Q155 671 163.5 691Q172 711 187 726Q202 741 222 749.5Q242 758 265 758Q288 758 308 749.5Q328 741 343 726Q358 711 366.5 691Q375 671 375 648Q375 625 366.5 605Q358 585 343 570Q328 555 308 546.5Q288 538 265 538Q242 538 222 546.5Q202 555 187 570Q172 585 163.5 605Q155 625 155 648Z" glyph-name="dotaccent" horiz-adv-x="530" unicode="&#729;" /><glyph d="M155 848Q155 871 163.5 885Q172 899 187 907Q202 915 222 917.5Q242 920 265 920Q288 920 308 917.5Q328 915 343 907Q358 899 366.5 885Q375 871 375 848Q375 825 366.5 811Q358 797 343 789Q328 781 308 778.5Q288 776 265 776Q242 776 222 778.5Q202 781 187 789Q172 797 163.5 811Q155 825 155 848Z" glyph-name="dotaccent.cap" horiz-adv-x="530" unicode="&#58408;" /><glyph d="M34 447Q34 500 87 500H177Q230 500 230 447V178Q230 167 234.5 161.5Q239 156 250 151Q261 147 267 140Q273 133 273 116V42Q273 19 252 4.5Q231 -10 187 -10Q156 -10 128.5 -2.5Q101 5 80 22.5Q59 40 46.5 67Q34 94 34 133Z" glyph-name="dotlessi" horiz-adv-x="284" unicode="&#305;" /><glyph d="M235 -60Q235 -113 219 -151.5Q203 -190 174.5 -214.5Q146 -239 107.5 -251Q69 -263 23 -263Q-54 -263 -54 -208V-147Q-54 -129 -43.5 -117Q-33 -105 -10 -103Q10 -101 24.5 -89Q39 -77 39 -49V447Q39 500 92 500H182Q235 500 235 447Z" glyph-name="dotlessj" horiz-adv-x="273" unicode="&#567;" /><glyph d="M289 732Q289 800 358 800H416Q485 800 485 732V-132Q485 -200 416 -200H358Q289 -200 289 -132ZM43 732Q43 800 112 800H170Q239 800 239 732V-132Q239 -200 170 -200H112Q43 -200 43 -132Z" glyph-name="doublebar" horiz-adv-x="461" unicode="&#8214;" /><glyph d="M325 750Q380 750 394 692L415 607Q422 579 408.5 562.5Q395 546 366 546H350Q336 546 325.5 548.5Q315 551 306.5 556.5Q298 562 290 571Q282 580 272 593L213 670Q202 684 199 698Q196 712 200.5 723.5Q205 735 217 742.5Q229 750 250 750ZM125 750Q180 750 194 692L215 607Q222 579 208.5 562.5Q195 546 166 546H150Q136 546 125.5 548.5Q115 551 106.5 556.5Q98 562 90 571Q82 580 72 593L13 670Q2 684 -1 698Q-4 712 0.5 723.5Q5 735 17 742.5Q29 750 50 750Z" glyph-name="doublegrave" horiz-adv-x="530" unicode="&#58386;" /><glyph d="M355 910Q383 910 396.5 901.5Q410 893 421 864L428 845Q437 821 426 803.5Q415 786 386 786H324Q295 786 281 794Q267 802 253 817L236 836Q226 847 222.5 860Q219 873 223 884Q227 895 237.5 902.5Q248 910 265 910ZM145 910Q173 910 186.5 901.5Q200 893 211 864L218 845Q227 821 216 803.5Q205 786 176 786H114Q85 786 71 794Q57 802 43 817L26 836Q16 847 12.5 860Q9 873 13 884Q17 895 27.5 902.5Q38 910 55 910Z" glyph-name="doublegrave.cap" horiz-adv-x="530" unicode="&#58412;" /><glyph d="M269 384Q236 384 213.5 361.5Q191 339 192 294H329Q334 338 318.5 361Q303 384 269 384ZM298 126Q343 126 373.5 131.5Q404 137 424 142Q454 149 470 134Q486 119 486 96V63Q486 43 478.5 29.5Q471 16 450 8Q426 0 379 -8Q332 -16 275 -16Q206 -16 157 0Q108 16 77 49Q46 82 31.5 132Q17 182 17 250Q17 387 78 451.5Q139 516 269 516Q338 516 382 497Q426 478 451.5 445.5Q477 413 487 370.5Q497 328 497 280V247Q497 194 444 194H192Q190 158 215 142Q240 126 298 126Z" glyph-name="e" horiz-adv-x="517" unicode="e" /><glyph d="M46 432Q46 500 115 500H420Q488 500 488 432V421Q488 352 420 352H242V301H415Q460 301 460 256V243Q460 199 415 199H242V148H420Q488 148 488 79V68Q488 0 420 0H115Q46 0 46 68Z" glyph-name="e.smcp" horiz-adv-x="528" unicode="&#57861;" /><glyph d="M144 520Q131 520 124.5 514Q118 508 116 488H165Q167 508 160.5 514Q154 520 144 520ZM149 331Q108 331 80.5 339Q53 347 36.5 363.5Q20 380 13 405.5Q6 431 6 465Q6 534 37 566.5Q68 599 143 599Q183 599 208 589Q233 579 247.5 562.5Q262 546 267.5 523.5Q273 501 273 476V467Q273 437 243 437H118Q118 426 126 421Q134 416 161 416Q181 416 201.5 419Q222 422 234 424Q249 428 257 420.5Q265 413 265 401V372Q265 361 261 354Q257 347 246 343Q231 338 204.5 334.5Q178 331 149 331Z" glyph-name="e.superior" horiz-adv-x="287" unicode="&#58213;" /><glyph d="M269 384Q236 384 213.5 361.5Q191 339 192 294H329Q334 338 318.5 361Q303 384 269 384ZM298 126Q343 126 373.5 131.5Q404 137 424 142Q454 149 470 134Q486 119 486 96V63Q486 43 478.5 29.5Q471 16 450 8Q426 0 379 -8Q332 -16 275 -16Q206 -16 157 0Q108 16 77 49Q46 82 31.5 132Q17 182 17 250Q17 387 78 451.5Q139 516 269 516Q338 516 382 497Q426 478 451.5 445.5Q477 413 487 370.5Q497 328 497 280V247Q497 194 444 194H192Q190 158 215 142Q240 126 298 126ZM377 750Q398 750 410 742.5Q422 735 426.5 723.5Q431 712 427.5 698Q424 684 414 670L355 593Q335 567 320 556.5Q305 546 277 546H261Q232 546 218.5 562.5Q205 579 212 607L233 692Q247 750 302 750Z" glyph-name="eacute" horiz-adv-x="517" unicode="&#233;" /><glyph d="M46 432Q46 500 115 500H420Q488 500 488 432V421Q488 352 420 352H242V301H415Q460 301 460 256V243Q460 199 415 199H242V148H420Q488 148 488 79V68Q488 0 420 0H115Q46 0 46 68ZM392 750Q413 750 425 742.5Q437 735 441.5 723.5Q446 712 442.5 698Q439 684 429 670L370 593Q350 567 335 556.5Q320 546 292 546H276Q247 546 233.5 562.5Q220 579 227 607L248 692Q262 750 317 750Z" glyph-name="eacute.smcp" horiz-adv-x="528" unicode="&#57917;" /><glyph d="M269 384Q236 384 213.5 361.5Q191 339 192 294H329Q334 338 318.5 361Q303 384 269 384ZM298 126Q343 126 373.5 131.5Q404 137 424 142Q454 149 470 134Q486 119 486 96V63Q486 43 478.5 29.5Q471 16 450 8Q426 0 379 -8Q332 -16 275 -16Q206 -16 157 0Q108 16 77 49Q46 82 31.5 132Q17 182 17 250Q17 387 78 451.5Q139 516 269 516Q338 516 382 497Q426 478 451.5 445.5Q477 413 487 370.5Q497 328 497 280V247Q497 194 444 194H192Q190 158 215 142Q240 126 298 126ZM262 546Q70 546 52 694Q49 720 61 735Q73 750 96 750H133Q154 750 164.5 741Q175 732 180 715Q187 690 205.5 680Q224 670 262 670Q300 670 318.5 680Q337 690 344 715Q349 732 359.5 741Q370 750 391 750H428Q451 750 463 735Q475 720 472 694Q454 546 262 546Z" glyph-name="ebreve" horiz-adv-x="517" unicode="&#277;" /><glyph d="M46 432Q46 500 115 500H420Q488 500 488 432V421Q488 352 420 352H242V301H415Q460 301 460 256V243Q460 199 415 199H242V148H420Q488 148 488 79V68Q488 0 420 0H115Q46 0 46 68ZM277 546Q85 546 67 694Q64 720 76 735Q88 750 111 750H148Q169 750 179.5 741Q190 732 195 715Q202 690 220.5 680Q239 670 277 670Q315 670 333.5 680Q352 690 359 715Q364 732 374.5 741Q385 750 406 750H443Q466 750 478 735Q490 720 487 694Q469 546 277 546Z" glyph-name="ebreve.smcp" horiz-adv-x="528" unicode="&#57923;" /><glyph d="M269 384Q236 384 213.5 361.5Q191 339 192 294H329Q334 338 318.5 361Q303 384 269 384ZM228 546Q203 546 190 554Q177 562 164 577L73 676Q61 690 58.5 703.5Q56 717 60.5 727.5Q65 738 74.5 744Q84 750 96 750H154Q174 750 188.5 741.5Q203 733 220 715L262 670L304 715Q321 733 335.5 741.5Q350 750 370 750H428Q440 750 449.5 744Q459 738 463.5 727.5Q468 717 465.5 703.5Q463 690 451 676L360 577Q347 562 334 554Q321 546 296 546ZM298 126Q343 126 373.5 131.5Q404 137 424 142Q454 149 470 134Q486 119 486 96V63Q486 43 478.5 29.5Q471 16 450 8Q426 0 379 -8Q332 -16 275 -16Q206 -16 157 0Q108 16 77 49Q46 82 31.5 132Q17 182 17 250Q17 387 78 451.5Q139 516 269 516Q338 516 382 497Q426 478 451.5 445.5Q477 413 487 370.5Q497 328 497 280V247Q497 194 444 194H192Q190 158 215 142Q240 126 298 126Z" glyph-name="ecaron" horiz-adv-x="517" unicode="&#283;" /><glyph d="M243 546Q218 546 205 554Q192 562 179 577L88 676Q76 690 73.5 703.5Q71 717 75.5 727.5Q80 738 89.5 744Q99 750 111 750H169Q189 750 203.5 741.5Q218 733 235 715L277 670L319 715Q336 733 350.5 741.5Q365 750 385 750H443Q455 750 464.5 744Q474 738 478.5 727.5Q483 717 480.5 703.5Q478 690 466 676L375 577Q362 562 349 554Q336 546 311 546ZM46 432Q46 500 115 500H420Q488 500 488 432V421Q488 352 420 352H242V301H415Q460 301 460 256V243Q460 199 415 199H242V148H420Q488 148 488 79V68Q488 0 420 0H115Q46 0 46 68Z" glyph-name="ecaron.smcp" horiz-adv-x="528" unicode="&#57921;" /><glyph d="M269 384Q236 384 213.5 361.5Q191 339 192 294H329Q334 338 318.5 361Q303 384 269 384ZM296 750Q321 750 334 742Q347 734 360 719L451 620Q463 606 465.5 592.5Q468 579 463.5 568.5Q459 558 449.5 552Q440 546 428 546H370Q350 546 335.5 554.5Q321 563 304 581L262 626L220 581Q203 563 188.5 554.5Q174 546 154 546H96Q84 546 74.5 552Q65 558 60.5 568.5Q56 579 58.5 592.5Q61 606 73 620L164 719Q177 734 190 742Q203 750 228 750ZM298 126Q343 126 373.5 131.5Q404 137 424 142Q454 149 470 134Q486 119 486 96V63Q486 43 478.5 29.5Q471 16 450 8Q426 0 379 -8Q332 -16 275 -16Q206 -16 157 0Q108 16 77 49Q46 82 31.5 132Q17 182 17 250Q17 387 78 451.5Q139 516 269 516Q338 516 382 497Q426 478 451.5 445.5Q477 413 487 370.5Q497 328 497 280V247Q497 194 444 194H192Q190 158 215 142Q240 126 298 126Z" glyph-name="ecircumflex" horiz-adv-x="517" unicode="&#234;" /><glyph d="M311 750Q336 750 349 742Q362 734 375 719L466 620Q478 606 480.5 592.5Q483 579 478.5 568.5Q474 558 464.5 552Q455 546 443 546H385Q365 546 350.5 554.5Q336 563 319 581L277 626L235 581Q218 563 203.5 554.5Q189 546 169 546H111Q99 546 89.5 552Q80 558 75.5 568.5Q71 579 73.5 592.5Q76 606 88 620L179 719Q192 734 205 742Q218 750 243 750ZM46 432Q46 500 115 500H420Q488 500 488 432V421Q488 352 420 352H242V301H415Q460 301 460 256V243Q460 199 415 199H242V148H420Q488 148 488 79V68Q488 0 420 0H115Q46 0 46 68Z" glyph-name="ecircumflex.smcp" horiz-adv-x="528" unicode="&#57919;" /><glyph d="M269 384Q236 384 213.5 361.5Q191 339 192 294H329Q334 338 318.5 361Q303 384 269 384ZM298 126Q343 126 373.5 131.5Q404 137 424 142Q454 149 470 134Q486 119 486 96V63Q486 43 478.5 29.5Q471 16 450 8Q426 0 379 -8Q332 -16 275 -16Q206 -16 157 0Q108 16 77 49Q46 82 31.5 132Q17 182 17 250Q17 387 78 451.5Q139 516 269 516Q338 516 382 497Q426 478 451.5 445.5Q477 413 487 370.5Q497 328 497 280V247Q497 194 444 194H192Q190 158 215 142Q240 126 298 126ZM277 648Q277 671 285.5 691Q294 711 309 726Q324 741 344 749.5Q364 758 387 758Q410 758 430 749.5Q450 741 465 726Q480 711 488.5 691Q497 671 497 648Q497 625 488.5 605Q480 585 465 570Q450 555 430 546.5Q410 538 387 538Q364 538 344 546.5Q324 555 309 570Q294 585 285.5 605Q277 625 277 648ZM27 648Q27 671 35.5 691Q44 711 59 726Q74 741 94 749.5Q114 758 137 758Q160 758 180 749.5Q200 741 215 726Q230 711 238.5 691Q247 671 247 648Q247 625 238.5 605Q230 585 215 570Q200 555 180 546.5Q160 538 137 538Q114 538 94 546.5Q74 555 59 570Q44 585 35.5 605Q27 625 27 648Z" glyph-name="edieresis" horiz-adv-x="517" unicode="&#235;" /><glyph d="M46 432Q46 500 115 500H420Q488 500 488 432V421Q488 352 420 352H242V301H415Q460 301 460 256V243Q460 199 415 199H242V148H420Q488 148 488 79V68Q488 0 420 0H115Q46 0 46 68ZM292 648Q292 671 300.5 691Q309 711 324 726Q339 741 359 749.5Q379 758 402 758Q425 758 445 749.5Q465 741 480 726Q495 711 503.5 691Q512 671 512 648Q512 625 503.5 605Q495 585 480 570Q465 555 445 546.5Q425 538 402 538Q379 538 359 546.5Q339 555 324 570Q309 585 300.5 605Q292 625 292 648ZM42 648Q42 671 50.5 691Q59 711 74 726Q89 741 109 749.5Q129 758 152 758Q175 758 195 749.5Q215 741 230 726Q245 711 253.5 691Q262 671 262 648Q262 625 253.5 605Q245 585 230 570Q215 555 195 546.5Q175 538 152 538Q129 538 109 546.5Q89 555 74 570Q59 585 50.5 605Q42 625 42 648Z" glyph-name="edieresis.smcp" horiz-adv-x="528" unicode="&#57904;" /><glyph d="M269 384Q236 384 213.5 361.5Q191 339 192 294H329Q334 338 318.5 361Q303 384 269 384ZM298 126Q343 126 373.5 131.5Q404 137 424 142Q454 149 470 134Q486 119 486 96V63Q486 43 478.5 29.5Q471 16 450 8Q426 0 379 -8Q332 -16 275 -16Q206 -16 157 0Q108 16 77 49Q46 82 31.5 132Q17 182 17 250Q17 387 78 451.5Q139 516 269 516Q338 516 382 497Q426 478 451.5 445.5Q477 413 487 370.5Q497 328 497 280V247Q497 194 444 194H192Q190 158 215 142Q240 126 298 126ZM152 648Q152 671 160.5 691Q169 711 184 726Q199 741 219 749.5Q239 758 262 758Q285 758 305 749.5Q325 741 340 726Q355 711 363.5 691Q372 671 372 648Q372 625 363.5 605Q355 585 340 570Q325 555 305 546.5Q285 538 262 538Q239 538 219 546.5Q199 555 184 570Q169 585 160.5 605Q152 625 152 648Z" glyph-name="edotaccent" horiz-adv-x="517" unicode="&#279;" /><glyph d="M46 432Q46 500 115 500H420Q488 500 488 432V421Q488 352 420 352H242V301H415Q460 301 460 256V243Q460 199 415 199H242V148H420Q488 148 488 79V68Q488 0 420 0H115Q46 0 46 68ZM167 648Q167 671 175.5 691Q184 711 199 726Q214 741 234 749.5Q254 758 277 758Q300 758 320 749.5Q340 741 355 726Q370 711 378.5 691Q387 671 387 648Q387 625 378.5 605Q370 585 355 570Q340 555 320 546.5Q300 538 277 538Q254 538 234 546.5Q214 555 199 570Q184 585 175.5 605Q167 625 167 648Z" glyph-name="edotaccent.smcp" horiz-adv-x="528" unicode="&#57926;" /><glyph d="M269 384Q236 384 213.5 361.5Q191 339 192 294H329Q334 338 318.5 361Q303 384 269 384ZM298 126Q343 126 373.5 131.5Q404 137 424 142Q454 149 470 134Q486 119 486 96V63Q486 43 478.5 29.5Q471 16 450 8Q426 0 379 -8Q332 -16 275 -16Q206 -16 157 0Q108 16 77 49Q46 82 31.5 132Q17 182 17 250Q17 387 78 451.5Q139 516 269 516Q338 516 382 497Q426 478 451.5 445.5Q477 413 487 370.5Q497 328 497 280V247Q497 194 444 194H192Q190 158 215 142Q240 126 298 126ZM222 750Q277 750 291 692L312 607Q319 579 305.5 562.5Q292 546 263 546H247Q233 546 222.5 548.5Q212 551 203.5 556.5Q195 562 187 571Q179 580 169 593L110 670Q99 684 96 698Q93 712 97.5 723.5Q102 735 114 742.5Q126 750 147 750Z" glyph-name="egrave" horiz-adv-x="517" unicode="&#232;" /><glyph d="M46 432Q46 500 115 500H420Q488 500 488 432V421Q488 352 420 352H242V301H415Q460 301 460 256V243Q460 199 415 199H242V148H420Q488 148 488 79V68Q488 0 420 0H115Q46 0 46 68ZM237 750Q292 750 306 692L327 607Q334 579 320.5 562.5Q307 546 278 546H262Q248 546 237.5 548.5Q227 551 218.5 556.5Q210 562 202 571Q194 580 184 593L125 670Q114 684 111 698Q108 712 112.5 723.5Q117 735 129 742.5Q141 750 162 750Z" glyph-name="egrave.smcp" horiz-adv-x="528" unicode="&#57918;" /><glyph d="M300 459Q335 459 354 478Q373 497 373 531Q373 569 352.5 585.5Q332 602 300 602Q268 602 247.5 585.5Q227 569 227 531Q227 497 246 478Q265 459 300 459ZM203 233Q203 198 224.5 173.5Q246 149 300 149Q354 149 375 173.5Q396 198 396 233Q396 274 373.5 297.5Q351 321 300 321Q249 321 226 297.5Q203 274 203 233ZM300 -16Q170 -16 96.5 42.5Q23 101 23 220Q23 253 31.5 281Q40 309 54 331Q68 353 85 369Q102 385 119 394Q92 414 68.5 452Q45 490 45 547Q45 651 106 708.5Q167 766 300 766Q432 766 493 708.5Q554 651 554 547Q554 490 530.5 452Q507 414 480 394Q497 385 514 369Q531 353 545 331Q559 309 568 281Q577 253 577 220Q577 101 503 42.5Q429 -16 300 -16Z" glyph-name="eight" horiz-adv-x="600" unicode="8" /><glyph d="M302 459Q337 459 356 478Q375 497 375 531Q375 569 354.5 585.5Q334 602 302 602Q270 602 249.5 585.5Q229 569 229 531Q229 497 248 478Q267 459 302 459ZM205 233Q205 198 226.5 173.5Q248 149 302 149Q356 149 377 173.5Q398 198 398 233Q398 274 375.5 297.5Q353 321 302 321Q251 321 228 297.5Q205 274 205 233ZM302 -16Q172 -16 98.5 42.5Q25 101 25 220Q25 253 33.5 281Q42 309 56 331Q70 353 87 369Q104 385 121 394Q94 414 70.5 452Q47 490 47 547Q47 651 108 708.5Q169 766 302 766Q434 766 495 708.5Q556 651 556 547Q556 490 532.5 452Q509 414 482 394Q499 385 516 369Q533 353 547 331Q561 309 570 281Q579 253 579 220Q579 101 505 42.5Q431 -16 302 -16Z" glyph-name="eight.LP" horiz-adv-x="604" unicode="&#58685;" /><glyph d="M300 459Q335 459 354 478Q373 497 373 531Q373 569 352.5 585.5Q332 602 300 602Q268 602 247.5 585.5Q227 569 227 531Q227 497 246 478Q265 459 300 459ZM203 233Q203 198 224.5 173.5Q246 149 300 149Q354 149 375 173.5Q396 198 396 233Q396 274 373.5 297.5Q351 321 300 321Q249 321 226 297.5Q203 274 203 233ZM300 -16Q170 -16 96.5 42.5Q23 101 23 220Q23 253 31.5 281Q40 309 54 331Q68 353 85 369Q102 385 119 394Q92 414 68.5 452Q45 490 45 547Q45 651 106 708.5Q167 766 300 766Q432 766 493 708.5Q554 651 554 547Q554 490 530.5 452Q507 414 480 394Q497 385 514 369Q531 353 545 331Q559 309 568 281Q577 253 577 220Q577 101 503 42.5Q429 -16 300 -16Z" glyph-name="eight.LT" horiz-adv-x="600" unicode="&#58696;" /><glyph d="M302 459Q337 459 356 478Q375 497 375 531Q375 569 354.5 585.5Q334 602 302 602Q270 602 249.5 585.5Q229 569 229 531Q229 497 248 478Q267 459 302 459ZM205 233Q205 198 226.5 173.5Q248 149 302 149Q356 149 377 173.5Q398 198 398 233Q398 274 375.5 297.5Q353 321 302 321Q251 321 228 297.5Q205 274 205 233ZM302 -16Q172 -16 98.5 42.5Q25 101 25 220Q25 253 33.5 281Q42 309 56 331Q70 353 87 369Q104 385 121 394Q94 414 70.5 452Q47 490 47 547Q47 651 108 708.5Q169 766 302 766Q434 766 495 708.5Q556 651 556 547Q556 490 532.5 452Q509 414 482 394Q499 385 516 369Q533 353 547 331Q561 309 570 281Q579 253 579 220Q579 101 505 42.5Q431 -16 302 -16Z" glyph-name="eight.OP" horiz-adv-x="604" unicode="&#58707;" /><glyph d="M300 459Q335 459 354 478Q373 497 373 531Q373 569 352.5 585.5Q332 602 300 602Q268 602 247.5 585.5Q227 569 227 531Q227 497 246 478Q265 459 300 459ZM203 233Q203 198 224.5 173.5Q246 149 300 149Q354 149 375 173.5Q396 198 396 233Q396 274 373.5 297.5Q351 321 300 321Q249 321 226 297.5Q203 274 203 233ZM300 -16Q170 -16 96.5 42.5Q23 101 23 220Q23 253 31.5 281Q40 309 54 331Q68 353 85 369Q102 385 119 394Q92 414 68.5 452Q45 490 45 547Q45 651 106 708.5Q167 766 300 766Q432 766 493 708.5Q554 651 554 547Q554 490 530.5 452Q507 414 480 394Q497 385 514 369Q531 353 545 331Q559 309 568 281Q577 253 577 220Q577 101 503 42.5Q429 -16 300 -16Z" glyph-name="eight.OT" horiz-adv-x="600" unicode="&#58718;" /><glyph d="M267 -16Q201 -16 154.5 -5Q108 6 79 27Q50 48 37 78.5Q24 109 24 149Q24 191 42.5 224.5Q61 258 96 271Q78 279 60 303.5Q42 328 42 370Q42 405 54 432.5Q66 460 93 478.5Q120 497 163 506.5Q206 516 267 516Q328 516 370.5 506.5Q413 497 440 478.5Q467 460 479 432.5Q491 405 491 370Q491 328 472.5 303.5Q454 279 436 271Q471 258 490 224.5Q509 191 509 149Q509 109 496 78.5Q483 48 454 27Q425 6 379 -5Q333 -16 267 -16ZM267 307Q294 307 305 314.5Q316 322 316 334Q316 345 305.5 354Q295 363 267 363Q239 363 228.5 354Q218 345 218 334Q218 322 229 314.5Q240 307 267 307ZM267 134Q299 134 311 143.5Q323 153 323 167Q323 182 311 191.5Q299 201 267 201Q235 201 223 191.5Q211 182 211 167Q211 153 222.5 143.5Q234 134 267 134Z" glyph-name="eight.XP" horiz-adv-x="533" /><glyph d="M300 -16Q158 -16 94 25.5Q30 67 30 149Q30 199 51.5 228.5Q73 258 108 271Q99 275 89 282.5Q79 290 70.5 302.5Q62 315 56.5 333Q51 351 51 376Q51 451 112 483.5Q173 516 300 516Q426 516 487.5 483.5Q549 451 549 376Q549 351 543.5 333Q538 315 529.5 302.5Q521 290 511 282.5Q501 275 492 271Q527 258 548.5 228.5Q570 199 570 149Q570 67 506 25.5Q442 -16 300 -16ZM300 305Q342 305 358 312.5Q374 320 374 334Q374 348 358.5 356.5Q343 365 300 365Q257 365 241.5 356.5Q226 348 226 334Q226 320 241.5 312.5Q257 305 300 305ZM300 132Q350 132 366.5 141.5Q383 151 383 167Q383 184 367 193Q351 202 300 202Q249 202 232.5 193Q216 184 216 167Q216 151 232.5 141.5Q249 132 300 132Z" glyph-name="eight.XT" horiz-adv-x="600" /><glyph d="M302 459Q337 459 356 478Q375 497 375 531Q375 569 354.5 585.5Q334 602 302 602Q270 602 249.5 585.5Q229 569 229 531Q229 497 248 478Q267 459 302 459ZM205 233Q205 198 226.5 173.5Q248 149 302 149Q356 149 377 173.5Q398 198 398 233Q398 274 375.5 297.5Q353 321 302 321Q251 321 228 297.5Q205 274 205 233ZM302 -16Q172 -16 98.5 42.5Q25 101 25 220Q25 253 33.5 281Q42 309 56 331Q70 353 87 369Q104 385 121 394Q94 414 70.5 452Q47 490 47 547Q47 651 108 708.5Q169 766 302 766Q434 766 495 708.5Q556 651 556 547Q556 490 532.5 452Q509 414 482 394Q499 385 516 369Q533 353 547 331Q561 309 570 281Q579 253 579 220Q579 101 505 42.5Q431 -16 302 -16Z" glyph-name="eight.hybrid" horiz-adv-x="601" /><glyph d="M235 -266Q124 -266 74 -232.5Q24 -199 24 -129Q24 -94 41 -65Q58 -36 87 -25Q70 -20 54.5 0Q39 20 39 57Q39 118 86 147Q133 176 235 176Q336 176 383 147Q430 118 430 57Q430 20 414.5 0Q399 -20 382 -25Q411 -36 429 -65Q447 -94 447 -129Q447 -199 396.5 -232.5Q346 -266 235 -266ZM235 6Q257 6 266 10.5Q275 15 275 24Q275 32 266 37.5Q257 43 235 43Q195 43 195 24Q195 6 235 6ZM235 -132Q261 -132 270 -126.5Q279 -121 279 -110Q279 -99 270 -93Q261 -87 235 -87Q209 -87 200 -93Q191 -99 191 -110Q191 -121 200 -126.5Q209 -132 235 -132Z" glyph-name="eight.inf" horiz-adv-x="471" unicode="&#58745;" /><glyph d="M900 94Q900 117 908.5 137Q917 157 932 172Q947 187 967 195.5Q987 204 1010 204Q1033 204 1053 195.5Q1073 187 1088 172Q1103 157 1111.5 137Q1120 117 1120 94Q1120 71 1111.5 51Q1103 31 1088 16Q1073 1 1053 -7.5Q1033 -16 1010 -16Q987 -16 967 -7.5Q947 1 932 16Q917 31 908.5 51Q900 71 900 94ZM510 94Q510 117 518.5 137Q527 157 542 172Q557 187 577 195.5Q597 204 620 204Q643 204 663 195.5Q683 187 698 172Q713 157 721.5 137Q730 117 730 94Q730 71 721.5 51Q713 31 698 16Q683 1 663 -7.5Q643 -16 620 -16Q597 -16 577 -7.5Q557 1 542 16Q527 31 518.5 51Q510 71 510 94ZM120 94Q120 117 128.5 137Q137 157 152 172Q167 187 187 195.5Q207 204 230 204Q253 204 273 195.5Q293 187 308 172Q323 157 331.5 137Q340 117 340 94Q340 71 331.5 51Q323 31 308 16Q293 1 273 -7.5Q253 -16 230 -16Q207 -16 187 -7.5Q167 1 152 16Q137 31 128.5 51Q120 71 120 94Z" glyph-name="ellipsis" horiz-adv-x="1240" unicode="&#8230;" /><glyph d="M269 384Q236 384 213.5 361.5Q191 339 192 294H329Q334 338 318.5 361Q303 384 269 384ZM298 126Q343 126 373.5 131.5Q404 137 424 142Q454 149 470 134Q486 119 486 96V63Q486 43 478.5 29.5Q471 16 450 8Q426 0 379 -8Q332 -16 275 -16Q206 -16 157 0Q108 16 77 49Q46 82 31.5 132Q17 182 17 250Q17 387 78 451.5Q139 516 269 516Q338 516 382 497Q426 478 451.5 445.5Q477 413 487 370.5Q497 328 497 280V247Q497 194 444 194H192Q190 158 215 142Q240 126 298 126ZM167 583Q106 583 106 645V651Q106 713 167 713H357Q418 713 418 651V645Q418 583 357 583Z" glyph-name="emacron" horiz-adv-x="517" unicode="&#275;" /><glyph d="M46 432Q46 500 115 500H420Q488 500 488 432V421Q488 352 420 352H242V301H415Q460 301 460 256V243Q460 199 415 199H242V148H420Q488 148 488 79V68Q488 0 420 0H115Q46 0 46 68ZM182 583Q121 583 121 645V651Q121 713 182 713H372Q433 713 433 651V645Q433 583 372 583Z" glyph-name="emacron.smcp" horiz-adv-x="528" unicode="&#57922;" /><glyph d="M89 248Q21 248 21 317V333Q21 402 89 402H911Q979 402 979 333V317Q979 248 911 248Z" glyph-name="emdash" horiz-adv-x="1000" unicode="&#8212;" /><glyph d="M89 298Q21 298 21 367V383Q21 452 89 452H911Q979 452 979 383V367Q979 298 911 298Z" glyph-name="emdash.cap" horiz-adv-x="1000" unicode="&#58502;" /><glyph glyph-name="emspace" horiz-adv-x="1000" unicode="&#8195;" /><glyph d="M89 248Q21 248 21 317V333Q21 402 89 402H411Q479 402 479 333V317Q479 248 411 248Z" glyph-name="endash" horiz-adv-x="500" unicode="&#8211;" /><glyph d="M89 298Q21 298 21 367V383Q21 452 89 452H411Q479 452 479 383V367Q479 298 411 298Z" glyph-name="endash.cap" horiz-adv-x="500" unicode="&#58500;" /><glyph d="M526 -60Q526 -113 510 -151.5Q494 -190 465.5 -214.5Q437 -239 398.5 -251Q360 -263 314 -263Q237 -263 237 -208V-147Q237 -129 247.5 -117Q258 -105 281 -103Q301 -101 315.5 -89Q330 -77 330 -49V323Q330 363 292 363Q271 363 254.5 357Q238 351 228 345V53Q228 0 175 0H85Q32 0 32 53V447Q32 500 85 500H126Q152 500 163.5 488Q175 476 180 463Q216 488 259 502Q302 516 347 516Q402 516 436.5 502.5Q471 489 491 465.5Q511 442 518.5 410Q526 378 526 341Z" glyph-name="eng" horiz-adv-x="554" unicode="&#331;" /><glyph d="M239 68Q242 0 171 0H115Q46 0 46 68V432Q46 500 115 500H158Q184 500 202 489.5Q220 479 237 459L388 273L381 432Q378 500 449 500H506Q574 500 574 432V-60Q574 -113 558 -151.5Q542 -190 513.5 -214.5Q485 -239 446.5 -251Q408 -263 362 -263Q285 -263 285 -208V-147Q285 -129 295.5 -117Q306 -105 329 -103Q349 -101 363.5 -89Q378 -77 378 -49V47L232 227Z" glyph-name="eng.smcp" horiz-adv-x="620" unicode="&#58155;" /><glyph glyph-name="enspace" horiz-adv-x="500" unicode="&#8194;" /><glyph d="M269 384Q236 384 213.5 361.5Q191 339 192 294H329Q334 338 318.5 361Q303 384 269 384ZM369 -145Q378 -145 385 -144Q392 -143 397 -143Q415 -143 426 -155Q437 -167 437 -187V-192Q437 -234 402 -242Q393 -244 376 -247Q359 -250 327 -250Q258 -250 213.5 -218.5Q169 -187 169 -127Q169 -91 185 -63Q201 -35 227 -14Q114 -3 65.5 61Q17 125 17 250Q17 387 78 451.5Q139 516 269 516Q338 516 382 497Q426 478 451.5 445.5Q477 413 487 370.5Q497 328 497 280V247Q497 194 444 194H192Q190 158 215 142Q240 126 298 126Q343 126 373.5 131.5Q404 137 424 142Q454 149 470 134Q486 119 486 96V63Q486 43 478.5 29.5Q471 16 450 8Q442 5 430.5 2Q419 -1 406 -4Q355 -17 332 -45Q309 -73 309 -99Q309 -120 323.5 -132.5Q338 -145 369 -145Z" glyph-name="eogonek" horiz-adv-x="517" unicode="&#281;" /><glyph d="M438 -145Q447 -145 454 -144Q461 -143 466 -143Q484 -143 495 -155Q506 -167 506 -187V-192Q506 -234 471 -242Q462 -244 445 -247Q428 -250 396 -250Q327 -250 282.5 -218.5Q238 -187 238 -127Q238 -85 259 -54Q280 -23 313 0H115Q46 0 46 68V432Q46 500 115 500H420Q488 500 488 432V421Q488 352 420 352H242V301H415Q460 301 460 256V243Q460 199 415 199H242V148H420Q488 148 488 79V68Q488 24 458 7Q378 -39 378 -99Q378 -120 392.5 -132.5Q407 -145 438 -145Z" glyph-name="eogonek.smcp" horiz-adv-x="528" unicode="&#57929;" /><glyph d="M560 189Q560 136 507 136H93Q40 136 40 189V264Q40 318 93 318H507Q560 318 560 264ZM560 417Q560 364 507 364H93Q40 364 40 417V492Q40 546 93 546H507Q560 546 560 492Z" glyph-name="equal" horiz-adv-x="600" unicode="=" /><glyph d="M825 180Q825 127 772 127H128Q75 127 75 180V256Q75 309 128 309H772Q825 309 825 256ZM825 494Q825 441 772 441H128Q75 441 75 494V570Q75 623 128 623H772Q825 623 825 570Z" glyph-name="equal.cap" horiz-adv-x="900" unicode="&#58773;" /><glyph d="M385 -167Q385 -220 332 -220H88Q35 -220 35 -167V-111Q35 -58 88 -58H332Q385 -58 385 -111ZM385 21Q385 -32 332 -32H88Q35 -32 35 21V77Q35 130 88 130H332Q385 130 385 77Z" glyph-name="equal.inf" horiz-adv-x="420" unicode="&#58749;" /><glyph d="M764 355Q764 302 711 302H283V190Q306 167 337.5 159Q369 151 406 151Q443 151 474 161.5Q505 172 519 195Q535 221 569 221H685Q702 221 712.5 213.5Q723 206 727 194.5Q731 183 729.5 169Q728 155 721 143Q677 65 596 24.5Q515 -16 406 -16Q308 -16 240 17.5Q172 51 129 106Q86 161 67 231Q48 301 48 375Q48 448 67 518.5Q86 589 129 644Q172 699 240 732.5Q308 766 406 766Q504 766 572.5 732.5Q641 699 683.5 644Q726 589 745 518.5Q764 448 764 375ZM406 599Q369 599 337.5 591Q306 583 283 560V448H529V560Q505 583 474 591Q443 599 406 599Z" glyph-name="estimated" horiz-adv-x="812" unicode="&#8494;" /><glyph d="M207 250Q207 181 219.5 156.5Q232 132 265 132Q297 132 309.5 156.5Q322 181 322 250Q322 319 309.5 343.5Q297 368 265 368Q232 368 219.5 343.5Q207 319 207 250ZM408 628Q456 562 484.5 469Q513 376 513 250Q513 184 500 134.5Q487 85 458 51.5Q429 18 382 1Q335 -16 265 -16Q194 -16 146.5 1Q99 18 70 52Q41 86 29 135.5Q17 185 17 250Q17 381 67 448.5Q117 516 232 516Q252 516 269.5 514Q287 512 298 508Q288 525 278.5 540.5Q269 556 258 570L127 519Q112 513 100 519.5Q88 526 88 543V582Q88 602 94.5 611.5Q101 621 115 626L171 648Q129 672 74 687Q60 691 53.5 701Q47 711 48 722Q49 733 57.5 741.5Q66 750 82 750H232Q256 750 277 742Q298 734 318 719L330 710L425 747Q440 753 452 746.5Q464 740 464 723V684Q464 664 457.5 654.5Q451 645 437 640Z" glyph-name="eth" horiz-adv-x="530" unicode="&#240;" /><glyph d="M295 150Q337 150 352 176Q367 202 367 250Q367 298 352 324Q337 350 295 350H262V313H267Q298 313 312 299Q326 285 326 253V249Q326 217 312 203Q298 189 267 189H262V150ZM66 189H64Q33 189 19 203Q5 217 5 249V253Q5 285 19 299Q33 313 64 313H66V432Q66 500 135 500H311Q382 500 430 481.5Q478 463 507.5 430Q537 397 550 351Q563 305 563 250Q563 195 550 149Q537 103 507.5 70Q478 37 430 18.5Q382 0 311 0H135Q66 0 66 68Z" glyph-name="eth.smcp" horiz-adv-x="593" unicode="&#58156;" /><glyph d="M191 750Q220 750 235.5 733.5Q251 717 247 682L199 271Q194 230 156 230H104Q66 230 61 271L13 682Q9 717 24.5 733.5Q40 750 69 750ZM20 94Q20 117 28.5 137Q37 157 52 172Q67 187 87 195.5Q107 204 130 204Q153 204 173 195.5Q193 187 208 172Q223 157 231.5 137Q240 117 240 94Q240 71 231.5 51Q223 31 208 16Q193 1 173 -7.5Q153 -16 130 -16Q107 -16 87 -7.5Q67 1 52 16Q37 31 28.5 51Q20 71 20 94Z" glyph-name="exclam" horiz-adv-x="260" unicode="!" /><glyph d="M69 -250Q40 -250 24.5 -233.5Q9 -217 13 -182L61 229Q66 270 104 270H156Q194 270 199 229L247 -182Q251 -217 235.5 -233.5Q220 -250 191 -250ZM240 406Q240 383 231.5 363Q223 343 208 328Q193 313 173 304.5Q153 296 130 296Q107 296 87 304.5Q67 313 52 328Q37 343 28.5 363Q20 383 20 406Q20 429 28.5 449Q37 469 52 484Q67 499 87 507.5Q107 516 130 516Q153 516 173 507.5Q193 499 208 484Q223 469 231.5 449Q240 429 240 406Z" glyph-name="exclamdown" horiz-adv-x="260" unicode="&#161;" /><glyph d="M69 0Q40 0 24.5 16.5Q9 33 13 68L61 479Q66 520 104 520H156Q194 520 199 479L247 68Q251 33 235.5 16.5Q220 0 191 0ZM240 656Q240 633 231.5 613Q223 593 208 578Q193 563 173 554.5Q153 546 130 546Q107 546 87 554.5Q67 563 52 578Q37 593 28.5 613Q20 633 20 656Q20 679 28.5 699Q37 719 52 734Q67 749 87 757.5Q107 766 130 766Q153 766 173 757.5Q193 749 208 734Q223 719 231.5 699Q240 679 240 656Z" glyph-name="exclamdown.cap" horiz-adv-x="260" unicode="&#58433;" /><glyph d="M279 500H342Q395 500 395 447V404Q395 351 342 351H279V53Q279 0 226 0H136Q83 0 83 53V351H57Q4 351 4 404V429Q4 455 15 467Q26 479 58 488L83 495V584Q83 672 132 719Q181 766 290 766Q310 766 330 764Q350 762 362 760Q407 748 407 705V651Q407 628 392.5 617.5Q378 607 358 609Q353 609 347.5 609.5Q342 610 334 610Q311 610 295 599Q279 588 279 560Z" glyph-name="f" horiz-adv-x="403" unicode="f" /><glyph d="M46 432Q46 500 115 500H402Q470 500 470 432V410Q470 341 402 341H242V281H383Q442 281 442 221V215Q442 156 383 156H242V68Q242 0 174 0H115Q46 0 46 68Z" glyph-name="f.smcp" horiz-adv-x="495" unicode="&#57862;" /><glyph d="M33 505H22Q-8 505 -8 535V550Q-8 566 -2 572.5Q4 579 21 584L33 587V629Q33 676 57.5 700Q82 724 139 724Q150 724 166 723Q182 722 190 720Q204 717 209 709Q214 701 214 690V655Q214 633 191 633Q188 633 182.5 633.5Q177 634 174 634Q153 634 153 615V590H180Q210 590 210 560V535Q210 505 180 505H153V370Q153 340 123 340H63Q33 340 33 370Z" glyph-name="f.superior" horiz-adv-x="221" unicode="&#58214;" /><glyph d="M437 447Q437 500 490 500H580Q633 500 633 447V178Q633 167 637.5 161.5Q642 156 653 151Q664 147 670 140Q676 133 676 116V42Q676 19 655 4.5Q634 -10 590 -10Q559 -10 531.5 -2.5Q504 5 483 22.5Q462 40 449.5 67Q437 94 437 133ZM279 500H342Q395 500 395 447V404Q395 351 342 351H279V53Q279 0 226 0H136Q83 0 83 53V351H57Q4 351 4 404V429Q4 455 15 467Q26 479 58 488L83 495V584Q83 672 132 719Q181 766 290 766Q310 766 330 764Q350 762 362 760Q407 748 407 705V651Q407 628 392.5 617.5Q378 607 358 609Q353 609 347.5 609.5Q342 610 334 610Q311 610 295 599Q279 588 279 560Z" glyph-name="f_dotlessi" horiz-adv-x="687" /><glyph d="M437 447Q437 500 490 500H580Q633 500 633 447V178Q633 167 637.5 161.5Q642 156 653 151Q664 147 670 140Q676 133 676 116V42Q676 19 655 4.5Q634 -10 590 -10Q559 -10 531.5 -2.5Q504 5 483 22.5Q462 40 449.5 67Q437 94 437 133ZM425 648Q425 671 433.5 691Q442 711 457 726Q472 741 492 749.5Q512 758 535 758Q558 758 578 749.5Q598 741 613 726Q628 711 636.5 691Q645 671 645 648Q645 625 636.5 605Q628 585 613 570Q598 555 578 546.5Q558 538 535 538Q512 538 492 546.5Q472 555 457 570Q442 585 433.5 605Q425 625 425 648ZM279 500H342Q395 500 395 447V404Q395 351 342 351H279V53Q279 0 226 0H136Q83 0 83 53V351H57Q4 351 4 404V429Q4 455 15 467Q26 479 58 488L83 495V584Q83 672 132 719Q181 766 290 766Q310 766 330 764Q350 762 362 760Q407 748 407 705V651Q407 628 392.5 617.5Q378 607 358 609Q353 609 347.5 609.5Q342 610 334 610Q311 610 295 599Q279 588 279 560Z" glyph-name="fi" horiz-adv-x="687" unicode="&#64257;" /><glyph d="M89 248Q21 248 21 317V333Q21 402 89 402H511Q579 402 579 333V317Q579 248 511 248Z" glyph-name="figuredash" horiz-adv-x="600" unicode="&#8210;" /><glyph d="M89 298Q21 298 21 367V383Q21 452 89 452H511Q579 452 579 383V367Q579 298 511 298Z" glyph-name="figuredash.cap" horiz-adv-x="600" unicode="&#58503;" /><glyph glyph-name="figurespace" horiz-adv-x="577" unicode="&#8199;" /><glyph d="M254 152Q282 152 305 155.5Q328 159 344.5 168Q361 177 370 193.5Q379 210 379 236Q379 260 372.5 274.5Q366 289 354 297.5Q342 306 325 309Q308 312 288 312H107Q53 312 53 366V696Q53 750 107 750H493Q548 750 548 696V637Q548 583 493 583H240V464H309Q363 464 410 456Q457 448 492 424Q527 400 547 355Q567 310 567 237Q567 157 537.5 107.5Q508 58 463.5 30.5Q419 3 367 -6.5Q315 -16 270 -16Q244 -16 214.5 -14.5Q185 -13 158 -10Q131 -7 108.5 -3Q86 1 74 6Q50 14 42 30.5Q34 47 34 64V119Q34 145 52 160.5Q70 176 102 168Q124 162 167 157Q210 152 254 152Z" glyph-name="five" horiz-adv-x="600" unicode="5" /><glyph d="M234 156Q259 156 280.5 159Q302 162 317.5 171Q333 180 342 196Q351 212 351 238Q351 262 343.5 276.5Q336 291 323.5 299Q311 307 294.5 309.5Q278 312 260 312H104Q50 312 50 366V696Q50 750 104 750H468Q523 750 523 696V637Q523 583 468 583H237V464H283Q334 464 380.5 458Q427 452 462 428.5Q497 405 518 360Q539 315 539 237Q539 157 513 107.5Q487 58 446 30.5Q405 3 353 -6.5Q301 -16 250 -16Q225 -16 198.5 -14.5Q172 -13 148 -10Q124 -7 103.5 -3.5Q83 0 71 5Q47 13 39 29.5Q31 46 31 63V122Q31 148 49 163.5Q67 179 99 171Q121 165 155.5 160.5Q190 156 234 156Z" glyph-name="five.LP" horiz-adv-x="569" unicode="&#58682;" /><glyph d="M254 152Q282 152 305 155.5Q328 159 344.5 168Q361 177 370 193.5Q379 210 379 236Q379 260 372.5 274.5Q366 289 354 297.5Q342 306 325 309Q308 312 288 312H107Q53 312 53 366V696Q53 750 107 750H493Q548 750 548 696V637Q548 583 493 583H240V464H309Q363 464 410 456Q457 448 492 424Q527 400 547 355Q567 310 567 237Q567 157 537.5 107.5Q508 58 463.5 30.5Q419 3 367 -6.5Q315 -16 270 -16Q244 -16 214.5 -14.5Q185 -13 158 -10Q131 -7 108.5 -3Q86 1 74 6Q50 14 42 30.5Q34 47 34 64V119Q34 145 52 160.5Q70 176 102 168Q124 162 167 157Q210 152 254 152Z" glyph-name="five.LT" horiz-adv-x="600" unicode="&#58693;" /><glyph d="M221 -99Q245 -99 266.5 -94.5Q288 -90 303.5 -80Q319 -70 328.5 -53Q338 -36 338 -10Q338 16 330.5 32.5Q323 49 309.5 58Q296 67 277.5 70.5Q259 74 238 74H104Q50 74 50 128V446Q50 500 104 500H443Q498 500 498 446V393Q498 339 443 339H235V222H272Q317 222 361.5 216Q406 210 441 186.5Q476 163 497.5 117Q519 71 519 -9Q519 -89 494 -139Q469 -189 428.5 -217Q388 -245 336 -255.5Q284 -266 230 -266Q180 -266 137.5 -260Q95 -254 70 -245Q46 -237 38 -220.5Q30 -204 30 -187V-134Q30 -108 48 -92.5Q66 -77 98 -85Q109 -88 124 -90.5Q139 -93 155.5 -95Q172 -97 189 -98Q206 -99 221 -99Z" glyph-name="five.OP" horiz-adv-x="534" unicode="&#58688;" /><glyph d="M254 -103Q313 -103 349.5 -86Q386 -69 386 -22Q386 28 361.5 45Q337 62 291 62H107Q53 62 53 116V446Q53 500 107 500H493Q548 500 548 446V393Q548 339 493 339H238V212H309Q363 212 410 203.5Q457 195 492 171Q527 147 547 103Q567 59 567 -12Q567 -91 541.5 -140.5Q516 -190 474 -218Q432 -246 378.5 -256Q325 -266 270 -266Q244 -266 214.5 -264Q185 -262 157.5 -258Q130 -254 107.5 -250Q85 -246 73 -241Q49 -233 41 -216.5Q33 -200 33 -183V-133Q33 -107 51 -91.5Q69 -76 101 -84Q123 -90 166.5 -96.5Q210 -103 254 -103Z" glyph-name="five.OT" horiz-adv-x="600" unicode="&#58715;" /><glyph d="M229 -16Q210 -16 188.5 -14.5Q167 -13 145.5 -10.5Q124 -8 104.5 -5Q85 -2 69 2Q45 8 37 25.5Q29 43 29 60V107Q29 133 46 149Q63 165 96 156Q118 150 154 145.5Q190 141 225 141Q267 141 286.5 148Q306 155 306 173Q306 190 294.5 195.5Q283 201 261 201H99Q45 201 45 255V446Q45 500 99 500H415Q470 500 470 446V395Q470 341 415 341H213V305Q218 305 230.5 305.5Q243 306 254 306Q315 306 358.5 300Q402 294 430 277.5Q458 261 471.5 231Q485 201 485 152Q485 60 419 22Q353 -16 229 -16Z" glyph-name="five.XP" horiz-adv-x="509" /><glyph d="M107 201Q53 201 53 255V446Q53 500 107 500H495Q550 500 550 446V394Q550 340 495 340H221V307Q234 307 267 308Q300 309 334 309Q395 309 439 302.5Q483 296 511 278.5Q539 261 552 230.5Q565 200 565 151Q565 104 544.5 72.5Q524 41 485.5 21Q447 1 392 -7.5Q337 -16 267 -16Q246 -16 219.5 -14.5Q193 -13 166.5 -10Q140 -7 116 -3.5Q92 0 76 4Q52 10 44 27.5Q36 45 36 62V108Q36 134 52 149.5Q68 165 102 157Q115 154 135 151.5Q155 149 177 147Q199 145 221.5 144Q244 143 263 143Q321 143 353.5 149.5Q386 156 386 175Q386 192 373.5 196.5Q361 201 339 201Z" glyph-name="five.XT" horiz-adv-x="600" /><glyph d="M214 31Q238 31 259 34.5Q280 38 295.5 47.5Q311 57 320 74Q329 91 329 117Q329 143 321 159Q313 175 299.5 183.5Q286 192 267.5 195Q249 198 228 198H101Q47 198 47 252V571Q47 625 101 625H439Q494 625 494 571V512Q494 458 439 458H232V352H269Q315 352 359.5 345Q404 338 438.5 313.5Q473 289 494 242Q515 195 515 116Q515 36 490 -14Q465 -64 424.5 -92Q384 -120 331.5 -130.5Q279 -141 224 -141Q174 -141 132.5 -135Q91 -129 66 -120Q42 -112 34 -95.5Q26 -79 26 -62V-4Q26 22 44 37.5Q62 53 94 45Q116 39 150.5 35Q185 31 214 31Z" glyph-name="five.hybrid" horiz-adv-x="551" /><glyph d="M199 -123Q237 -123 251 -117.5Q265 -112 265 -102Q265 -93 257 -90Q249 -87 233 -87H97Q43 -87 43 -33V106Q43 160 97 160H362Q417 160 417 106V72Q417 18 362 18L193 19V4H222Q279 4 318 -1Q357 -6 381 -20Q405 -34 416 -59Q427 -84 427 -124Q427 -197 373 -231.5Q319 -266 204 -266Q166 -266 131 -261.5Q96 -257 64 -249Q40 -243 32 -225.5Q24 -208 24 -191V-159Q24 -133 41 -117.5Q58 -102 91 -111Q113 -117 138.5 -120Q164 -123 199 -123Z" glyph-name="five.inf" horiz-adv-x="451" unicode="&#58742;" /><glyph d="M437 697Q437 750 490 750H580Q633 750 633 697V178Q633 167 637.5 161.5Q642 156 653 151Q664 147 670 140Q676 133 676 116V42Q676 19 655 4.5Q634 -10 590 -10Q559 -10 531.5 -2.5Q504 5 483 22.5Q462 40 449.5 67Q437 94 437 133ZM279 500H342Q395 500 395 447V404Q395 351 342 351H279V53Q279 0 226 0H136Q83 0 83 53V351H57Q4 351 4 404V429Q4 455 15 467Q26 479 58 488L83 495V584Q83 672 132 719Q181 766 290 766Q310 766 330 764Q350 762 362 760Q407 748 407 705V651Q407 628 392.5 617.5Q378 607 358 609Q353 609 347.5 609.5Q342 610 334 610Q311 610 295 599Q279 588 279 560Z" glyph-name="fl" horiz-adv-x="687" unicode="&#64258;" /><glyph d="M166 0Q98 0 98 69V375H75Q19 375 19 432V441Q19 498 75 498H98V520Q98 572 108.5 617Q119 662 147.5 695Q176 728 226.5 747Q277 766 358 766Q416 766 447 761Q478 756 501 750Q527 743 537.5 728Q548 713 548 687V636Q548 608 529 595Q510 582 481 590Q464 595 440 598.5Q416 602 387 602Q342 602 316 585Q290 568 290 526V498H443Q499 498 499 441V432Q499 375 443 375H290V69Q290 0 222 0Z" glyph-name="florin" horiz-adv-x="562" unicode="&#402;" /><glyph d="M166 0Q98 0 98 69V375H75Q19 375 19 432V441Q19 498 75 498H98V520Q98 572 108.5 617Q119 662 147.5 695Q176 728 226.5 747Q277 766 358 766Q416 766 447 761Q478 756 501 750Q527 743 537.5 728Q548 713 548 687V636Q548 608 529 595Q510 582 481 590Q464 595 440 598.5Q416 602 387 602Q342 602 316 585Q290 568 290 526V498H443Q499 498 499 441V432Q499 375 443 375H290V69Q290 0 222 0Z" glyph-name="florin.LP" horiz-adv-x="562" unicode="&#58661;" /><glyph d="M421 306Q469 306 469 257V244Q469 195 421 195H291V-181Q291 -250 223 -250H165Q97 -250 97 -181V195H67Q19 195 19 244V257Q19 306 67 306H97Q97 355 109.5 394Q122 433 151 460Q180 487 228 501Q276 515 348 515Q382 515 411 511.5Q440 508 463 502Q489 495 499.5 480.5Q510 466 510 440V393Q510 365 491.5 354.5Q473 344 444 350Q425 354 413.5 355.5Q402 357 385 357Q342 357 316.5 347Q291 337 291 311V306Z" glyph-name="florin.OP" horiz-adv-x="539" /><glyph d="M156 -125Q88 -125 88 -56V251H75Q19 251 19 308V316Q19 373 75 373H88V395Q88 447 98.5 492Q109 537 137.5 570Q166 603 216.5 622Q267 641 348 641Q406 641 437 636Q468 631 491 625Q517 618 527.5 603Q538 588 538 562V511Q538 483 519 470Q500 457 471 465Q454 470 430 473.5Q406 477 377 477Q332 477 306 460Q280 443 280 401V373H433Q489 373 489 316V308Q489 251 433 251H280V-56Q280 -125 212 -125Z" glyph-name="florin.hybrid" horiz-adv-x="562" /><glyph d="M313 318 315 470 214 315ZM15 249Q15 263 18 273Q21 283 31 299L319 730Q332 749 345 757.5Q358 766 377 766H449Q503 766 503 713V318H531Q584 318 584 265V205Q584 152 531 152H503V53Q503 0 450 0H366Q313 0 313 53V152H68Q15 152 15 205Z" glyph-name="four" horiz-adv-x="600" unicode="4" /><glyph d="M339 318 342 491 227 316ZM15 249Q15 263 18 273Q21 283 31 299L323 730Q344 766 381 766H476Q530 766 530 713V318H565Q618 318 618 265V206Q618 153 565 153H530V53Q530 0 477 0H392Q339 0 339 53V153H68Q15 153 15 206Z" glyph-name="four.LP" horiz-adv-x="634" unicode="&#58681;" /><glyph d="M313 318 315 470 214 315ZM15 249Q15 263 18 273Q21 283 31 299L319 730Q332 749 345 757.5Q358 766 377 766H449Q503 766 503 713V318H531Q584 318 584 265V205Q584 152 531 152H503V53Q503 0 450 0H366Q313 0 313 53V152H68Q15 152 15 205Z" glyph-name="four.LT" horiz-adv-x="600" unicode="&#58692;" /><glyph d="M338 80 341 252 226 78ZM21 16Q21 30 23.5 40.5Q26 51 37 66L322 480Q334 497 347.5 506.5Q361 516 380 516H476Q530 516 530 463V80H587Q640 80 640 27V-27Q640 -80 587 -80H530V-197Q530 -250 477 -250H391Q338 -250 338 -197V-80H74Q21 -80 21 -27Z" glyph-name="four.OP" horiz-adv-x="661" unicode="&#58703;" /><glyph d="M300 80 303 226 216 78ZM18 19Q18 33 22.5 46Q27 59 37 75L286 480Q298 500 311.5 508Q325 516 344 516H438Q492 516 492 463V80H529Q582 80 582 27V-27Q582 -80 529 -80H492V-197Q492 -250 439 -250H353Q300 -250 300 -197V-80H71Q18 -80 18 -27Z" glyph-name="four.OT" horiz-adv-x="600" unicode="&#58714;" /><glyph d="M284 239 288 328 219 237ZM16 177Q16 195 21 207.5Q26 220 40 237L237 480Q254 502 270 509Q286 516 305 516H413Q467 516 467 463V239H487Q540 239 540 186V138Q540 85 487 85H467V53Q467 0 414 0H337Q284 0 284 53V85H69Q16 85 16 138Z" glyph-name="four.XP" horiz-adv-x="563" /><glyph d="M310 239 315 338 228 236ZM22 176Q22 194 27 207.5Q32 221 47 238L258 480Q275 502 291 509Q307 516 326 516H439Q493 516 493 463V239H528Q581 239 581 186V138Q581 85 528 85H493V53Q493 0 440 0H363Q310 0 310 53V85H75Q22 85 22 138Z" glyph-name="four.XT" horiz-adv-x="600" /><glyph d="M328 191 330 367 226 189ZM15 120Q15 134 18 144Q21 154 31 170L311 604Q332 640 369 640H464Q518 640 518 587V191H565Q618 191 618 138V79Q618 26 565 26H518V-72Q518 -125 465 -125H381Q328 -125 328 -72V26H68Q15 26 15 79Z" glyph-name="four.hybrid" horiz-adv-x="628" /><glyph d="M250 -53 255 24 195 -55ZM16 -106Q16 -88 21 -75.5Q26 -63 40 -46L187 141Q204 163 221.5 169.5Q239 176 258 176H358Q412 176 412 123V-53H423Q476 -53 476 -106V-132Q476 -185 423 -185H412V-197Q412 -250 359 -250H303Q250 -250 250 -197V-185H69Q16 -185 16 -132Z" glyph-name="four.inf" horiz-adv-x="499" unicode="&#58741;" /><glyph glyph-name="fourperemspace" horiz-adv-x="250" unicode="&#8197;" /><glyph d="M-50 24Q-60 10 -71 5Q-82 0 -99 0H-170Q-187 0 -193.5 15Q-200 30 -188 47L305 726Q315 740 326 745Q337 750 354 750H425Q442 750 448.5 735Q455 720 443 703Z" glyph-name="fraction" horiz-adv-x="254" unicode="&#8260;" /><glyph d="M487 323Q487 222 430.5 176Q374 130 251 130Q237 130 224.5 130Q212 130 200 131Q198 129 196.5 125Q195 121 195 116Q195 101 215 100L416 78Q456 73 482 60Q508 47 523.5 27Q539 7 545 -19Q551 -45 551 -75Q551 -126 525 -162Q499 -198 455.5 -221Q412 -244 353.5 -255Q295 -266 231 -266Q109 -266 47 -231.5Q-15 -197 -15 -130Q-15 -104 -6.5 -83.5Q2 -63 16 -48Q30 -33 49 -24Q68 -15 88 -10Q63 -1 50 22.5Q37 46 37 72Q37 99 52.5 123Q68 147 93 161Q53 184 34.5 223.5Q16 263 16 323Q16 423 72 469.5Q128 516 251 516Q289 516 321.5 512Q354 508 379 500H490Q543 500 543 447V422Q543 396 534 383Q525 370 502 364L484 359Q486 351 486.5 342.5Q487 334 487 323ZM194 320Q194 288 207.5 271Q221 254 251 254Q281 254 294.5 271Q308 288 308 320Q308 352 294.5 369Q281 386 251 386Q221 386 207.5 369Q194 352 194 320ZM192 -40Q180 -45 171.5 -56Q163 -67 163 -81Q163 -102 180.5 -115.5Q198 -129 250 -129Q300 -129 332.5 -116Q365 -103 365 -82Q365 -72 360.5 -66Q356 -60 342 -58Z" glyph-name="g" horiz-adv-x="549" unicode="g" /><glyph d="M327 352Q325 354 309.5 360.5Q294 367 274 367Q235 367 222 340Q209 313 209 250Q209 187 222 159.5Q235 132 274 132Q294 132 309.5 138.5Q325 145 327 147ZM215 -112Q275 -112 301 -93.5Q327 -75 327 -31V10Q304 -1 276 -8.5Q248 -16 214 -16Q116 -16 66.5 45Q17 106 17 250Q17 394 66.5 455Q116 516 214 516Q304 516 373 459L374 461Q382 479 394 489.5Q406 500 432 500H470Q523 500 523 447V37Q523 -15 517 -69Q511 -123 484.5 -166.5Q458 -210 403 -238Q348 -266 251 -266Q207 -266 160 -260.5Q113 -255 82 -245Q59 -237 51.5 -222Q44 -207 44 -190V-140Q44 -116 60.5 -101Q77 -86 107 -94Q127 -100 151.5 -106Q176 -112 215 -112Z" glyph-name="g.school" horiz-adv-x="555" unicode="&#57697;" /><glyph d="M352 353Q282 353 253 329.5Q224 306 224 250Q224 199 246.5 170Q269 141 326 141Q343 141 351 143V203H346Q307 203 307 243V256Q307 297 346 297H460Q529 297 529 229V63Q529 41 518.5 27Q508 13 482 5Q457 -2 412.5 -9Q368 -16 311 -16Q165 -16 98.5 53.5Q32 123 32 250Q32 313 47.5 362.5Q63 412 97.5 446Q132 480 188 498Q244 516 324 516Q380 516 424 509.5Q468 503 485 498Q525 486 525 435V396Q525 370 508 352.5Q491 335 451 344Q437 347 410 350Q383 353 352 353Z" glyph-name="g.smcp" horiz-adv-x="570" unicode="&#57863;" /><glyph d="M162 499Q162 513 157.5 520.5Q153 528 140 528Q128 528 123.5 520.5Q119 513 119 499Q119 486 123.5 478Q128 470 140 470Q153 470 157.5 478Q162 486 162 499ZM115 317Q103 312 103 301Q103 293 109.5 287.5Q116 282 139 282Q162 282 176.5 286.5Q191 291 191 300Q191 304 189.5 306.5Q188 309 182 310ZM271 502Q271 448 240 426.5Q209 405 140 405H114Q112 403 112 400Q112 393 122 393L232 383Q276 379 290.5 356Q305 333 305 303Q305 277 291.5 259Q278 241 254.5 229Q231 217 199 211.5Q167 206 129 206Q90 206 63.5 211Q37 216 21.5 225Q6 234 -0.5 246.5Q-7 259 -7 274Q-7 300 8.5 314Q24 328 47 333Q33 337 25.5 349.5Q18 362 18 375Q18 392 26.5 403Q35 414 48 421H49Q10 443 10 502Q10 555 40.5 577Q71 599 140 599Q184 599 213 590H273Q303 590 303 560V545Q303 530 298 523Q293 516 282 513L271 510Z" glyph-name="g.superior" horiz-adv-x="303" unicode="&#58215;" /><glyph d="M124 465Q124 433 129.5 423.5Q135 414 146 414Q151 414 156.5 415.5Q162 417 165 419V511Q157 515 146 515Q135 515 129.5 505.5Q124 496 124 465ZM285 329Q285 303 278 280.5Q271 258 254 241.5Q237 225 209 215.5Q181 206 138 206Q111 206 83.5 210Q56 214 38 219Q17 225 17 247V283Q17 294 25 301.5Q33 309 50 304Q65 299 83 296.5Q101 294 115 294Q144 294 154.5 301.5Q165 309 165 324V343Q151 336 137.5 333.5Q124 331 111 331Q59 331 32.5 360.5Q6 390 6 465Q6 540 32.5 569.5Q59 599 111 599Q131 599 152 592Q173 585 191 569Q195 579 202 584.5Q209 590 224 590H255Q285 590 285 560Z" glyph-name="g.superiorschool" horiz-adv-x="294" /><glyph d="M487 323Q487 222 430.5 176Q374 130 251 130Q237 130 224.5 130Q212 130 200 131Q198 129 196.5 125Q195 121 195 116Q195 101 215 100L416 78Q456 73 482 60Q508 47 523.5 27Q539 7 545 -19Q551 -45 551 -75Q551 -126 525 -162Q499 -198 455.5 -221Q412 -244 353.5 -255Q295 -266 231 -266Q109 -266 47 -231.5Q-15 -197 -15 -130Q-15 -104 -6.5 -83.5Q2 -63 16 -48Q30 -33 49 -24Q68 -15 88 -10Q63 -1 50 22.5Q37 46 37 72Q37 99 52.5 123Q68 147 93 161Q53 184 34.5 223.5Q16 263 16 323Q16 423 72 469.5Q128 516 251 516Q289 516 321.5 512Q354 508 379 500H490Q543 500 543 447V422Q543 396 534 383Q525 370 502 364L484 359Q486 351 486.5 342.5Q487 334 487 323ZM194 320Q194 288 207.5 271Q221 254 251 254Q281 254 294.5 271Q308 288 308 320Q308 352 294.5 369Q281 386 251 386Q221 386 207.5 369Q194 352 194 320ZM192 -40Q180 -45 171.5 -56Q163 -67 163 -81Q163 -102 180.5 -115.5Q198 -129 250 -129Q300 -129 332.5 -116Q365 -103 365 -82Q365 -72 360.5 -66Q356 -60 342 -58ZM251 546Q59 546 41 694Q38 720 50 735Q62 750 85 750H122Q143 750 153.5 741Q164 732 169 715Q176 690 194.5 680Q213 670 251 670Q289 670 307.5 680Q326 690 333 715Q338 732 348.5 741Q359 750 380 750H417Q440 750 452 735Q464 720 461 694Q443 546 251 546Z" glyph-name="gbreve" horiz-adv-x="549" unicode="&#287;" /><glyph d="M327 352Q325 354 309.5 360.5Q294 367 274 367Q235 367 222 340Q209 313 209 250Q209 187 222 159.5Q235 132 274 132Q294 132 309.5 138.5Q325 145 327 147ZM270 546Q78 546 60 694Q57 720 69 735Q81 750 104 750H141Q162 750 172.5 741Q183 732 188 715Q195 690 213.5 680Q232 670 270 670Q308 670 326.5 680Q345 690 352 715Q357 732 367.5 741Q378 750 399 750H436Q459 750 471 735Q483 720 480 694Q462 546 270 546ZM215 -112Q275 -112 301 -93.5Q327 -75 327 -31V10Q304 -1 276 -8.5Q248 -16 214 -16Q116 -16 66.5 45Q17 106 17 250Q17 394 66.5 455Q116 516 214 516Q304 516 373 459L374 461Q382 479 394 489.5Q406 500 432 500H470Q523 500 523 447V37Q523 -15 517 -69Q511 -123 484.5 -166.5Q458 -210 403 -238Q348 -266 251 -266Q207 -266 160 -260.5Q113 -255 82 -245Q59 -237 51.5 -222Q44 -207 44 -190V-140Q44 -116 60.5 -101Q77 -86 107 -94Q127 -100 151.5 -106Q176 -112 215 -112Z" glyph-name="gbreve.school" horiz-adv-x="555" unicode="&#57702;" /><glyph d="M300 546Q108 546 90 694Q87 720 99 735Q111 750 134 750H171Q192 750 202.5 741Q213 732 218 715Q225 690 243.5 680Q262 670 300 670Q338 670 356.5 680Q375 690 382 715Q387 732 397.5 741Q408 750 429 750H466Q489 750 501 735Q513 720 510 694Q492 546 300 546ZM352 353Q282 353 253 329.5Q224 306 224 250Q224 199 246.5 170Q269 141 326 141Q343 141 351 143V203H346Q307 203 307 243V256Q307 297 346 297H460Q529 297 529 229V63Q529 41 518.5 27Q508 13 482 5Q457 -2 412.5 -9Q368 -16 311 -16Q165 -16 98.5 53.5Q32 123 32 250Q32 313 47.5 362.5Q63 412 97.5 446Q132 480 188 498Q244 516 324 516Q380 516 424 509.5Q468 503 485 498Q525 486 525 435V396Q525 370 508 352.5Q491 335 451 344Q437 347 410 350Q383 353 352 353Z" glyph-name="gbreve.smcp" horiz-adv-x="570" unicode="&#57934;" /><glyph d="M194 320Q194 288 207.5 271Q221 254 251 254Q281 254 294.5 271Q308 288 308 320Q308 352 294.5 369Q281 386 251 386Q221 386 207.5 369Q194 352 194 320ZM192 -40Q180 -45 171.5 -56Q163 -67 163 -81Q163 -102 180.5 -115.5Q198 -129 250 -129Q300 -129 332.5 -116Q365 -103 365 -82Q365 -72 360.5 -66Q356 -60 342 -58ZM285 750Q310 750 323 742Q336 734 349 719L440 620Q452 606 454.5 592.5Q457 579 452.5 568.5Q448 558 438.5 552Q429 546 417 546H359Q339 546 324.5 554.5Q310 563 293 581L251 626L209 581Q192 563 177.5 554.5Q163 546 143 546H85Q73 546 63.5 552Q54 558 49.5 568.5Q45 579 47.5 592.5Q50 606 62 620L153 719Q166 734 179 742Q192 750 217 750ZM487 323Q487 222 430.5 176Q374 130 251 130Q237 130 224.5 130Q212 130 200 131Q198 129 196.5 125Q195 121 195 116Q195 101 215 100L416 78Q456 73 482 60Q508 47 523.5 27Q539 7 545 -19Q551 -45 551 -75Q551 -126 525 -162Q499 -198 455.5 -221Q412 -244 353.5 -255Q295 -266 231 -266Q109 -266 47 -231.5Q-15 -197 -15 -130Q-15 -104 -6.5 -83.5Q2 -63 16 -48Q30 -33 49 -24Q68 -15 88 -10Q63 -1 50 22.5Q37 46 37 72Q37 99 52.5 123Q68 147 93 161Q53 184 34.5 223.5Q16 263 16 323Q16 423 72 469.5Q128 516 251 516Q289 516 321.5 512Q354 508 379 500H490Q543 500 543 447V422Q543 396 534 383Q525 370 502 364L484 359Q486 351 486.5 342.5Q487 334 487 323Z" glyph-name="gcircumflex" horiz-adv-x="549" unicode="&#285;" /></font>
</defs>
</svg>
