<?xml version="1.0" standalone="no"?>
<!DOCTYPE svg PUBLIC "-//W3C//DTD SVG 1.1//EN" "http://www.w3.org/Graphics/SVG/1.1/DTD/svg11.dtd" >
<svg xmlns="http://www.w3.org/2000/svg">
<metadata></metadata>
<defs>
<font id="diyregular" horiz-adv-x="1513" >
<font-face units-per-em="2048" ascent="1638" descent="-410" />
<missing-glyph horiz-adv-x="512" />
<glyph horiz-adv-x="2048" />
<glyph horiz-adv-x="2048" />
<glyph unicode="&#xd;" horiz-adv-x="2048" />
<glyph unicode=" "  horiz-adv-x="512" />
<glyph unicode="&#x09;" horiz-adv-x="512" />
<glyph unicode="&#xa0;" horiz-adv-x="512" />
<glyph unicode="-" horiz-adv-x="1736" d="M64 262.5q-1 47.5 11 103.5t30 115.5t45 125.5t52 122.5t55 117t50 98.5t41 77q35 62 71.5 123.5t99 153.5t118 158.5t118.5 114t111 44.5q52 -3 119.5 -58.5t127.5 -130t126 -173t106 -167t76 -133.5q22 -40 44.5 -84t53.5 -110t57 -128t49.5 -131.5t35.5 -127 t10.5 -108.5t-20.5 -81q-29 -46 -109 -80.5t-170.5 -52t-205.5 -28t-190.5 -13t-148.5 -2.5q-64 0 -136 3t-176.5 14t-188.5 28.5t-154 51.5t-92 79q-15 31 -16 78.5zM768 389q0 -41 29.5 -70.5t70.5 -29.5t71 29.5t30 70.5v35q0 41 -30 70.5t-71 29.5t-70.5 -29.5 t-29.5 -70.5v-35zM768 737q0 -41 29.5 -70.5t70.5 -29.5t71 29.5t30 70.5v297q0 41 -30 71t-71 30t-70.5 -30t-29.5 -71v-297z" />
<glyph unicode="." horiz-adv-x="2609" d="M92 733q0 -93 39 -205t117 -204q7 1 20 3.5t52 14t76 28.5t85.5 50.5t87.5 75.5q42 -57 94.5 -99.5t97.5 -61.5t84.5 -30.5t62.5 -12.5l22 -1q11 0 30.5 1.5t73.5 13.5t101.5 33t102 67.5t87.5 109.5q33 -63 84 -106.5t99.5 -60.5t92 -25t70.5 -6l27 1q9 1 25.5 4 t61 18.5t83 37.5t81 65.5t66.5 98.5q36 -57 83.5 -99t89 -60.5t78 -29t58.5 -11.5l21 -1q96 82 135 181.5t39 279.5q0 121 -57 240t-148.5 198.5t-189.5 91.5q7 -111 -16.5 -199t-65 -141t-100 -88t-115 -48.5t-115.5 -14.5q-154 -1 -382.5 0.5t-401.5 1.5 q-195 0 -323.5 132t-127.5 372q-123 -30 -213.5 -127.5t-132.5 -224.5t-39 -263zM92 733q0 -93 39 -205t117 -204q7 1 20 3.5t52 14t76 28.5t85.5 50.5t87.5 75.5q42 -57 94.5 -99.5t97.5 -61.5t84.5 -30.5t62.5 -12.5l22 -1q11 0 30.5 1.5t73.5 13.5t101.5 33t102 67.5 t87.5 109.5q33 -63 84 -106.5t99.5 -60.5t92 -25t70.5 -6l27 1q9 1 25.5 4t61 18.5t83 37.5t81 65.5t66.5 98.5q36 -57 83.5 -99t89 -60.5t78 -29t58.5 -11.5l21 -1q96 82 135 181.5t39 279.5q0 121 -57 240t-148.5 198.5t-189.5 91.5q7 -111 -16.5 -199t-65 -141t-100 -88 t-115 -48.5t-115.5 -14.5q-154 -1 -382.5 0.5t-401.5 1.5q-195 0 -323.5 132t-127.5 372q-123 -30 -213.5 -127.5t-132.5 -224.5t-39 -263zM123 203q262 0 444 143q89 -79 171.5 -115.5t211.5 -35.5q10 0 27 1t66.5 10t94 23t99.5 45t94 72q40 -45 93.5 -76.5t101 -43.5 t89 -17.5t66.5 -4.5l25 1q61 5 105 15t83.5 32t61.5 38t69 54q5 -4 13.5 -10.5t36.5 -24t57.5 -32.5t75 -31.5t90.5 -25t101 -8.5t110 13q-20 -43 -51.5 -74.5t-62.5 -46t-59 -23.5t-46 -10l-17 -1q-80 -2 -133.5 12t-97.5 49q-52 -41 -146 -78.5t-198 -36.5 q-215 0 -375 134q-97 -75 -188.5 -104.5t-198.5 -29.5q-9 0 -24.5 1t-61.5 8t-89 19t-98 39t-98 64q-38 -36 -95.5 -57t-95.5 -24l-38 -3q-80 0 -141.5 44t-71.5 96zM123 203q262 0 444 143q89 -79 171.5 -115.5t211.5 -35.5q10 0 27 1t66.5 10t94 23t99.5 45t94 72 q40 -45 93.5 -76.5t101 -43.5t89 -17.5t66.5 -4.5l25 1q61 5 105 15t83.5 32t61.5 38t69 54q5 -4 13.5 -10.5t36.5 -24t57.5 -32.5t75 -31.5t90.5 -25t101 -8.5t110 13q-20 -43 -51.5 -74.5t-62.5 -46t-59 -23.5t-46 -10l-17 -1q-80 -2 -133.5 12t-97.5 49 q-52 -41 -146 -78.5t-198 -36.5q-215 0 -375 134q-97 -75 -188.5 -104.5t-198.5 -29.5q-9 0 -24.5 1t-61.5 8t-89 19t-98 39t-98 64q-38 -36 -95.5 -57t-95.5 -24l-38 -3q-80 0 -141.5 44t-71.5 96zM1096 899l211 252l-45 123q0 8 134.5 177t151.5 181q3 5 81.5 1.5 t92.5 -11.5q14 -10 36.5 -77t19.5 -79q-1 -11 -136 -184t-143 -176q-10 -4 -133 0l-160 -207h-110zM1096 899l211 252l-45 123q0 8 134.5 177t151.5 181q3 5 81.5 1.5t92.5 -11.5q14 -10 36.5 -77t19.5 -79q-1 -11 -136 -184t-143 -176q-10 -4 -133 0l-160 -207h-110z" />
<glyph unicode="/" horiz-adv-x="2301" d="M82 238v1062q0 32 21.5 55t52.5 23h196v172q0 32 21.5 54t52.5 22h1720q31 0 52.5 -22t21.5 -54v-1312q0 -91 -61.5 -155.5t-147.5 -64.5h-1720q-86 0 -147.5 64.5t-61.5 155.5zM229 238q0 -27 18 -46.5t44 -19.5q25 0 43 20t18 46v987h-123v-987zM489 172h1522 q26 0 44 19.5t18 46.5v77h-678v555h678v605h-1573v-1237q0 -29 -11 -66zM629 315v125h639v-125h-639zM629 524v125h639v-125h-639zM629 748v122h639v-122h-639zM637 1028v326q0 6 8 6h68q6 0 6 -2l110 -203v199q0 6 9 6h59q8 0 8 -6v-326q0 -8 -8 -8h-63q-5 0 -9 4l-112 207 v-203q0 -8 -6 -8h-62q-8 0 -8 8zM975 1028v326q0 6 8 6h227q9 0 9 -6v-58q0 -8 -9 -8h-157v-53h145q6 0 6 -8v-58q0 -6 -6 -6h-145v-69h166q6 0 6 -9v-57q0 -8 -6 -8h-236q-8 0 -8 8zM1257 1352v6q2 2 7 2h69q6 0 6 -4l43 -199l37 197q3 6 8 6h70q6 0 6 -6l39 -199l2 12 l43 189q0 4 6 4h68q4 0 4 -2q2 -2 2 -6l-88 -326q0 -6 -6 -6h-64q-6 0 -6 6l-41 213l-4 -22l-39 -191q0 -6 -6 -6h-61q-6 0 -6 6zM1698 1128q0 9 8 9h61q3 0 6 -3t3 -6q4 -22 10 -28q11 -17 49 -17q27 0 37 4q22 9 22 31q0 12 -10 19q-18 9 -41 14l-35 8q-49 12 -69 25 q-35 22 -35 78q0 48 33 77q36 31 96 31q48 0 88 -29q38 -25 41 -84q0 -1 -1 -3t-1 -3q-2 -2 -6 -2h-62q-8 0 -8 6q-3 27 -20 35q-15 8 -38 7.5t-36 -9.5q-12 -6 -12 -22q0 -13 12 -19q1 -1 39 -12l55 -14q35 -8 58 -25q30 -24 30 -74q0 -46 -37 -80q-35 -30 -98 -30t-100 30 q-39 31 -39 86z" />
<glyph unicode="1" d="M776 1382v256l680 -391l-221 -127z" />
<glyph unicode="2" d="M776 1382v256l680 -391l-221 -127zM1253 557v526l224 127v-782z" />
<glyph unicode="3" d="M776 0v256l461 262l221 -127zM776 1382v256l680 -391l-221 -127zM1253 557v526l224 127v-782z" />
<glyph unicode="4" d="M57 391l222 127l456 -262v-256zM776 0v256l461 262l221 -127zM776 1382v256l680 -391l-221 -127zM1253 557v526l224 127v-782z" />
<glyph unicode="5" d="M37 426v791l221 -130v-532zM57 391l222 127l456 -262v-256zM776 0v256l461 262l221 -127zM776 1382v256l680 -391l-221 -127zM1253 557v526l224 127v-782z" />
<glyph unicode="6" d="M37 426v791l221 -130v-532zM57 391l222 127l456 -262v-256zM61 1249l674 389v-256l-452 -260zM776 0v256l461 262l221 -127zM776 1382v256l680 -391l-221 -127zM1253 557v526l224 127v-782z" />
<glyph unicode="7" horiz-adv-x="1720" d="M41 819q0 167 65 318.5t174.5 261t261 174.5t318.5 65t318.5 -65t261 -174.5t174.5 -261t65 -318.5t-65 -318.5t-174.5 -261t-261 -174.5t-318.5 -65t-318.5 65t-261 174.5t-174.5 261t-65 318.5zM737 727q0 -49 37 -86l246 -246q35 -35 86 -35t86 35q36 37 36 87t-36 87 l-209 211v441q0 51 -36 86.5t-87 35.5t-87 -35.5t-36 -86.5v-492v-2z" />
<glyph unicode="8" horiz-adv-x="3082" d="M315 377v217q3 11 17 49q10 19 26 39q17 20 41 29q17 4 35 12q25 11 47 18q26 13 56 25q9 4 28.5 12.5t28.5 12.5q31 14 53 22q27 12 45 21v71q0 3 -4 15q-2 8 -6 20q-6 22 -8 27q-16 32 -29 77q-10 48 -10 91q0 63 12 106q16 46 37 70q26 29 55 41q30 12 66 12 q35 0 65 -12q34 -14 54 -39q22 -24 37 -72q14 -51 14 -106q0 -43 -10 -88q-12 -43 -29 -76q-2 -5 -5 -15.5t-5 -15.5q-2 -6 -6 -22q-2 -6 -2 -15v-74q5 -3 12 -6t17 -7t16 -7q20 -8 51 -23q9 -4 27.5 -12t27.5 -12q10 -3 29 -11t24 -10q3 -2 10.5 -5t10.5 -5h-2 q-9 -4 -28 -12t-28 -12q-7 -2 -20.5 -8.5t-17.5 -8.5q-10 -4 -31 -13t-31 -13l-37 -17q-79 -34 -92 -39t-30.5 -12.5t-29.5 -12t-22 -8.5q-42 -17 -55 -20h-2q-52 -20 -92 -66q-32 -35 -54 -77q-2 -6 -7 -17.5t-7 -17.5h-242zM606 6v195v6q11 45 33 94q14 32 51 78 q38 44 94 65h2q7 3 26.5 10t29.5 11q12 4 80 33q82 37 94 41l37 14q26 13 61 27q21 9 39 18q5 2 24.5 10t28.5 13q10 5 45 20v80q0 2 -4 18q-2 6 -5 17.5t-5 17.5q-6 18 -12 39q-18 61 -33.5 89.5t-20.5 49.5q-18 68 -18 168q0 113 25 199q27 86 73 141q45 53 113 82 q69 27 133 27q69 0 133 -25q64 -27 113 -82q50 -56 74 -141q26 -89 26 -201q0 -79 -20 -164q-19 -79 -51 -137q-1 -4 -5 -16.5t-6 -18.5l-4 -12q-8 -23 -10 -37l-4 -12v-90q33 -14 45 -21q14 -5 53 -22l37 -17q6 -3 9 -3h4t5.5 -1t17 -7t34.5 -17l24 -13q17 -8 49.5 -20.5 t40.5 -15.5q16 -8 37 -15q31 -14 39 -16q51 -21 53 -21q63 -23 97 -65q30 -37 51 -78q23 -50 31 -96l2 -4v-195h-1766zM1841 727q6 1 23 10q13 4 55 23q30 12 57 24q9 4 18.5 8t20.5 9t17 8q9 3 25 10.5t20 9.5v70l-4 16q-1 2 -2.5 6t-2.5 7.5t-2 7.5l-4 12t-4 15 q-21 40 -28 75q-13 47 -13 90q0 53 15 107q13 46 36 72q20 25 54 39q30 12 65 12q36 0 66 -12q32 -13 55 -39q27 -35 37 -70q12 -37 12 -109q0 -52 -10 -88q-7 -32 -29 -75q-1 -6 -4 -16t-4 -13q-5 -20 -6 -23l-4 -16v-74q8 -2 23.5 -9t21.5 -9q9 -4 26.5 -12.5t26.5 -12.5 q26 -9 56 -22q4 -2 23 -10.5t28 -12.5q36 -13 45 -18q7 -3 18 -6.5t15 -5.5q22 -8 43 -29q15 -18 24 -39q16 -28 16 -127v-139h-241q-7 23 -15 35q-13 34 -51 79q-37 43 -96 64q-6 3 -23.5 9.5t-27.5 10.5q-6 2 -41 17q-25 10 -37 14q-16 6 -45.5 19.5t-44.5 19.5l-25 10 q-11 5 -33.5 14.5t-33.5 14.5l-39 16q-4 1 -51 25q-5 1 -12 4t-9 4z" />
<glyph unicode="9" horiz-adv-x="2048" d="M256 829q0 165 64.5 315.5t173.5 259t259 172.5t314 64q221 0 408 -108.5t296 -295t109 -407.5t-109 -407.5t-296 -295t-408 -108.5q-164 0 -314 64t-259 172.5t-173.5 259t-64.5 315.5zM496 877q-3 -98 14 -182.5t48.5 -144t74 -108.5t89.5 -79.5t94.5 -53.5t90.5 -34 t76.5 -18t53.5 -8l20 -1q12 0 33.5 0.5t82.5 11.5t117 32t124 67.5t117 110.5t82.5 169.5t33.5 237.5h-1151zM821 1106q0 -19 13 -32t32 -13h49q19 0 32.5 13t13.5 32v174q0 16 -2.5 26.5t-6.5 15.5t-8.5 7.5t-9.5 2t-9 -2t-7 -3.5l-3 -1h-49q-19 0 -32 -13t-13 -32v-174z M1159 1106q0 -19 13 -32t32 -13h47q20 0 33.5 13t13.5 32v174q0 19 -13.5 32t-33.5 13h-47q-19 0 -32 -13t-13 -32v-174z" />
<glyph unicode=":" horiz-adv-x="2723" d="M285 543q0 172 53 332.5t150.5 290t227 226.5t290.5 150t333 53q214 0 409 -83t336 -224t224.5 -336t83.5 -409q0 -291 -143 -533h-1821q-143 248 -143 533zM457 518q0 -34 23.5 -53.5t52 -19.5t52 19.5t23.5 53.5q0 30 4 84q0 1 1 6.5t1 7.5t1 7.5t1 7.5q1 6 11 47 q11 51 20 78q6 12 15 39q4 8 4 10q2 3 5 10t5 10q38 78 82 136l8 10q2 3 6 8t6 8q19 19 27 29q45 45 63 59q6 6 15 12q6 7 10 9l11 8q11 7 16 12q52 33 73 45q28 14 37 17q7 5 17 8l4 2q1 0 2 1t2 1q67 25 82 29q14 3 40 9t40 9q3 0 10 1t10 1h2q2 0 6 2q7 1 23 2t24 2h86 q7 -1 20.5 -2t20.5 -2q1 0 7.5 -1t7.5 -1q3 0 10 -1t10 -1q52 -9 131 -35q15 -6 33 -12q6 -4 18 -8q9 -5 29 -15.5t29 -15.5q18 -9 57 -35q4 -3 13.5 -10t13.5 -10h2q11 -11 14 -13q49 -40 98 -96q9 -12 19 -22l6 -9q7 -10 8 -12q17 -23 35 -55q5 -7 33 -58q2 -5 6 -14 t6 -14l8 -21q26 -71 37 -131q1 -6 3 -17.5t3 -17.5q2 -6 2 -20q4 -54 4 -78q0 -34 24 -53.5t52 -19.5t52 19.5t24 53.5q-2 180 -73.5 346.5t-201.5 290.5q-131 125 -302 187.5t-351 52.5q-167 -9 -319.5 -80t-268.5 -193q-115 -121 -177 -278.5t-64 -325.5zM1108 975 l72 -397q-66 -72 -66 -166q0 -101 72 -173.5t172 -72.5q101 0 173.5 72.5t72.5 173.5t-72 172t-174 71h-15zM1214 412q0 60 42.5 101.5t101.5 41.5q60 0 102.5 -41.5t42.5 -101.5t-42.5 -102t-102.5 -42q-59 0 -101.5 42t-42.5 102z" />
<glyph unicode=";" horiz-adv-x="2048" d="M213 821q0 164 64 314t172.5 258.5t258.5 172.5t314 64t314 -64t258.5 -172.5t172.5 -258.5t64 -314t-64 -314t-172.5 -258.5t-258.5 -172.5t-314 -64t-314 64t-258.5 172.5t-172.5 258.5t-64 314zM340 834q2 -24 10 -58q2 -12 4 -36.5t2 -26.5q0 -23 2 -33q0 -8 3.5 -24 t3.5 -19q1 -2 2 -6t2 -6q0 -2 1 -5.5t1 -5.5q10 -30 22 -57v-2q2 -3 8 -16t9 -19t10 -18.5t10 -18.5q57 -96 139 -172q136 -124 328 -159q0 12 -2 20q-6 19 -23 29q-1 2 -4 7t-4 7q-6 10 -18.5 30.5t-18.5 30.5q-6 34 -10 97q-1 41 -4 66t-15 57t-34 55q-110 118 -45 194 q10 13 6 25q-8 35 -131 92q-4 2 -19 2q-28 0 -40 8q-23 14 -84 89q-10 -5 -15 -5q-16 0 -26 17q-8 13 -11 26l-6 -30q-3 -26 -39 -62q-5 -3 -12 -14q-2 -18 -2 -59zM584.5 968q-3.5 -13 1.5 -22q9 -7 15 -5t16 7.5t16 5.5q20 0 31 -8t23.5 -29t19.5 -30q20 -24 41 -27.5 t50.5 2t49.5 2.5q34 -6 72 -23t60 -31t64 -42q74 -51 113 -68q31 -12 35 -38q7 -24 -8 -62t-34.5 -68.5t-59.5 -87.5q-4 -6 -17 -24.5t-18 -26t-16.5 -24.5t-17 -26.5t-14.5 -24t-14 -25t-11 -23t-9.5 -23t-5.5 -20.5q-13 -13 -15 -24q-6 -34 13 -62q18 -2 57 -2 q114 0 217 35q100 47 166 96q7 5 20.5 15.5t20.5 15.5q46 30 70 51q49 53 69 82q18 31 55 125l9 21q2 6 2 16q0 11 -4 39l-2 16q-7 56 -24.5 72t-47.5 16h-29q-10 -2 -35 -2q-68 0 -110 47q-75 84 -51 164q21 78 137 139h-8q-21 6 -29.5 26.5t-3.5 45.5v8q0 25 26 25h17 q8 0 16 8q-1 1 -3 4t-3 4q-8 13 -6 25h-6q-26 6 -37 27q-7 24 4 40q16 20 25 29q-45 42 -109 80q-2 -1 -7 -2t-7 -2q-33 -6 -99 -14q-28 -6 -48 -3t-33 25q0 3 -1.5 10t-1.5 9q-5 29 -30 61q-55 10 -99 10q-9 -12 -12 -24q-4 -2 -16 -6q15 -10 16 -11q2 -11 17 -26 q5 -6 22 -33q-5 -16 -31 -27q-2 0 -6 -1t-6 -1q-30 -10 -41 -10q1 -1 2 -3t2 -3q15 -19 23 -21q27 -10 39.5 -29t23.5 -61q6 -24 -8 -45q-14 -14 -29 -14q-6 0 -10 2q-21 5 -27 22v11h-10q-1 0 -2 1t-2 1q12 -14 8 -25q0 -18 -26 -26q-35 -11 -64.5 -30.5t-45.5 -36 t-43.5 -49t-45.5 -50.5q-23 -23 -46 -23t-22 37q-22 2 -59.5 -8.5t-48.5 -24.5q-6 -8 -9.5 -21zM684 967q7 19 47.5 0.5t48.5 -33.5q-3 5 -8 8l8 -10q-17 0 -58 11.5t-38 23.5zM774 913q26 46 98 9q-7 -12 -43.5 -13.5t-54.5 4.5zM791 1339q2 -4 2 -10q2 -6 14 -14 q5 -2 13 -9l9 -6q1 0 6.5 -4t8.5 -8q2 2 5 6t5 6q35 45 41 54q1 1 2 3t2 3q-10 -7 -18 -4h-4h-33q-28 0 -43 -6q-6 -3 -10 -11zM809 1470q2 -22 15 -36.5t36 -14.5q32 0 44.5 24.5t4.5 51.5q-40 -7 -100 -25zM913 1372q5 3 19 8q0 2 -1 5t-1 4q0 10 6 16l-10 -2 q-6 -20 -13 -31zM1546 1114q4 2 14.5 5t14.5 5q8 0 12 11q2 2 0 4q-2 4 -6 4t-12 -4q-6 -8 -23 -25z" />
<glyph unicode="&#x3c;" horiz-adv-x="1560" d="M139 113v620q0 42 30.5 72.5t72.5 30.5h34v319q0 97 38.5 186t103.5 153t155 102t189 38q131 0 242.5 -64t177 -174.5t65.5 -240.5v-319h35q42 0 72 -30.5t30 -72.5v-620q0 -42 -30 -72.5t-72 -30.5h-1040q-42 0 -72.5 30.5t-30.5 72.5zM553 836h416v319q0 105 -55 174.5 t-152 69.5q-98 0 -153.5 -70t-55.5 -174v-319z" />
<glyph unicode="=" horiz-adv-x="2910" d="M246 279q0 104 73.5 177.5t176.5 73.5q37 0 84 -14l292 381q-41 59 -41 137q0 103 74 176.5t178 73.5q103 0 176.5 -73.5t73.5 -176.5q0 -58 -24 -108l252 -252q57 24 108 24q30 0 57 -6l332 522q-53 69 -53 154q0 104 73.5 178t176.5 74q104 0 178 -74t74 -178t-74 -178 t-178 -74q-19 0 -55 8l-334 -524q55 -64 55 -154q0 -104 -73.5 -176.5t-178.5 -72.5t-178.5 72.5t-73.5 176.5q0 53 27 109l-254 252q-52 -25 -107 -25q-36 0 -77 13l-295 -385q37 -60 37 -131q0 -103 -74 -176.5t-178 -73.5q-103 0 -176.5 73.5t-73.5 176.5z" />
<glyph unicode="&#x3e;" horiz-adv-x="2181" d="M201 131v1313q0 75 52.5 128.5t127.5 53.5h1364q75 0 128.5 -53.5t53.5 -128.5v-1036q0 -75 -53.5 -129t-128.5 -54h-1141l-186 -180q-41 -41 -92 -41q-52 0 -88.5 37t-36.5 90z" />
<glyph unicode="?" horiz-adv-x="1046" d="M45.5 1284.5q-14.5 55.5 13.5 104.5q67 115 185.5 182t253.5 67q138 0 255 -67.5t185 -184t68 -253.5q0 -172 -103.5 -308t-269.5 -180v-131q0 -59 -38.5 -98t-96.5 -39q-57 0 -97.5 40t-40.5 97v248q0 55 41 96t97 41q98 0 167.5 68.5t69.5 165.5q0 98 -68.5 165.5 t-168.5 67.5q-63 0 -116.5 -31t-84.5 -84q-28 -49 -84.5 -64t-103.5 13q-49 29 -63.5 84.5zM360 137v23q0 56 40.5 96.5t97.5 40.5t96 -40t39 -97v-23q0 -59 -38.5 -98t-96.5 -39q-57 0 -97.5 40t-40.5 97z" />
<glyph unicode="@" horiz-adv-x="1656" d="M39 608q0 -7 14 -65q15 -52 41 -94q9 -15 19.5 -29.5t21.5 -29.5t15 -21q33 -37 40 -43q3 -3 22.5 -19t35.5 -31q-28 0 -55 9l-58 22q-3 0 0 -8q9 -35 94 -117q41 -41 131 -98q57 -35 129 -53q23 -7 107 -21q51 0 82 6q19 2 33 7q6 1 29.5 9.5t31.5 8.5q64 18 131 8 q43 -5 115 -33q56 -20 168 -14q94 6 164 55q66 46 120 105q58 64 101 151q43 90 37 131q0 3 -4.5 -1t-13 -12t-15.5 -11q-31 -27 -59 -41l-27 -14q36 51 63 110q25 50 50 125q13 48 16 107q3 67 -12 73q-1 1 -4.5 -3.5t-8 -13t-9 -17.5t-9.5 -18.5t-8 -14.5q-24 -30 -37 -34 l-2 1q-1 41 -2 80t-1.5 58t-0.5 24l-11 67q-14 104 -43 172q-19 42 -51 82q-22 25 -53 25t-41 -23q-8 -11 -8 -90v-92q-3 -30 0 -76q3 -45 0 -45q-10 4 -20 7t-15.5 4.5t-10.5 3t-7.5 2.5t-4 2t-2 3t-0.5 5q0 2 -2 19.5t-5.5 41.5t-6.5 35l-18 84q-10 41 -29 96 q-9 43 -27 80q0 3 -6.5 21.5t-7.5 21.5q-2 6 -16 41q-19 43 -56 62q-17 11 -41 6.5t-34 -21.5q-13 -25 -15 -71q0 -2 -2 -35.5t-2 -48.5q-2 -12 -2 -84q0 -16 1 -57t1 -46v-82v-34q-13 2 -33 2q-11 2 -11 4q-1 2 -1 14q-2 4 -2 12t-4 38.5t-4 33.5q-16 130 -23 164 q-2 9 -9.5 46.5t-14.5 67.5q-9 41 -29 101q-10 32 -18 42.5t-35 31.5q-18 9 -39.5 4t-32.5 -19q-18 -24 -28 -80q-6 -34 -9 -84l-6 -86q-4 -57 -4 -90q2 -122 2 -190q0 -7 -1.5 -10t-4 -4.5t-10.5 -2.5l-25 -4q-7 -3 -12 2v2l-21 213q-10 118 -34 199q-4 12 -6.5 20.5 t-8 20.5t-10.5 19t-13 15.5t-16.5 10.5t-21 4t-25.5 -4q-28 -7 -47 -78q-18 -58 -22 -90q-4 -23 -13 -104l-8 -84q-8 -80 -8 -181q0 -8 1 -25.5t0.5 -26t-3.5 -20t-10 -18.5q-40 -42 -54 -28q-35 35 -32 84q3 54 0 88q-1 15 -17 35.5t-33 31.5q-37 24 -75 4 q-50 -20 -78 -125q-9 -37 -6 -106q3 -45 12 -84q12 -55 64 -137q-31 -3 -62 22q-10 8 -21.5 21t-17.5 18t-10 0zM150 1042q-6 14 6 48q13 32 28 47q27 30 56 39q7 2 11.5 -3t6 -15t1.5 -18t-0.5 -19.5t-0.5 -12.5q0 -48 -6 -57q-2 -4 -5 -6.5t-8.5 -3t-10.5 -0.5t-14 0.5 t-15 0.5h-49zM270 330q-5 5 4 35l27 88l18 65q3 11 8.5 30.5t11.5 38.5t7 23l4 15q10 33 13 40t12 7q12 4 78 4q75 0 106 -8q3 -1 12 -3t13.5 -4t13 -6t16.5 -11t17 -17q27 -27 35 -58q17 -63 -19 -137q-25 -58 -98 -102q-59 -35 -164 -23q-7 1 -30.5 3.5t-41.5 4.5 q-40 6 -43 15zM399 418l9 31q6 26 20 79q0 7 16 64q46 0 64 -6q30 -17 39.5 -45.5t-4.5 -59.5q-15 -31 -29 -41q-25 -16 -42 -21t-52 -5q-5 0 -21 4zM455 1459q0 3 2 9q11 52 22 70q15 31 33 31q17 -3 33 -45q18 -56 6 -74q-1 -1 -37 2q-6 1 -22 -1q-37 -5 -37 8zM559 283 q0 1 7 7.5t16 15t12 11.5l39 33l26 21l21 -1q20 -1 25 -1q7 0 12.5 -0.5t8.5 -0.5l3 -1l21 82q18 81 22 104q0 3 1 6t1 6q0 2 2 4l-37 2q-11 2 -21 2t-12.5 -0.5t-5.5 0.5l-14 27q-10 29 -20 43q-12 22 -9 25h25h86q11 0 34.5 0.5t47 0.5t47.5 -1q72 0 76 -4t22 -50 q19 -45 15 -49q-2 -4 -43 -4q-41 2 -74 2h-23q-1 1 -3 -11.5t-4.5 -28t-4.5 -19.5q-7 -37 -18 -84q0 1 -1.5 -3t-3.5 -14t-4 -22q-3 -20 0 -23q13 0 19 -2q22 -4 49 -6q3 -1 76 -10q13 0 0 -16q-22 -33 -49 -60q-23 -26 -29 -28q-6 -3 -25 0q-42 5 -90 12q-17 0 -57 6 t-53 10q-21 2 -40 5t-31.5 5.5t-22 4.5t-14.5 3zM721 1544q4 41 16 68q9 26 29 26q12 0 26.5 -19t20.5 -44q12 -48 4 -59q-3 -3 -9.5 -3t-16 1.5t-13.5 1.5q-9 1 -17 0t-18 -2t-12 -1q-13 -3 -10 31zM965 225q-5 8 26 39q21 21 37 45q13 16 30 34.5t27.5 30.5t14.5 21 q17 23 14 29l-14 39q-3 7 -17.5 37t-23.5 53l-31 78q-12 35 -12 37q4 4 47 4q4 0 18 1t19 1h24q1 0 17 -4l26 -54q0 -1 25 -51q0 -4 4 -8q2 -3 6 -11.5t6 -13.5q1 1 3.5 4t7 8.5t8.5 10.5l24 31q29 33 43 55q24 30 39 33q39 2 51 2h37q54 0 58 -4l-7 -12q-6 -9 -25 -35 l-28 -41l-94 -135q-16 -24 -29 -37l-28 -37q-3 -6 -11.5 -15.5t-9.5 -11.5l-63 -80l-33 -43q-18 -24 -25 -24q-8 -4 -86 8q-64 9 -75 16zM985 1458q-2 24 2 64q3 37 35 12q25 -25 41 -45q9 -11 14.5 -29t1.5 -22q-3 -3 -10 -3.5t-17.5 0.5t-13.5 1q-4 0 -18.5 -2t-18.5 -2 q-13 0 -16 26zM1296 1298q3 24 29 11q31 -14 49 -37q28 -42 23 -49q-19 -5 -39 2q-7 0 -21.5 -3t-17.5 -3q-13 0 -16 26q-2 14 -3.5 27t-2.5 19t-1 7z" />
<glyph unicode="A" horiz-adv-x="1720" d="M41 805v16q0 325 233 570q229 241 576 247h17q327 0 567 -231q239 -233 245 -578v-16q0 -327 -233 -569q-229 -238 -576 -244h-16q-323 0 -563 231q-244 232 -250 574zM215 809q6 -274 193 -455q190 -184 450 -184h8q277 6 457 195q182 191 182 452v8q-6 278 -196 459 q-190 184 -451 184h-8q-270 -6 -453 -198q-182 -188 -182 -452v-9zM414 819q0 -111 64.5 -177.5t168.5 -66.5q144 0 207 123l-96 52q-28 -72 -99 -72q-51 0 -76.5 38t-25.5 103q0 142 102 142q22 0 46.5 -16.5t42.5 -47.5l106 53q-64 113 -211 113q-101 0 -165 -66.5 t-64 -177.5zM866 819q0 -116 64.5 -180t173.5 -64q62 0 117 33t86 90l-97 52q-25 -72 -96 -72q-52 0 -79 38t-27 103q0 142 106 142q49 0 86 -64l107 53q-64 113 -211 113q-101 0 -165.5 -66.5t-64.5 -177.5z" />
<glyph unicode="B" horiz-adv-x="1736" d="M35 814q2 156 63 307.5t174 264.5q124 124 281.5 188.5t314.5 64.5t309 -64.5t265 -188.5q124 -113 188.5 -262.5t64.5 -304t-64.5 -309.5t-188.5 -279q-113 -114 -267 -175t-312 -63h-10q-153 1 -305 59q-158 60 -276 179q-118 118 -178 273q-59 150 -59 301v9z" />
<glyph unicode="C" horiz-adv-x="1726" d="M41 993q0 269 186 455q190 190 455 190q266 0 467 -198q199 -196 199 -463q0 -174 -93 -332l394 -395q37 -38 37 -72q0 -28 -25 -53l-98 -98q-28 -27 -69 -27t-69 27l-397 395q-148 -86 -321 -86q-270 0 -467 194q-199 196 -199 463zM254 1107q-14 -55 -14 -111 q0 -60 16 -121q32 -117 123 -207q89 -90 207 -122q62 -17 122 -17q54 1 110 15q116 30 202 115q87 87 117 202q14 54 14 109q1 61 -17 123q-34 117 -126 205q-148 142 -326 142q-180 0 -311 -131q-87 -87 -117 -202z" />
<glyph unicode="D" horiz-adv-x="2107" d="M51 1137q0 214 164 364q146 137 350 137q205 0 357 -137l133 -119l131 119q149 137 352 137q210 0 356 -137q164 -150 164 -364q0 -215 -164 -365l-839 -772l-840 772q-164 148 -164 365z" />
<glyph unicode="E" horiz-adv-x="1720" d="M41 559q73 43 116.5 113.5t43.5 146.5q0 147 -160 236q25 93 68 164q31 -7 61 -7q108 0 203 95q78 78 78 182q0 39 -11 82q70 40 164 67q45 -74 115.5 -113.5t142.5 -39.5t142.5 39.5t115.5 113.5q80 -27 164 -67q-13 -45 -13 -86q0 -101 77 -178q96 -96 204 -96 q31 0 62 8q45 -81 65 -164q-155 -90 -155 -236q0 -143 155 -239q-18 -67 -65 -160q-32 8 -62 8q-108 0 -204 -96q-77 -77 -77 -178q0 -41 13 -86q-92 -43 -164 -68q-45 74 -115.5 113.5t-142.5 39.5t-142.5 -39.5t-115.5 -113.5q-91 26 -164 68q11 43 11 82q0 104 -78 182 t-182 78q-39 0 -82 -11q-41 77 -68 160zM472 715q28 -105 106 -183q117 -117 282.5 -117t282.5 117q123 123 123 286q0 165 -123 284q-120 117 -281.5 117t-283.5 -117q-77 -76 -105 -179q-14 -52 -14 -104q-1 -52 13 -104z" />
<glyph unicode="F" d="M37 426v791l221 -130v-532zM57 391l222 127l456 -262v-256zM61 1249l674 389v-256l-452 -260zM776 0v256l461 262l221 -127zM776 1382v256l680 -391l-221 -127zM1253 557v526l224 127v-782z" />
<glyph unicode="G" horiz-adv-x="1433" d="M35 115v1409q0 80 43 106q17 9 37 9q32 0 73 -25l1168 -725q19 -12 30 -29.5t12 -29.5l1 -11q0 -44 -43 -69l-1168 -725q-41 -25 -73 -25q-20 0 -37 10q-43 25 -43 105z" />
<glyph unicode="H" horiz-adv-x="1810" d="M49 1118q-7 19 -7 34q0 39 44 54l1174 428q12 5 24 5q14 0 26 -7q22 -12 33 -41l179 -485h-174l-213 258l-371 -258h-309q-91 0 -155 -66.5t-64 -160.5v-273zM391 68v811q0 31 18 51t46 20h1249q28 0 45.5 -20t17.5 -51v-811q0 -28 -18 -48t-45 -20h-1249q-27 0 -45.5 20 t-18.5 48zM571 172h1035v279l-123 276l-287 -104l-223 -230l-240 297l-162 -371v-147z" />
<glyph unicode="I" horiz-adv-x="2111" d="M51 166v1059q0 180 174 180h244q59 0 99.5 32t41.5 81q3 53 45.5 86.5t96.5 33.5h610q52 0 94 -33.5t45 -86.5q1 -49 42 -81t99 -32h244q176 0 176 -180v-1059q0 -66 -50 -116t-116 -50h-1679q-67 0 -116.5 50t-49.5 116zM492 686q0 -153 75.5 -283t205.5 -206t284 -76 q153 0 283 76t206 206t76 283q0 154 -76 284t-206 205.5t-283 75.5q-154 0 -284 -75.5t-205.5 -205.5t-75.5 -284zM639 686q0 173 122.5 295.5t295.5 122.5q172 0 295 -122.5t123 -295.5q0 -172 -123 -295t-295 -123q-173 0 -295.5 123t-122.5 295z" />
<glyph unicode="J" horiz-adv-x="2484" d="M61 377v885q0 155 109 264q112 112 268 112h885q152 0 264 -112q113 -113 113 -264v-228l723 604v-1638l-723 604v-227q0 -155 -113 -268q-109 -109 -264 -109h-885q-159 0 -268 109t-109 268z" />
<glyph unicode="K" horiz-adv-x="1488" d="M35 410v819l710 409l707 -409v-819l-707 -410z" />
<glyph unicode="L" horiz-adv-x="1724" d="M41 217l375 -217l377 217v432l-377 217l-375 -217v-432zM489 989v432l375 217l373 -217v-432l-373 -217zM934 217l375 -217l374 217v432l-374 217l-375 -217v-432z" />
<glyph unicode="M" horiz-adv-x="2279" d="M53 862l873 776v-467q175 0 332 -43.5t272.5 -111.5t217 -165t169 -190t125.5 -200q52 -97 100 -217.5t64 -177.5l18 -66q-133 233 -298.5 356.5t-387.5 169.5q-149 31 -281 42.5t-331 11.5v-523z" />
<glyph unicode="N" horiz-adv-x="2156" d="M51 215q0 -33 23.5 -56.5t56.5 -23.5h635h33q64 0 106 -51q68 -84 172 -84q106 0 174 84q42 51 107 51h33h634q32 0 56 24t24 56v961q0 32 -24 55.5t-56 23.5h-16v-856q-244 0 -502.5 -77t-429.5 -207q-169 130 -429 207t-503 77l2 856h-16q-33 0 -56.5 -23.5 t-23.5 -55.5v-961zM217 479v1159q455 0 834 -276v-1159q-374 276 -834 276zM1106 205v1157q379 276 833 276v-1159q-457 0 -833 -274z" />
<glyph unicode="O" horiz-adv-x="1511" d="M37 0v1233v8v397h1438v-1073v-401v-164l-234 150l-235 -150l-242 150l-242 -150l-241 150zM195 744q9 -18 30 -19h1055q19 0 27 18.5t0 37t-27 18.5h-1055q-21 -1 -30 -19q-4 -9 -4 -18t4 -18zM195 965q9 -19 30 -19h1055q19 0 27 19t0 38t-27 19h-1055q-21 0 -30 -19 q-4 -10 -4 -19t4 -19zM201 1178q9 -18 30 -19h1055q20 1 28 19q4 9 4 18q0 8 -4 18q-8 18 -28 19h-1055q-21 -1 -30 -19q-4 -9 -4 -18t4 -18zM201 1399q9 -19 30 -19h1055q20 0 28 19q4 10 4 19q0 10 -4 19q-8 19 -28 19h-1055q-21 0 -30 -19q-4 -10 -4 -19t4 -19z" />
<glyph unicode="P" horiz-adv-x="2627" d="M63 223q6 81 64 172q101 159 240 279l151 131l25 -162q0 -16 -13 -37l-92 -149q-19 -29 -19 -64q0 -27 11 -57q35 -87 148 -90h20q127 0 313 67q299 111 721 373q231 143 379 279q125 116 172 215q21 43 21 81q0 33 -14 61q-32 64 -115 75q-7 1 -24 1q-25 0 -77 -2 q-84 -3 -86 -3q-23 0 -35 6q-33 20 -135 102l260 88q146 50 285 50q58 0 115 -9q112 -19 160 -98q27 -45 27 -100q0 -40 -15 -86q-33 -103 -121 -207q-148 -182 -418 -385q-19 -11 -26 -41q-35 -191 -150 -330q-137 -165 -344 -220q-87 -23 -175 -23q-121 0 -243 44 q-29 11 -53 0q-349 -143 -551 -174q-62 -9 -117 -9q-84 0 -151 22q-139 46 -139 178q0 11 1 22zM635 840q6 -248 131 -418q14 -18 34 -18q7 0 15 2q124 41 298.5 126.5t332.5 182.5q192 118 310 198t171 136q11 11 11 25q0 9 -5 20q-89 184 -230.5 282t-340.5 117 q-30 2 -59 2q-217 0 -400 -137q-200 -152 -252 -400q0 -1 -2 -13t-6 -41.5t-8 -63.5z" />
<glyph unicode="Q" horiz-adv-x="1716" d="M41 299q0 51 10 109q20 120 80 178q74 68 168 90q40 10 78 10q54 0 106 -18l265 264l260 262q-17 50 -17 102q0 42 11 84q23 98 92 168q35 35 112 60.5t117 25.5q23 4 57 4q29 -2 35 -17.5t-16 -37.5l-121 -121q-20 -21 -19.5 -48t19.5 -48l125 -129q21 -21 49 -20t49 20 l123 121q23 21 37 16t14 -35v-51q0 -53 -24 -125t-62 -110q-70 -70 -169 -93q-39 -9 -78 -9q-56 0 -109 20l-260 -264l-264 -263q18 -51 18 -106q0 -39 -9 -81q-22 -100 -93 -167q-41 -40 -113.5 -63t-118.5 -23q-23 -4 -53 -4q-30 2 -37 17.5t14 37.5l121 121q21 22 21 48 t-21 48l-125 129q-19 21 -47.5 21t-50.5 -21l-123 -120q-23 -22 -37 -16.5t-14 34.5z" />
<glyph unicode="R" horiz-adv-x="1839" d="M45 795q-1 10 -1 19q0 28 9 52q12 33 25 46l14 14l660 663q48 49 116 49q1 0 1 1q68 0 114 -48q49 -49 49 -117q0 -67 -49 -116l-381 -383h1028q68 0 116 -48.5t48 -115.5q0 -69 -48 -116.5t-116 -47.5h-1020l373 -366q48 -48 48 -117q0 -66 -46 -115q-49 -49 -117 -49 q-67 0 -114 47l-660 645q-45 44 -49 103z" />
<glyph unicode="S" horiz-adv-x="1720" d="M41 819q0 66 47 113t113 47h499v500q0 66 47 112.5t113 46.5t113 -46.5t47 -112.5v-500h500q66 0 112.5 -47t46.5 -113t-46.5 -113t-112.5 -47h-500v-499q0 -66 -47 -113t-113 -47t-113 47t-47 113v499h-499q-66 0 -113 47t-47 113z" />
<glyph unicode="T" horiz-adv-x="1816" d="M46 789q10 58 58 92q36 24 77 24h9q46 -3 80 -33l334 -284l975 1016q34 34 80 34q1 0 1 1q45 0 79 -35q31 -30 34 -74v-10q0 -38 -22 -68l-950 -1350l-8 -12q-49 -74 -137 -88q-19 -3 -37 -3q-66 0 -121 42q-34 30 -49 55l-381 584q-24 38 -24 81q-1 14 2 28z" />
<glyph unicode="U" horiz-adv-x="1720" d="M61 356l461 463l-461 463q-61 62 -61 148v1q0 85 61 146t146 61h1q86 0 148 -61l463 -461l463 461q62 61 148 61h1q85 0 146 -61t61 -146v-1q0 -86 -61 -148l-461 -463l461 -463q61 -62 61 -148v-1q0 -85 -61 -146t-146 -61h-1q-86 0 -148 61l-463 461l-463 -461 q-62 -61 -148 -61h-1q-85 0 -146 61t-61 146q0 86 61 149z" />
<glyph unicode="V" horiz-adv-x="1996" d="M55 1415q0 45 17.5 83.5t57 64.5t93.5 26h1551q54 0 93.5 -26t57 -64.5t17.5 -83.5t-17.5 -83.5t-57 -64.5t-93.5 -26h-1551q-54 0 -93.5 26t-57 64.5t-17.5 83.5zM58 178q-4 18 -4 37t4 37q8 37 27 68t55.5 50t82.5 19h1551q46 0 82.5 -19t55.5 -50q20 -31 28 -68 q4 -18 4 -37t-4 -37q-8 -37 -27.5 -68t-56 -50t-82.5 -19h-1551q-46 0 -82.5 19t-55.5 50t-27 68zM58 778q-4 18 -4 37t4 37q8 37 27 68t55.5 50t82.5 19h1551q46 0 82.5 -19t55.5 -50q20 -31 28 -68q4 -18 4 -37t-4 -37q-8 -37 -27.5 -68t-56 -50t-82.5 -19h-1551 q-46 0 -82.5 19t-55.5 50t-27 68z" />
<glyph unicode="W" horiz-adv-x="1009" d="M25 104v1430q0 43 30 73.5t74 30.5h754q43 0 73.5 -30.5t30.5 -73.5v-1430q0 -43 -30.5 -73.5t-73.5 -30.5h-754q-44 0 -74 30.5t-30 73.5zM76 225h860v1270h-860v-1270z" />
<glyph unicode="X" horiz-adv-x="1886" d="M199 989q21 3 49 12t71.5 36t69.5 65q48 67 62 174q23 153 38 231.5t21.5 94.5t13.5 16q30 0 150 -344q85 27 140 38t120 11q98 0 264 -53q54 153 97.5 249.5t58.5 96.5q29 0 67 -299q5 -39 21 -94.5t35 -94.5q18 -38 49.5 -67.5t53.5 -41.5t56 -26t35 -14 q-6 -21 -23.5 -54.5t-53.5 -83.5t-82 -98.5t-116 -99.5t-149 -86q-65 -27 -89 -59q-20 -26 -20 -60q0 -7 1 -14q5 -34 34 -64.5t80 -37.5q72 -10 117 -21t74 -31t41.5 -34t36.5 -48q35 -66 39 -170h-1250q0 42 12.5 89t24.5 73l12 27q31 56 84.5 79.5t125.5 31.5t94 16 q21 12 29 17t24.5 18.5t23.5 29.5t7 35q0 82 -111 121q-116 39 -202.5 95.5t-133.5 118t-70.5 115t-31.5 105.5z" />
<glyph unicode="Y" horiz-adv-x="1839" d="M45 811q0 68 47.5 116t116.5 48h1028l-383 383q-49 49 -49 117q0 69 51 116q47 48 114 48q1 0 2 -1q68 0 115 -49l660 -663q6 -5 15 -15t22 -44q11 -26 11 -55q0 -8 -1 -17q-2 -26 -14 -52t-24 -39l-11 -12l-660 -645q-47 -47 -114 -47q-68 0 -117 49q-46 49 -46 115 q0 69 48 117l373 366h-1020q-69 0 -116.5 47.5t-47.5 116.5z" />
<glyph unicode="Z" horiz-adv-x="1564" d="M37 657q0 48 9.5 106t39 122t72.5 86q15 7 40 7.5t42 -9.5q31 -26 31 -113q0 -18 -1 -39q-3 -27 -3 -46q0 -26 6 -37q8 -13 26 -13q31 8 44 17.5t21.5 40t8.5 91.5q0 201 20 340q10 71 29.5 114.5t40.5 49.5q12 3 22 3q25 1 39 -17q22 -26 35 -72q9 -26 17.5 -76 t14.5 -103.5t10.5 -102.5t7.5 -82t3 -35q20 4 52 6q-1 3 -1 38v42q1 75 1 115q0 38 1.5 89t13 133.5t30.5 108.5q11 16 38 19.5t48 -13.5q54 -52 88 -272q14 -75 20.5 -121t9.5 -84t5 -53q12 -4 40 -4q0 4 -4 99t-4 110q-1 25 -1 48q0 111 24 181q8 23 23 31t28.5 4.5 t26.5 -12.5q28 -20 54.5 -71t37.5 -85.5t18 -62.5q18 -65 32.5 -131.5t20 -100.5t5.5 -39l1.5 -4.5t2 -3t6 -2.5t9.5 -2.5t15.5 -4.5t22.5 -7q1 12 1 26t-0.5 40t-0.5 50q0 148 10 179q9 26 41 24t49 -29q72 -107 110 -264t40 -270v-27q0 -97 -18 -187q-22 -104 -54 -165 q-109 -203 -305 -217q-11 -1 -23 -1q-41 1 -86 9q-58 10 -108 24t-60 15q-15 2 -34 2q-14 1 -32 -1q-38 -2 -58 -9q-58 -19 -114 -23q-17 -1 -34 -1q-38 0 -74 6q-52 9 -96 25t-94 42q-34 17 -86.5 65t-95.5 107q-59 81 -88 175t-29 222zM132 1057q3 17 9 28q14 30 39 58 q36 36 76 43q9 2 15 -3t7.5 -16t2 -20.5t-0.5 -23.5t-1 -17q0 -53 -7 -66q-5 -9 -13.5 -11t-27.5 0.5t-30 2.5t-29 -2t-27.5 -2t-11.5 4q-2 5 -2 12q0 6 1 13zM420 1442q0 33 22 81t50 47q26 0 46 -69q13 -46 13 -65q0 -10 -4 -13q-9 -3 -13 -2.5t-19.5 3.5t-31.5 3 q-11 1 -23 -1t-18.5 -3t-12.5 -1q-6 2 -8 6q-1 3 -1 8v6zM697 1562q21 76 44 76q31 0 54 -72q17 -52 17 -72q0 -8 -3 -11q-4 -5 -11 -5.5t-22.5 2.5t-17.5 3q-10 1 -29.5 -3t-30.5 -1t-11 25q0 21 10 58zM936 1526q2 19 16 23q3 1 7 1q11 0 24 -10q25 -21 44 -48.5t26 -47.5 t2 -25q-3 -4 -11.5 -4.5t-23 1t-19.5 1.5q-6 0 -21 -4t-24 -2q-24 6 -24 62q0 23 4 53zM1227 1303q1 14 13 18q4 1 8 1l16 -5q31 -18 55.5 -43t34.5 -44q6 -12 7 -18q0 -4 -3 -6q-6 -2 -11 -1.5t-18 2t-22 1.5q-11 0 -25 -4q-10 -3 -17 -3q-4 0 -8 1q-18 3 -25 41 q-5 30 -5 49v11z" />
<glyph unicode="[" horiz-adv-x="2408" d="M57 133l674 690l-674 682v-1372zM186 0h2036l-670 686l-127 -129q-83 -86 -217 -86q-129 0 -217 88l-129 131zM186 1638h2050l-942 -948q-33 -33 -86 -33q-51 0 -84 33zM1683 817l668 -684v1356z" />
<glyph unicode="\" horiz-adv-x="1720" d="M41 819q0 167 65 318.5t174.5 261t261 174.5t318.5 65t318.5 -65t261 -174.5t174.5 -261t65 -318.5t-65 -318.5t-174.5 -261t-261 -174.5t-318.5 -65t-318.5 65t-261 174.5t-174.5 261t-65 318.5zM379 458q0 -52 37 -89q37 -36 88.5 -36t87.5 36l272 274l275 -272 q37 -36 87 -36t87 36q36 36 36 86.5t-36 87.5l-273 274l273 273q37 37 37 88t-37 88q-35 35 -87 35t-87 -35l-275 -275l-272 273q-37 37 -88 37t-88 -37q-35 -35 -35 -87t35 -87l274 -275l-274 -272q-37 -35 -37 -87z" />
<glyph unicode="]" horiz-adv-x="2000" d="M205 1376q74 69 183 119.5t211.5 73.5t195 36.5t148.5 14.5l56 2q22 0 59 -1.5t143 -15t201 -36.5t207.5 -73.5t186.5 -119.5l-86 -147q-297 178 -711 178q-415 0 -708 -178zM324 1174q287 172 675 172q391 0 678 -172l-678 -1156zM668 1067q0 -51 39 -87t94 -36t94 36 t39 87t-39 87t-94 36t-94 -36t-39 -87zM801 758q0 -25 19.5 -43.5t47.5 -18.5q26 0 46 18.5t20 43.5q0 26 -19.5 44.5t-46.5 18.5q-28 0 -47.5 -18.5t-19.5 -44.5zM934 481q0 -38 29.5 -65t70.5 -27q40 0 69.5 27t29.5 65t-29.5 65t-69.5 27q-41 0 -70.5 -27t-29.5 -65z M1133 913q0 -38 29.5 -65t70.5 -27t69.5 27t28.5 65t-28.5 65.5t-69.5 27.5t-70.5 -27.5t-29.5 -65.5z" />
<glyph unicode="^" horiz-adv-x="2314" d="M98 934l1844 708l-426 -1488l-568 284l-493 -426v709zM596 297l1133 1133l-1133 -779v-354z" />
<glyph unicode="_" horiz-adv-x="3088" d="M235.5 105q0.5 13 6.5 26l676 1419q23 46 49.5 66t70.5 20h97q45 0 67 -20t33 -66l317 -1419q10 -46 -15 -78.5t-67 -32.5h-96q-48 0 -69.5 20.5t-30.5 68.5l-57 301h-570l-133 -301q-21 -48 -47 -68.5t-74 -20.5h-98q-2 1 -5 3t-11 8t-15 13t-14 17t-11 20.5t-3.5 23.5z M731 606h449l-133 713zM1733.5 319q-12.5 103 5.5 234q35 273 156 415t354 142q198 0 342 -111l12 23q20 37 37 50t51 13h25q34 0 50 -18.5t11 -52.5l-117 -922q-10 -72 -80 -72h-22q-33 0 -48 13.5t-26 48.5l-8 24q-168 -110 -369 -110q-118 0 -198 38t-121.5 110t-54 175z M1978 413.5q3 -64.5 21 -112t66 -75t126 -27.5q129 0 244 61l74 586q-100 61 -228 61q-63 0 -110.5 -18.5t-78 -48t-52 -77.5t-33 -96t-20.5 -114q-12 -75 -9 -139.5z" />
<glyph unicode="`" horiz-adv-x="1837" d="M194 358q18 50 66 72q49 23 99.5 4.5t72.5 -67.5q8 -16 8 -25l293 137l-293 135q0 -8 -8 -24q-22 -49 -72.5 -67t-99.5 5q-47 22 -65.5 72.5t4.5 97.5q27 58 90 72q-30 57 -2 117q21 49 72 67t98 -4q49 -23 67.5 -74t-4.5 -98q-8 -16 -12 -22l410 -193l409 193 q-6 6 -14 22q-23 47 -4.5 98t67.5 74q47 22 98 4t74 -67q25 -61 -4 -117q61 -9 90 -72q22 -47 4 -97.5t-65 -72.5q-49 -23 -99 -5t-73 67q-4 8 -8 24l-293 -135l293 -137q5 18 8 25q23 50 72.5 68t99.5 -5q47 -23 65 -74t-4 -98q-27 -59 -90 -72q30 -59 4 -116 q-22 -47 -73.5 -65.5t-98.5 3.5q-50 23 -68 72.5t5 99.5q7 13 14 23l-409 190l-410 -190q2 -4 6 -11.5t6 -11.5q23 -50 5 -99.5t-68 -72.5q-47 -22 -97.5 -3.5t-72.5 65.5q-27 59 2 116q-63 14 -90 72q-23 50 -5 100zM487 1241q0 158 124.5 270.5t299.5 112.5 q174 0 298 -112.5t124 -270.5q0 -150 -114 -264v-121q0 -47 -35 -81t-82 -34t-84 37q-12 -33 -41.5 -54.5t-65.5 -21.5q-37 0 -66.5 21.5t-41.5 54.5q-32 -37 -84 -37q-47 0 -81 34t-34 81v121q-117 114 -117 264zM600 1292q0 -53 37.5 -91t91.5 -38t91.5 38t37.5 91 q0 54 -37.5 92.5t-91.5 38.5t-91.5 -38.5t-37.5 -92.5zM828 918.5q8 -13.5 30 -13.5h105q22 0 29.5 13.5t-1.5 33.5l-57 113q-9 20 -23.5 20t-23.5 -20l-58 -113q-9 -20 -1 -33.5zM963 1292q0 -53 37.5 -91t91.5 -38t91.5 38t37.5 91q0 54 -37.5 92.5t-91.5 38.5 t-91.5 -38.5t-37.5 -92.5z" />
<glyph unicode="&#xad;" horiz-adv-x="1736" d="M64 262.5q-1 47.5 11 103.5t30 115.5t45 125.5t52 122.5t55 117t50 98.5t41 77q35 62 71.5 123.5t99 153.5t118 158.5t118.5 114t111 44.5q52 -3 119.5 -58.5t127.5 -130t126 -173t106 -167t76 -133.5q22 -40 44.5 -84t53.5 -110t57 -128t49.5 -131.5t35.5 -127 t10.5 -108.5t-20.5 -81q-29 -46 -109 -80.5t-170.5 -52t-205.5 -28t-190.5 -13t-148.5 -2.5q-64 0 -136 3t-176.5 14t-188.5 28.5t-154 51.5t-92 79q-15 31 -16 78.5zM768 389q0 -41 29.5 -70.5t70.5 -29.5t71 29.5t30 70.5v35q0 41 -30 70.5t-71 29.5t-70.5 -29.5 t-29.5 -70.5v-35zM768 737q0 -41 29.5 -70.5t70.5 -29.5t71 29.5t30 70.5v297q0 41 -30 71t-71 30t-70.5 -30t-29.5 -71v-297z" />
<glyph unicode="&#x2000;" horiz-adv-x="821" />
<glyph unicode="&#x2001;" horiz-adv-x="1642" />
<glyph unicode="&#x2002;" horiz-adv-x="821" />
<glyph unicode="&#x2003;" horiz-adv-x="1642" />
<glyph unicode="&#x2004;" horiz-adv-x="547" />
<glyph unicode="&#x2005;" horiz-adv-x="410" />
<glyph unicode="&#x2006;" horiz-adv-x="273" />
<glyph unicode="&#x2007;" horiz-adv-x="273" />
<glyph unicode="&#x2008;" horiz-adv-x="205" />
<glyph unicode="&#x2009;" horiz-adv-x="328" />
<glyph unicode="&#x200a;" horiz-adv-x="91" />
<glyph unicode="&#x2010;" horiz-adv-x="1736" d="M64 262.5q-1 47.5 11 103.5t30 115.5t45 125.5t52 122.5t55 117t50 98.5t41 77q35 62 71.5 123.5t99 153.5t118 158.5t118.5 114t111 44.5q52 -3 119.5 -58.5t127.5 -130t126 -173t106 -167t76 -133.5q22 -40 44.5 -84t53.5 -110t57 -128t49.5 -131.5t35.5 -127 t10.5 -108.5t-20.5 -81q-29 -46 -109 -80.5t-170.5 -52t-205.5 -28t-190.5 -13t-148.5 -2.5q-64 0 -136 3t-176.5 14t-188.5 28.5t-154 51.5t-92 79q-15 31 -16 78.5zM768 389q0 -41 29.5 -70.5t70.5 -29.5t71 29.5t30 70.5v35q0 41 -30 70.5t-71 29.5t-70.5 -29.5 t-29.5 -70.5v-35zM768 737q0 -41 29.5 -70.5t70.5 -29.5t71 29.5t30 70.5v297q0 41 -30 71t-71 30t-70.5 -30t-29.5 -71v-297z" />
<glyph unicode="&#x2011;" horiz-adv-x="1736" d="M64 262.5q-1 47.5 11 103.5t30 115.5t45 125.5t52 122.5t55 117t50 98.5t41 77q35 62 71.5 123.5t99 153.5t118 158.5t118.5 114t111 44.5q52 -3 119.5 -58.5t127.5 -130t126 -173t106 -167t76 -133.5q22 -40 44.5 -84t53.5 -110t57 -128t49.5 -131.5t35.5 -127 t10.5 -108.5t-20.5 -81q-29 -46 -109 -80.5t-170.5 -52t-205.5 -28t-190.5 -13t-148.5 -2.5q-64 0 -136 3t-176.5 14t-188.5 28.5t-154 51.5t-92 79q-15 31 -16 78.5zM768 389q0 -41 29.5 -70.5t70.5 -29.5t71 29.5t30 70.5v35q0 41 -30 70.5t-71 29.5t-70.5 -29.5 t-29.5 -70.5v-35zM768 737q0 -41 29.5 -70.5t70.5 -29.5t71 29.5t30 70.5v297q0 41 -30 71t-71 30t-70.5 -30t-29.5 -71v-297z" />
<glyph unicode="&#x2012;" horiz-adv-x="1736" d="M64 262.5q-1 47.5 11 103.5t30 115.5t45 125.5t52 122.5t55 117t50 98.5t41 77q35 62 71.5 123.5t99 153.5t118 158.5t118.5 114t111 44.5q52 -3 119.5 -58.5t127.5 -130t126 -173t106 -167t76 -133.5q22 -40 44.5 -84t53.5 -110t57 -128t49.5 -131.5t35.5 -127 t10.5 -108.5t-20.5 -81q-29 -46 -109 -80.5t-170.5 -52t-205.5 -28t-190.5 -13t-148.5 -2.5q-64 0 -136 3t-176.5 14t-188.5 28.5t-154 51.5t-92 79q-15 31 -16 78.5zM768 389q0 -41 29.5 -70.5t70.5 -29.5t71 29.5t30 70.5v35q0 41 -30 70.5t-71 29.5t-70.5 -29.5 t-29.5 -70.5v-35zM768 737q0 -41 29.5 -70.5t70.5 -29.5t71 29.5t30 70.5v297q0 41 -30 71t-71 30t-70.5 -30t-29.5 -71v-297z" />
<glyph unicode="&#x2013;" horiz-adv-x="1150" d="M63 262.5q-1 47.5 7 103.5t19.5 115.5t28.5 125.5t33 122.5t35 117t32 98.5t26 77q22 62 45.5 123.5t63 153.5t75 158.5t75.5 114t71 44.5q33 -3 76 -58.5t81 -130t80 -173t67.5 -167t48.5 -133.5q14 -40 28.5 -84t34.5 -110t36.5 -128t31.5 -131.5t22.5 -127t6.5 -108.5 t-13 -81q-19 -46 -70 -80.5t-108.5 -52t-130.5 -28t-121 -13t-95 -2.5q-41 0 -86.5 3t-112.5 14t-120.5 28.5t-98 51.5t-58.5 79q-9 31 -10 78.5zM511 389q0 -41 19 -70.5t45 -29.5t45 29.5t19 70.5v35q0 41 -19 70.5t-45 29.5t-45 -29.5t-19 -70.5v-35zM511 737 q0 -41 19 -70.5t45 -29.5t45 29.5t19 70.5v297q0 41 -19 71t-45 30t-45 -30t-19 -71v-297z" />
<glyph unicode="&#x2014;" horiz-adv-x="2175" d="M63 262.5q-1 47.5 14 103.5t38 115.5t57.5 125.5t66.5 122.5t70 117t63.5 98.5t52.5 77q44 62 90.5 123.5t126.5 153.5t150.5 158.5t151 114t141.5 44.5q66 -3 152 -58.5t162.5 -130t160.5 -173t135 -167t97 -133.5q28 -40 56.5 -84t68 -110t72.5 -128t63 -131.5 t45.5 -127t13.5 -108.5t-26 -81q-37 -46 -139 -80.5t-217.5 -52t-262 -28t-242.5 -13t-189 -2.5q-81 0 -173 3t-225 14t-240 28.5t-196 51.5t-118 79q-19 31 -20 78.5zM960 389q0 -41 37.5 -70.5t89.5 -29.5t90.5 29.5t38.5 70.5v35q0 41 -38.5 70.5t-90.5 29.5t-89.5 -29.5 t-37.5 -70.5v-35zM960 737q0 -41 37.5 -70.5t89.5 -29.5t90.5 29.5t38.5 70.5v297q0 41 -38.5 71t-90.5 30t-89.5 -30t-37.5 -71v-297z" />
<glyph unicode="&#x202f;" horiz-adv-x="328" />
<glyph unicode="&#x205f;" horiz-adv-x="410" />
<glyph unicode="&#xe000;" horiz-adv-x="1024" d="M0 0z" />
</font>
</defs>
</svg>
